<svg viewBox="0 0 500 500" fill="none" xmlns="http://www.w3.org/2000/svg">
<path d="M394.5 162C394.5 162 398.25 111.44 345.81 77.73C293.37 44.02 218.46 50.57 167.89 76.79C117.32 103.01 124.82 162.9 108 201.29C91.18 239.68 52.75 246.29 55.56 298.68C58.37 351.07 91.15 376.4 128.56 384.83C165.97 393.26 200.67 382.96 234.38 388.57C268.09 394.18 314.91 405.43 369.22 383.89C423.53 362.35 433.83 303.36 426.34 256.54C418.85 209.72 394.5 192.87 394.5 162Z" fill="#FF725E"/>
<path opacity="0.7" d="M394.5 162C394.5 162 398.25 111.44 345.81 77.73C293.37 44.02 218.46 50.57 167.89 76.79C117.32 103.01 124.82 162.9 108 201.29C91.18 239.68 52.75 246.29 55.56 298.68C58.37 351.07 91.15 376.4 128.56 384.83C165.97 393.26 200.67 382.96 234.38 388.57C268.09 394.18 314.91 405.43 369.22 383.89C423.53 362.35 433.83 303.36 426.34 256.54C418.85 209.72 394.5 192.87 394.5 162Z" fill="white"/>
<path d="M344.1 361.12H151.32L166.54 346.43H328.88L344.1 361.12Z" fill="white" stroke="#263238" stroke-linecap="round" stroke-linejoin="round"/>
<path d="M322.68 352.1C322.68 355.1 287.77 357.57 244.68 357.57C201.59 357.57 166.68 355.12 166.68 352.1C166.68 349.08 201.59 346.62 244.68 346.62C287.77 346.62 322.68 349.07 322.68 352.1Z" fill="#FF725E"/>
<path opacity="0.5" d="M322.68 352.1C322.68 355.1 287.77 357.57 244.68 357.57C201.59 357.57 166.68 355.12 166.68 352.1C166.68 349.08 201.59 346.62 244.68 346.62C287.77 346.62 322.68 349.07 322.68 352.1Z" fill="white"/>
<path d="M344.1 361.12H151.32V374.73H344.1V361.12Z" fill="#263238" stroke="#263238" stroke-linecap="round" stroke-linejoin="round"/>
<path d="M357.74 389.41H137.68L151.32 374.73H344.1L357.74 389.41Z" fill="white" stroke="#263238" stroke-linecap="round" stroke-linejoin="round"/>
<path d="M357.7 389.41H137.72V403.73H357.7V389.41Z" fill="#263238" stroke="#263238" stroke-linecap="round" stroke-linejoin="round"/>
<path d="M245.58 215.93V124.4H280.41V85.89" stroke="#263238" stroke-miterlimit="10"/>
<path d="M259.19 123.97V85.89" stroke="#263238" stroke-miterlimit="10"/>
<path d="M248.18 230.52H408.54V207.72H439.19" stroke="#263238" stroke-miterlimit="10"/>
<path d="M240.32 229.73H87.83V205.37H54.82" stroke="#263238" stroke-miterlimit="10"/>
<path d="M214.38 61.52V96.11H194.73V118.11H219.1V192" stroke="#263238" stroke-miterlimit="10"/>
<path d="M322.07 163.7V114.18H335.43V92.96H346.44" stroke="#263238" stroke-miterlimit="10"/>
<path d="M160.15 158.99V121.26L149.14 110.25V82.74" stroke="#263238" stroke-miterlimit="10"/>
<path d="M351.94 181H379.45V162.92H397.53V152.7H413.25" stroke="#263238" stroke-miterlimit="10"/>
<path d="M132.63 187.29H103.55V164.49H62.68" stroke="#263238" stroke-miterlimit="10"/>
<path d="M159.36 310.69V331.13H146V353.93H107.48" stroke="#263238" stroke-miterlimit="10"/>
<path d="M306.35 313.84V335.06H337V326.42H345.65V344.49H372.38" stroke="#263238" stroke-miterlimit="10"/>
<path d="M282.65 85.89C282.648 86.3326 282.515 86.7647 282.268 87.1317C282.02 87.4988 281.67 87.7843 281.26 87.9523C280.851 88.1204 280.401 88.1633 279.967 88.0757C279.533 87.9882 279.135 87.7741 278.823 87.4604C278.51 87.1467 278.298 86.7476 278.212 86.3133C278.127 85.8791 278.172 85.4292 278.341 85.0205C278.511 84.6118 278.798 84.2625 279.167 84.0168C279.535 83.7711 279.967 83.64 280.41 83.64C280.705 83.64 280.997 83.6983 281.27 83.8115C281.542 83.9247 281.789 84.0906 281.997 84.2996C282.206 84.5087 282.37 84.7568 282.482 85.0297C282.594 85.3026 282.651 85.595 282.65 85.89V85.89Z" fill="#263238" stroke="#263238" stroke-linecap="round" stroke-linejoin="round"/>
<path d="M261.51 85.89C261.508 86.3326 261.375 86.7647 261.128 87.1317C260.88 87.4988 260.53 87.7843 260.12 87.9523C259.711 88.1204 259.261 88.1633 258.827 88.0757C258.393 87.9882 257.995 87.7741 257.683 87.4604C257.37 87.1467 257.158 86.7476 257.072 86.3133C256.987 85.8791 257.032 85.4292 257.201 85.0205C257.371 84.6118 257.658 84.2625 258.027 84.0168C258.395 83.7711 258.827 83.64 259.27 83.64C259.565 83.64 259.857 83.6983 260.13 83.8115C260.402 83.9247 260.649 84.0906 260.857 84.2996C261.066 84.5087 261.23 84.7568 261.342 85.0297C261.454 85.3026 261.511 85.595 261.51 85.89V85.89Z" fill="#263238" stroke="#263238" stroke-linecap="round" stroke-linejoin="round"/>
<path d="M216.64 60.87C216.64 61.3154 216.508 61.7508 216.26 62.1211C216.012 62.4913 215.66 62.7797 215.249 62.9497C214.837 63.1197 214.384 63.1636 213.947 63.076C213.511 62.9884 213.11 62.7731 212.795 62.4574C212.481 62.1418 212.268 61.7399 212.182 61.3028C212.096 60.8657 212.142 60.413 212.314 60.002C212.486 59.5911 212.776 59.2404 213.147 58.9943C213.519 58.7483 213.955 58.618 214.4 58.62C214.695 58.62 214.987 58.6783 215.26 58.7915C215.532 58.9047 215.779 59.0706 215.987 59.2796C216.196 59.4887 216.36 59.7368 216.472 60.0097C216.584 60.2826 216.641 60.575 216.64 60.87V60.87Z" fill="#263238" stroke="#263238" stroke-linecap="round" stroke-linejoin="round"/>
<path d="M151.4 81.61C151.398 82.0526 151.265 82.4847 151.018 82.8517C150.77 83.2188 150.42 83.5043 150.01 83.6723C149.601 83.8404 149.151 83.8833 148.717 83.7957C148.283 83.7082 147.885 83.4941 147.573 83.1804C147.26 82.8667 147.048 82.4676 146.962 82.0333C146.877 81.5991 146.922 81.1492 147.091 80.7405C147.261 80.3318 147.548 79.9825 147.917 79.7368C148.285 79.4911 148.717 79.36 149.16 79.36C149.455 79.36 149.747 79.4183 150.02 79.5315C150.292 79.6447 150.539 79.8106 150.747 80.0196C150.956 80.2287 151.12 80.4768 151.232 80.7497C151.344 81.0226 151.401 81.315 151.4 81.61V81.61Z" fill="#263238" stroke="#263238" stroke-linecap="round" stroke-linejoin="round"/>
<path d="M64.92 164.49C64.922 164.936 64.7915 165.372 64.545 165.744C64.2985 166.115 63.9472 166.405 63.5357 166.577C63.1242 166.748 62.6709 166.794 62.2335 166.707C61.7962 166.621 61.3943 166.406 61.0791 166.091C60.7638 165.776 60.5493 165.374 60.4628 164.936C60.3763 164.499 60.4217 164.046 60.5932 163.634C60.7648 163.223 61.0547 162.872 61.4262 162.625C61.7978 162.379 62.2342 162.248 62.68 162.25C63.2741 162.25 63.8439 162.486 64.2639 162.906C64.684 163.326 64.92 163.896 64.92 164.49Z" fill="#263238" stroke="#263238" stroke-linecap="round" stroke-linejoin="round"/>
<path d="M57.13 205.3C57.13 205.745 56.998 206.18 56.7508 206.55C56.5036 206.92 56.1522 207.208 55.741 207.379C55.3299 207.549 54.8775 207.594 54.4411 207.507C54.0046 207.42 53.6037 207.206 53.289 206.891C52.9743 206.576 52.7601 206.175 52.6732 205.739C52.5864 205.302 52.631 204.85 52.8013 204.439C52.9716 204.028 53.26 203.676 53.63 203.429C54 203.182 54.435 203.05 54.88 203.05C55.4767 203.05 56.049 203.287 56.471 203.709C56.893 204.131 57.13 204.703 57.13 205.3V205.3Z" fill="#263238" stroke="#263238" stroke-linecap="round" stroke-linejoin="round"/>
<path d="M109.92 353.5C109.92 353.945 109.788 354.381 109.54 354.751C109.292 355.121 108.94 355.41 108.529 355.58C108.117 355.75 107.664 355.794 107.227 355.706C106.791 355.618 106.39 355.403 106.075 355.087C105.761 354.772 105.548 354.37 105.462 353.933C105.376 353.496 105.422 353.043 105.594 352.632C105.766 352.221 106.056 351.87 106.427 351.624C106.799 351.378 107.235 351.248 107.68 351.25C107.975 351.25 108.267 351.308 108.54 351.421C108.812 351.535 109.059 351.701 109.267 351.91C109.476 352.119 109.64 352.367 109.752 352.64C109.864 352.913 109.921 353.205 109.92 353.5V353.5Z" fill="#263238" stroke="#263238" stroke-linecap="round" stroke-linejoin="round"/>
<path d="M375.76 344.05C375.762 344.495 375.632 344.931 375.386 345.303C375.14 345.674 374.789 345.964 374.378 346.136C373.967 346.308 373.514 346.354 373.077 346.268C372.64 346.182 372.238 345.969 371.923 345.655C371.607 345.34 371.392 344.939 371.304 344.503C371.216 344.066 371.26 343.613 371.43 343.201C371.6 342.79 371.889 342.438 372.259 342.19C372.629 341.942 373.065 341.81 373.51 341.81C373.805 341.809 374.097 341.866 374.37 341.978C374.643 342.09 374.891 342.254 375.1 342.463C375.309 342.671 375.475 342.918 375.589 343.19C375.702 343.463 375.76 343.755 375.76 344.05V344.05Z" fill="#263238" stroke="#263238" stroke-linecap="round" stroke-linejoin="round"/>
<path d="M442.57 207.28C442.57 207.723 442.439 208.156 442.193 208.524C441.946 208.893 441.597 209.18 441.187 209.349C440.778 209.519 440.328 209.563 439.893 209.477C439.458 209.391 439.059 209.177 438.746 208.864C438.433 208.551 438.219 208.152 438.133 207.717C438.047 207.282 438.091 206.832 438.261 206.423C438.43 206.013 438.717 205.664 439.086 205.418C439.454 205.171 439.887 205.04 440.33 205.04C440.924 205.04 441.494 205.276 441.914 205.696C442.334 206.116 442.57 206.686 442.57 207.28Z" fill="#263238" stroke="#263238" stroke-linecap="round" stroke-linejoin="round"/>
<path d="M416.55 152.22C416.55 152.663 416.419 153.096 416.172 153.464C415.926 153.833 415.577 154.12 415.167 154.289C414.758 154.459 414.308 154.503 413.873 154.417C413.438 154.331 413.039 154.117 412.726 153.804C412.413 153.491 412.199 153.092 412.113 152.657C412.027 152.222 412.071 151.772 412.241 151.363C412.41 150.953 412.697 150.604 413.066 150.358C413.434 150.111 413.867 149.98 414.31 149.98C414.904 149.98 415.474 150.216 415.894 150.636C416.314 151.056 416.55 151.626 416.55 152.22Z" fill="#263238" stroke="#263238" stroke-linecap="round" stroke-linejoin="round"/>
<path d="M350.13 92.9C350.13 93.343 349.999 93.7761 349.752 94.1445C349.506 94.5128 349.157 94.7999 348.747 94.9695C348.338 95.139 347.888 95.1834 347.453 95.097C347.018 95.0105 346.619 94.7972 346.306 94.4839C345.993 94.1706 345.779 93.7715 345.693 93.337C345.607 92.9025 345.651 92.4521 345.82 92.0428C345.99 91.6335 346.277 91.2836 346.645 91.0375C347.014 90.7914 347.447 90.66 347.89 90.66C348.484 90.66 349.054 90.896 349.474 91.3161C349.894 91.7362 350.13 92.3059 350.13 92.9Z" fill="#263238" stroke="#263238" stroke-linecap="round" stroke-linejoin="round"/>
<path d="M274.92 330.5V311H216.24V330.5C216.222 336.875 214.02 343.052 210 348L207.43 351.18H283.71L281.15 348C277.13 343.052 274.931 336.875 274.92 330.5V330.5Z" fill="white"/>
<path d="M212.64 344.16H278.52C276.163 339.993 274.922 335.288 274.92 330.5V311H216.24V330.5C216.238 335.288 214.997 339.993 212.64 344.16Z" fill="#FF725E"/>
<path opacity="0.3" d="M212.64 344.16H278.52C276.163 339.993 274.922 335.288 274.92 330.5V311H216.24V330.5C216.238 335.288 214.997 339.993 212.64 344.16Z" fill="white"/>
<path d="M212.64 323.6H278.52C276.163 319.433 274.922 314.728 274.92 309.94V290.44H216.24V309.94C216.238 314.728 214.997 319.433 212.64 323.6Z" fill="#263238"/>
<path d="M274.92 330.5V311H216.24V330.5C216.222 336.875 214.02 343.052 210 348L207.43 351.18H283.71L281.15 348C277.13 343.052 274.931 336.875 274.92 330.5V330.5Z" stroke="#263238" stroke-linecap="round" stroke-linejoin="round"/>
<path d="M355.01 143.99H136.15C131.467 143.99 127.67 147.787 127.67 152.47V308.66C127.67 313.343 131.467 317.14 136.15 317.14H355.01C359.693 317.14 363.49 313.343 363.49 308.66V152.47C363.49 147.787 359.693 143.99 355.01 143.99Z" fill="#263238" stroke="#263238" stroke-linecap="round" stroke-linejoin="round"/>
<path d="M127.67 290.23H363.49V308.66C363.49 310.909 362.597 313.066 361.006 314.656C359.416 316.247 357.259 317.14 355.01 317.14H136.15C133.901 317.14 131.744 316.247 130.154 314.656C128.563 313.066 127.67 310.909 127.67 308.66V290.23Z" fill="white" stroke="#263238" stroke-linecap="round" stroke-linejoin="round"/>
<path d="M351.62 154.77H139.53V277.1H351.62V154.77Z" fill="white" stroke="#263238" stroke-linecap="round" stroke-linejoin="round"/>
<path d="M249.93 308C249.948 307.136 249.708 306.286 249.241 305.559C248.774 304.832 248.101 304.261 247.308 303.918C246.515 303.574 245.638 303.475 244.788 303.633C243.938 303.79 243.155 304.197 242.537 304.802C241.92 305.407 241.497 306.182 241.321 307.028C241.146 307.874 241.227 308.753 241.553 309.553C241.88 310.353 242.437 311.038 243.154 311.52C243.871 312.002 244.716 312.26 245.58 312.26C246.721 312.271 247.82 311.828 248.636 311.03C249.451 310.231 249.917 309.141 249.93 308Z" fill="#263238" stroke="#263238" stroke-linecap="round" stroke-linejoin="round"/>
<path d="M283.73 351.21H207.44V354.69H283.73V351.21Z" fill="white" stroke="#263238" stroke-linecap="round" stroke-linejoin="round"/>
<path d="M245.9 148.42C235.24 158.42 207.9 168.42 176.09 189.71C176.09 189.71 178.09 261.71 245.9 301.02V148.42Z" fill="#FF725E" stroke="#263238" stroke-linecap="round" stroke-linejoin="round"/>
<path d="M245.9 148.42C256.57 158.42 283.9 168.42 315.72 189.71C315.72 189.71 313.72 261.71 245.9 301.02V148.42Z" fill="#263238" stroke="#263238" stroke-linecap="round" stroke-linejoin="round"/>
<path d="M245.9 154.55C233 163.49 210.71 172 181.21 191.74C181.21 191.74 183.06 258.44 245.9 294.9C308.75 258.44 310.6 191.74 310.6 191.74C281.1 172 258.88 163.49 245.9 154.55Z" fill="#263238" stroke="#263238" stroke-linecap="round" stroke-linejoin="round"/>
<path d="M310.6 191.74C281.1 172.01 258.88 163.49 245.9 154.55V294.9C308.75 258.44 310.6 191.74 310.6 191.74Z" fill="#FF725E" stroke="#263238" stroke-linecap="round" stroke-linejoin="round"/>
<path d="M364.22 227.05H126.94V242.41H364.22V227.05Z" fill="#263238" stroke="#263238" stroke-linecap="round" stroke-linejoin="round"/>
<path d="M131.61 229.49C131.616 229.806 131.528 230.116 131.357 230.381C131.186 230.647 130.94 230.855 130.65 230.98C130.36 231.105 130.039 231.141 129.729 231.083C129.418 231.025 129.132 230.876 128.907 230.655C128.681 230.434 128.527 230.151 128.463 229.841C128.399 229.532 128.429 229.211 128.548 228.919C128.668 228.626 128.872 228.376 129.134 228.2C129.396 228.024 129.704 227.93 130.02 227.93C130.227 227.927 130.433 227.966 130.625 228.043C130.817 228.12 130.992 228.234 131.14 228.379C131.287 228.524 131.405 228.697 131.486 228.888C131.566 229.078 131.609 229.283 131.61 229.49V229.49Z" fill="white"/>
<path d="M129.11 230.35C129.284 230.533 129.509 230.66 129.755 230.715C130.002 230.769 130.259 230.749 130.494 230.657C130.729 230.564 130.932 230.404 131.075 230.196C131.219 229.988 131.297 229.743 131.3 229.49C131.297 229.19 131.183 228.901 130.98 228.68C130.319 229.193 129.695 229.751 129.11 230.35V230.35Z" fill="#263238"/>
<path d="M137.85 229.49C137.858 229.808 137.771 230.121 137.6 230.39C137.429 230.658 137.182 230.869 136.891 230.996C136.599 231.124 136.276 231.161 135.963 231.104C135.65 231.047 135.361 230.898 135.134 230.676C134.906 230.454 134.749 230.169 134.684 229.857C134.619 229.546 134.649 229.222 134.768 228.927C134.888 228.633 135.093 228.38 135.357 228.203C135.621 228.025 135.932 227.93 136.25 227.93C136.458 227.927 136.663 227.966 136.856 228.043C137.049 228.12 137.225 228.234 137.373 228.379C137.522 228.523 137.64 228.696 137.722 228.887C137.804 229.078 137.847 229.283 137.85 229.49V229.49Z" fill="white"/>
<path d="M135.34 230.35C135.514 230.533 135.739 230.66 135.985 230.715C136.232 230.769 136.489 230.749 136.724 230.657C136.959 230.564 137.162 230.404 137.305 230.196C137.449 229.988 137.527 229.743 137.53 229.49C137.527 229.19 137.413 228.901 137.21 228.68C136.552 229.196 135.927 229.754 135.34 230.35Z" fill="#263238"/>
<path d="M144.08 229.49C144.048 229.891 143.866 230.266 143.571 230.539C143.275 230.812 142.887 230.964 142.485 230.964C142.083 230.964 141.695 230.812 141.399 230.539C141.104 230.266 140.922 229.891 140.89 229.49C140.922 229.089 141.104 228.714 141.399 228.441C141.695 228.168 142.083 228.016 142.485 228.016C142.887 228.016 143.275 228.168 143.571 228.441C143.866 228.714 144.048 229.089 144.08 229.49Z" fill="white"/>
<path d="M141.57 230.35C141.689 230.473 141.832 230.571 141.99 230.638C142.148 230.705 142.318 230.74 142.49 230.74C142.655 230.741 142.82 230.71 142.973 230.648C143.126 230.586 143.266 230.494 143.384 230.378C143.502 230.262 143.596 230.124 143.66 229.971C143.725 229.819 143.759 229.655 143.76 229.49C143.761 229.189 143.646 228.899 143.44 228.68C142.782 229.196 142.157 229.754 141.57 230.35V230.35Z" fill="#263238"/>
<path d="M150.31 229.49C150.316 229.806 150.228 230.116 150.057 230.381C149.886 230.647 149.64 230.855 149.35 230.98C149.06 231.105 148.739 231.141 148.429 231.083C148.118 231.025 147.832 230.876 147.607 230.655C147.381 230.434 147.227 230.151 147.163 229.841C147.099 229.532 147.129 229.211 147.248 228.919C147.368 228.626 147.572 228.376 147.834 228.2C148.096 228.024 148.404 227.93 148.72 227.93C148.927 227.927 149.133 227.966 149.325 228.043C149.517 228.12 149.692 228.234 149.84 228.379C149.987 228.524 150.105 228.697 150.186 228.888C150.266 229.078 150.309 229.283 150.31 229.49V229.49Z" fill="white"/>
<path d="M147.8 230.35C147.975 230.532 148.201 230.657 148.447 230.711C148.694 230.765 148.951 230.744 149.186 230.653C149.422 230.561 149.624 230.401 149.769 230.194C149.914 229.987 149.994 229.742 150 229.49C149.997 229.19 149.883 228.901 149.68 228.68C149.016 229.193 148.388 229.751 147.8 230.35V230.35Z" fill="#263238"/>
<path d="M156.54 229.49C156.546 229.806 156.458 230.116 156.287 230.381C156.116 230.647 155.87 230.855 155.58 230.98C155.29 231.105 154.969 231.141 154.659 231.083C154.348 231.025 154.062 230.876 153.837 230.655C153.611 230.434 153.457 230.151 153.393 229.841C153.329 229.532 153.359 229.211 153.478 228.919C153.598 228.626 153.802 228.376 154.064 228.2C154.326 228.024 154.634 227.93 154.95 227.93C155.157 227.927 155.363 227.966 155.555 228.043C155.747 228.12 155.922 228.234 156.07 228.379C156.217 228.524 156.335 228.697 156.416 228.888C156.496 229.078 156.539 229.283 156.54 229.49V229.49Z" fill="white"/>
<path d="M154 230.35C154.12 230.473 154.263 230.571 154.421 230.638C154.579 230.705 154.748 230.739 154.92 230.74C155.086 230.743 155.251 230.712 155.406 230.651C155.561 230.589 155.701 230.498 155.82 230.382C155.939 230.265 156.034 230.127 156.099 229.974C156.164 229.821 156.199 229.656 156.2 229.49C156.197 229.19 156.083 228.901 155.88 228.68C155.218 229.196 154.59 229.754 154 230.35Z" fill="#263238"/>
<path d="M162.77 229.49C162.776 229.806 162.688 230.116 162.517 230.381C162.346 230.647 162.1 230.855 161.81 230.98C161.52 231.105 161.199 231.141 160.889 231.083C160.578 231.025 160.292 230.876 160.067 230.655C159.841 230.434 159.687 230.151 159.623 229.841C159.559 229.532 159.589 229.211 159.708 228.919C159.828 228.626 160.032 228.376 160.294 228.2C160.556 228.024 160.864 227.93 161.18 227.93C161.387 227.927 161.593 227.966 161.785 228.043C161.977 228.12 162.152 228.234 162.3 228.379C162.447 228.524 162.565 228.697 162.646 228.888C162.726 229.078 162.769 229.283 162.77 229.49V229.49Z" fill="white"/>
<path d="M160.27 230.35C160.444 230.533 160.669 230.66 160.915 230.715C161.162 230.769 161.419 230.749 161.654 230.657C161.889 230.564 162.092 230.404 162.235 230.196C162.379 229.988 162.457 229.743 162.46 229.49C162.457 229.19 162.343 228.901 162.14 228.68C161.479 229.193 160.855 229.751 160.27 230.35V230.35Z" fill="#263238"/>
<path d="M169 229.49C169.008 229.808 168.921 230.121 168.75 230.39C168.579 230.658 168.332 230.869 168.041 230.996C167.749 231.124 167.426 231.161 167.113 231.104C166.8 231.047 166.511 230.898 166.284 230.676C166.056 230.454 165.899 230.169 165.834 229.857C165.769 229.546 165.799 229.222 165.918 228.927C166.038 228.633 166.243 228.38 166.507 228.203C166.771 228.025 167.082 227.93 167.4 227.93C167.607 227.927 167.813 227.966 168.006 228.043C168.199 228.12 168.375 228.234 168.523 228.379C168.672 228.523 168.79 228.696 168.872 228.887C168.954 229.078 168.997 229.283 169 229.49V229.49Z" fill="white"/>
<path d="M166.5 230.35C166.674 230.533 166.899 230.66 167.145 230.715C167.392 230.769 167.649 230.749 167.884 230.657C168.119 230.564 168.322 230.404 168.465 230.196C168.609 229.988 168.687 229.743 168.69 229.49C168.687 229.19 168.573 228.901 168.37 228.68C167.712 229.196 167.087 229.754 166.5 230.35Z" fill="#263238"/>
<path d="M175.24 229.49C175.246 229.806 175.158 230.116 174.987 230.381C174.816 230.647 174.57 230.855 174.28 230.98C173.99 231.105 173.669 231.141 173.359 231.083C173.048 231.025 172.762 230.876 172.537 230.655C172.311 230.434 172.157 230.151 172.093 229.841C172.029 229.532 172.059 229.211 172.178 228.919C172.298 228.626 172.502 228.376 172.764 228.2C173.026 228.024 173.334 227.93 173.65 227.93C173.857 227.927 174.063 227.966 174.255 228.043C174.447 228.12 174.622 228.234 174.77 228.379C174.917 228.524 175.035 228.697 175.116 228.888C175.196 229.078 175.239 229.283 175.24 229.49V229.49Z" fill="white"/>
<path d="M172.73 230.35C172.849 230.473 172.992 230.571 173.15 230.638C173.308 230.705 173.478 230.74 173.65 230.74C173.815 230.741 173.98 230.71 174.133 230.648C174.286 230.586 174.426 230.494 174.544 230.378C174.662 230.262 174.756 230.124 174.82 229.971C174.885 229.819 174.919 229.655 174.92 229.49C174.921 229.189 174.806 228.899 174.6 228.68C173.942 229.196 173.317 229.754 172.73 230.35V230.35Z" fill="#263238"/>
<path d="M181.47 229.49C181.476 229.806 181.388 230.116 181.217 230.381C181.046 230.647 180.799 230.855 180.51 230.98C180.22 231.105 179.899 231.141 179.589 231.083C179.278 231.025 178.992 230.876 178.767 230.655C178.541 230.434 178.387 230.151 178.323 229.841C178.259 229.532 178.289 229.211 178.408 228.919C178.528 228.626 178.732 228.376 178.994 228.2C179.256 228.024 179.564 227.93 179.88 227.93C180.087 227.927 180.293 227.966 180.485 228.043C180.677 228.12 180.852 228.234 181 228.379C181.147 228.524 181.265 228.697 181.346 228.888C181.426 229.078 181.469 229.283 181.47 229.49V229.49Z" fill="white"/>
<path d="M179 230.35C179.175 230.532 179.401 230.657 179.647 230.711C179.894 230.765 180.151 230.744 180.386 230.653C180.622 230.561 180.824 230.401 180.969 230.194C181.114 229.987 181.194 229.742 181.2 229.49C181.197 229.19 181.083 228.901 180.88 228.68C180.218 229.196 179.59 229.754 179 230.35V230.35Z" fill="#263238"/>
<path d="M187.7 229.49C187.706 229.806 187.618 230.116 187.447 230.381C187.276 230.647 187.03 230.855 186.74 230.98C186.45 231.105 186.129 231.141 185.819 231.083C185.508 231.025 185.222 230.876 184.997 230.655C184.771 230.434 184.617 230.151 184.553 229.841C184.489 229.532 184.519 229.211 184.638 228.919C184.758 228.626 184.962 228.376 185.224 228.2C185.486 228.024 185.794 227.93 186.11 227.93C186.317 227.927 186.523 227.966 186.715 228.043C186.907 228.12 187.082 228.234 187.23 228.379C187.377 228.524 187.495 228.697 187.576 228.888C187.656 229.078 187.699 229.283 187.7 229.49V229.49Z" fill="white"/>
<path d="M185.19 230.35C185.31 230.473 185.453 230.571 185.611 230.638C185.769 230.705 185.938 230.739 186.11 230.74C186.276 230.743 186.441 230.712 186.596 230.651C186.751 230.589 186.891 230.498 187.01 230.382C187.129 230.265 187.224 230.127 187.289 229.974C187.354 229.821 187.389 229.656 187.39 229.49C187.387 229.19 187.273 228.901 187.07 228.68C186.408 229.196 185.78 229.754 185.19 230.35Z" fill="#263238"/>
<path d="M193.93 229.49C193.936 229.806 193.848 230.116 193.677 230.381C193.506 230.647 193.26 230.855 192.97 230.98C192.68 231.105 192.359 231.141 192.049 231.083C191.738 231.025 191.452 230.876 191.227 230.655C191.001 230.434 190.847 230.151 190.783 229.841C190.719 229.532 190.749 229.211 190.868 228.919C190.988 228.626 191.192 228.376 191.454 228.2C191.716 228.024 192.024 227.93 192.34 227.93C192.547 227.927 192.753 227.966 192.945 228.043C193.137 228.12 193.312 228.234 193.46 228.379C193.607 228.524 193.725 228.697 193.806 228.888C193.886 229.078 193.929 229.283 193.93 229.49V229.49Z" fill="white"/>
<path d="M191.43 230.35C191.604 230.533 191.829 230.66 192.075 230.715C192.322 230.769 192.579 230.749 192.814 230.657C193.049 230.564 193.252 230.404 193.395 230.196C193.539 229.988 193.617 229.743 193.62 229.49C193.617 229.19 193.503 228.901 193.3 228.68C192.642 229.196 192.017 229.754 191.43 230.35V230.35Z" fill="#263238"/>
<path d="M200.17 229.49C200.178 229.808 200.091 230.122 199.919 230.391C199.748 230.659 199.5 230.87 199.208 230.997C198.916 231.124 198.593 231.161 198.279 231.103C197.966 231.045 197.677 230.895 197.45 230.672C197.223 230.449 197.067 230.163 197.003 229.851C196.939 229.539 196.97 229.215 197.091 228.92C197.213 228.626 197.419 228.374 197.684 228.198C197.95 228.021 198.261 227.928 198.58 227.93C198.787 227.927 198.993 227.966 199.185 228.043C199.377 228.12 199.552 228.234 199.7 228.379C199.847 228.524 199.965 228.697 200.046 228.888C200.126 229.078 200.169 229.283 200.17 229.49V229.49Z" fill="white"/>
<path d="M197.66 230.35C197.834 230.533 198.059 230.66 198.305 230.715C198.552 230.769 198.809 230.749 199.044 230.657C199.279 230.564 199.482 230.404 199.625 230.196C199.769 229.988 199.847 229.743 199.85 229.49C199.851 229.189 199.736 228.899 199.53 228.68C198.872 229.196 198.247 229.754 197.66 230.35Z" fill="#263238"/>
<path d="M206.4 229.49C206.406 229.806 206.318 230.116 206.147 230.381C205.976 230.647 205.73 230.855 205.44 230.98C205.15 231.105 204.829 231.141 204.519 231.083C204.208 231.025 203.922 230.876 203.697 230.655C203.471 230.434 203.317 230.151 203.253 229.841C203.189 229.532 203.219 229.211 203.338 228.919C203.458 228.626 203.662 228.376 203.924 228.2C204.186 228.024 204.494 227.93 204.81 227.93C205.017 227.927 205.222 227.966 205.415 228.043C205.607 228.12 205.782 228.234 205.93 228.379C206.077 228.524 206.195 228.697 206.276 228.888C206.356 229.078 206.399 229.283 206.4 229.49V229.49Z" fill="white"/>
<path d="M203.89 230.35C204.065 230.532 204.291 230.657 204.537 230.711C204.784 230.765 205.041 230.744 205.276 230.653C205.512 230.561 205.714 230.401 205.859 230.194C206.004 229.987 206.084 229.742 206.09 229.49C206.087 229.19 205.973 228.901 205.77 228.68C205.106 229.193 204.478 229.751 203.89 230.35Z" fill="#263238"/>
<path d="M212.63 229.49C212.636 229.806 212.548 230.116 212.377 230.381C212.206 230.647 211.96 230.855 211.67 230.98C211.38 231.105 211.059 231.141 210.749 231.083C210.438 231.025 210.152 230.876 209.927 230.655C209.701 230.434 209.547 230.151 209.483 229.841C209.419 229.532 209.449 229.211 209.568 228.919C209.688 228.626 209.892 228.376 210.154 228.2C210.416 228.024 210.724 227.93 211.04 227.93C211.247 227.927 211.453 227.966 211.645 228.043C211.837 228.12 212.012 228.234 212.16 228.379C212.307 228.524 212.425 228.697 212.506 228.888C212.586 229.078 212.629 229.283 212.63 229.49V229.49Z" fill="white"/>
<path d="M210.12 230.35C210.24 230.473 210.383 230.571 210.541 230.638C210.699 230.705 210.868 230.739 211.04 230.74C211.206 230.743 211.371 230.712 211.526 230.651C211.681 230.589 211.821 230.498 211.94 230.382C212.059 230.265 212.154 230.127 212.219 229.974C212.284 229.821 212.319 229.656 212.32 229.49C212.317 229.19 212.203 228.901 212 228.68C211.338 229.196 210.71 229.754 210.12 230.35Z" fill="#263238"/>
<path d="M131.61 239.4C131.618 239.716 131.532 240.027 131.362 240.294C131.192 240.561 130.946 240.771 130.657 240.897C130.367 241.024 130.046 241.061 129.735 241.004C129.424 240.947 129.137 240.799 128.911 240.579C128.684 240.358 128.529 240.075 128.464 239.765C128.399 239.456 128.429 239.134 128.548 238.841C128.667 238.548 128.87 238.298 129.133 238.121C129.395 237.944 129.704 237.85 130.02 237.85C130.226 237.847 130.431 237.885 130.622 237.962C130.814 238.038 130.988 238.152 131.136 238.296C131.284 238.44 131.402 238.611 131.483 238.801C131.564 238.99 131.607 239.194 131.61 239.4V239.4Z" fill="white"/>
<path d="M129.11 240.27C129.227 240.394 129.368 240.492 129.525 240.559C129.681 240.626 129.85 240.66 130.02 240.66C130.187 240.661 130.352 240.63 130.507 240.567C130.661 240.505 130.802 240.412 130.921 240.295C131.04 240.178 131.134 240.039 131.2 239.885C131.265 239.732 131.299 239.567 131.3 239.4C131.294 239.103 131.18 238.819 130.98 238.6C130.319 239.113 129.695 239.671 129.11 240.27V240.27Z" fill="#263238"/>
<path d="M137.85 239.4C137.86 239.718 137.775 240.033 137.605 240.302C137.435 240.572 137.189 240.785 136.898 240.913C136.606 241.042 136.283 241.081 135.97 241.025C135.656 240.969 135.366 240.821 135.138 240.599C134.909 240.378 134.751 240.093 134.685 239.781C134.62 239.469 134.648 239.145 134.768 238.85C134.887 238.555 135.092 238.302 135.356 238.124C135.62 237.945 135.931 237.85 136.25 237.85C136.667 237.845 137.07 238.005 137.37 238.295C137.669 238.585 137.842 238.983 137.85 239.4V239.4Z" fill="white"/>
<path d="M135.34 240.27C135.457 240.394 135.598 240.492 135.755 240.559C135.911 240.626 136.08 240.66 136.25 240.66C136.417 240.661 136.582 240.63 136.737 240.567C136.891 240.505 137.032 240.412 137.151 240.295C137.27 240.178 137.364 240.039 137.43 239.885C137.495 239.732 137.529 239.567 137.53 239.4C137.524 239.103 137.41 238.819 137.21 238.6C136.552 239.116 135.927 239.674 135.34 240.27Z" fill="#263238"/>
<path d="M144.08 239.4C144.09 239.719 144.004 240.033 143.834 240.303C143.664 240.573 143.417 240.786 143.125 240.914C142.834 241.043 142.51 241.081 142.196 241.024C141.882 240.968 141.592 240.818 141.364 240.596C141.136 240.373 140.979 240.087 140.914 239.775C140.849 239.463 140.879 239.138 141 238.843C141.121 238.548 141.328 238.296 141.593 238.119C141.859 237.942 142.171 237.848 142.49 237.85C142.696 237.847 142.901 237.885 143.092 237.962C143.284 238.038 143.458 238.152 143.606 238.296C143.754 238.44 143.872 238.611 143.953 238.801C144.034 238.99 144.077 239.194 144.08 239.4V239.4Z" fill="white"/>
<path d="M141.57 240.27C141.745 240.454 141.97 240.581 142.218 240.635C142.465 240.689 142.723 240.668 142.959 240.575C143.194 240.481 143.397 240.319 143.539 240.11C143.682 239.901 143.759 239.653 143.76 239.4C143.759 239.102 143.645 238.816 143.44 238.6C142.782 239.116 142.157 239.674 141.57 240.27Z" fill="#263238"/>
<path d="M150.31 239.4C150.318 239.716 150.231 240.027 150.062 240.294C149.892 240.561 149.646 240.771 149.357 240.897C149.067 241.024 148.746 241.061 148.435 241.004C148.124 240.947 147.837 240.799 147.611 240.579C147.384 240.358 147.229 240.075 147.164 239.765C147.099 239.456 147.129 239.134 147.248 238.841C147.367 238.548 147.57 238.298 147.833 238.121C148.095 237.944 148.404 237.85 148.72 237.85C148.926 237.847 149.131 237.885 149.322 237.962C149.514 238.038 149.688 238.152 149.836 238.296C149.984 238.44 150.102 238.611 150.183 238.801C150.264 238.99 150.307 239.194 150.31 239.4V239.4Z" fill="white"/>
<path d="M147.8 240.27C147.976 240.452 148.202 240.578 148.45 240.631C148.697 240.685 148.955 240.664 149.191 240.571C149.426 240.477 149.629 240.316 149.773 240.108C149.917 239.9 149.996 239.653 150 239.4C149.994 239.103 149.88 238.819 149.68 238.6C149.016 239.113 148.388 239.671 147.8 240.27V240.27Z" fill="#263238"/>
<path d="M156.54 239.4C156.548 239.716 156.462 240.027 156.292 240.294C156.122 240.561 155.876 240.771 155.587 240.897C155.297 241.024 154.976 241.061 154.665 241.004C154.354 240.947 154.067 240.799 153.841 240.579C153.614 240.358 153.459 240.075 153.394 239.765C153.329 239.456 153.359 239.134 153.478 238.841C153.597 238.548 153.8 238.298 154.063 238.121C154.325 237.944 154.634 237.85 154.95 237.85C155.156 237.847 155.361 237.885 155.552 237.962C155.744 238.038 155.918 238.152 156.066 238.296C156.214 238.44 156.332 238.611 156.413 238.801C156.494 238.99 156.537 239.194 156.54 239.4V239.4Z" fill="white"/>
<path d="M154 240.27C154.12 240.393 154.263 240.491 154.421 240.558C154.579 240.625 154.748 240.659 154.92 240.66C155.087 240.661 155.252 240.63 155.407 240.567C155.561 240.505 155.702 240.412 155.821 240.295C155.94 240.178 156.034 240.039 156.1 239.885C156.165 239.732 156.199 239.567 156.2 239.4C156.194 239.103 156.08 238.819 155.88 238.6C155.218 239.116 154.59 239.674 154 240.27Z" fill="#263238"/>
<path d="M162.77 239.4C162.778 239.716 162.692 240.027 162.522 240.294C162.352 240.561 162.106 240.771 161.817 240.897C161.527 241.024 161.206 241.061 160.895 241.004C160.584 240.947 160.297 240.799 160.071 240.579C159.844 240.358 159.689 240.075 159.624 239.765C159.559 239.456 159.589 239.134 159.708 238.841C159.827 238.548 160.03 238.298 160.293 238.121C160.555 237.944 160.864 237.85 161.18 237.85C161.386 237.847 161.591 237.885 161.782 237.962C161.974 238.038 162.148 238.152 162.296 238.296C162.444 238.44 162.562 238.611 162.643 238.801C162.724 238.99 162.767 239.194 162.77 239.4V239.4Z" fill="white"/>
<path d="M160.27 240.27C160.387 240.394 160.528 240.492 160.685 240.559C160.841 240.626 161.01 240.66 161.18 240.66C161.347 240.661 161.512 240.63 161.667 240.567C161.821 240.505 161.962 240.412 162.081 240.295C162.2 240.178 162.294 240.039 162.36 239.885C162.425 239.732 162.459 239.567 162.46 239.4C162.454 239.103 162.34 238.819 162.14 238.6C161.479 239.113 160.855 239.671 160.27 240.27V240.27Z" fill="#263238"/>
<path d="M169 239.4C169.01 239.718 168.925 240.033 168.755 240.302C168.585 240.572 168.339 240.785 168.048 240.913C167.756 241.042 167.433 241.081 167.12 241.025C166.806 240.969 166.516 240.821 166.288 240.599C166.059 240.378 165.901 240.093 165.835 239.781C165.769 239.469 165.798 239.145 165.918 238.85C166.037 238.555 166.242 238.302 166.506 238.124C166.77 237.945 167.081 237.85 167.4 237.85C167.817 237.845 168.22 238.005 168.52 238.295C168.819 238.585 168.992 238.983 169 239.4V239.4Z" fill="white"/>
<path d="M166.5 240.27C166.617 240.394 166.758 240.492 166.915 240.559C167.071 240.626 167.24 240.66 167.41 240.66C167.577 240.661 167.742 240.63 167.897 240.567C168.051 240.505 168.192 240.412 168.311 240.295C168.43 240.178 168.524 240.039 168.59 239.885C168.655 239.732 168.689 239.567 168.69 239.4C168.684 239.103 168.57 238.819 168.37 238.6C167.712 239.116 167.087 239.674 166.5 240.27Z" fill="#263238"/>
<path d="M175.24 239.4C175.248 239.716 175.162 240.027 174.992 240.294C174.822 240.561 174.576 240.771 174.287 240.897C173.997 241.024 173.676 241.061 173.365 241.004C173.054 240.947 172.767 240.799 172.541 240.579C172.314 240.358 172.159 240.075 172.094 239.765C172.029 239.456 172.059 239.134 172.178 238.841C172.297 238.548 172.5 238.298 172.763 238.121C173.025 237.944 173.334 237.85 173.65 237.85C173.856 237.847 174.061 237.885 174.252 237.962C174.444 238.038 174.618 238.152 174.766 238.296C174.914 238.44 175.032 238.611 175.113 238.801C175.194 238.99 175.237 239.194 175.24 239.4V239.4Z" fill="white"/>
<path d="M172.73 240.27C172.905 240.454 173.13 240.581 173.378 240.635C173.625 240.689 173.883 240.668 174.119 240.575C174.354 240.481 174.557 240.319 174.699 240.11C174.842 239.901 174.919 239.653 174.92 239.4C174.919 239.102 174.805 238.816 174.6 238.6C173.942 239.116 173.317 239.674 172.73 240.27V240.27Z" fill="#263238"/>
<path d="M181.47 239.4C181.478 239.716 181.391 240.027 181.222 240.294C181.052 240.561 180.806 240.771 180.517 240.897C180.227 241.024 179.906 241.061 179.595 241.004C179.284 240.947 178.997 240.799 178.771 240.579C178.544 240.358 178.389 240.075 178.324 239.765C178.259 239.456 178.289 239.134 178.408 238.841C178.527 238.548 178.73 238.298 178.993 238.121C179.255 237.944 179.564 237.85 179.88 237.85C180.086 237.847 180.291 237.885 180.482 237.962C180.674 238.038 180.848 238.152 180.996 238.296C181.144 238.44 181.262 238.611 181.343 238.801C181.424 238.99 181.467 239.194 181.47 239.4V239.4Z" fill="white"/>
<path d="M179 240.27C179.176 240.452 179.402 240.578 179.65 240.631C179.897 240.685 180.155 240.664 180.391 240.571C180.626 240.477 180.829 240.316 180.973 240.108C181.117 239.9 181.196 239.653 181.2 239.4C181.194 239.103 181.08 238.819 180.88 238.6C180.218 239.116 179.59 239.674 179 240.27Z" fill="#263238"/>
<path d="M187.7 239.4C187.708 239.716 187.622 240.027 187.452 240.294C187.282 240.561 187.036 240.771 186.747 240.897C186.457 241.024 186.136 241.061 185.825 241.004C185.514 240.947 185.227 240.799 185.001 240.579C184.774 240.358 184.619 240.075 184.554 239.765C184.489 239.456 184.519 239.134 184.638 238.841C184.757 238.548 184.96 238.298 185.223 238.121C185.485 237.944 185.794 237.85 186.11 237.85C186.316 237.847 186.521 237.885 186.712 237.962C186.904 238.038 187.078 238.152 187.226 238.296C187.374 238.44 187.492 238.611 187.573 238.801C187.654 238.99 187.697 239.194 187.7 239.4V239.4Z" fill="white"/>
<path d="M185.19 240.27C185.31 240.393 185.453 240.491 185.611 240.558C185.769 240.625 185.938 240.659 186.11 240.66C186.277 240.661 186.442 240.63 186.597 240.567C186.751 240.505 186.892 240.412 187.011 240.295C187.13 240.178 187.224 240.039 187.29 239.885C187.355 239.732 187.389 239.567 187.39 239.4C187.384 239.103 187.27 238.819 187.07 238.6C186.408 239.116 185.78 239.674 185.19 240.27V240.27Z" fill="#263238"/>
<path d="M193.93 239.4C193.938 239.716 193.852 240.027 193.682 240.294C193.512 240.561 193.266 240.771 192.977 240.897C192.687 241.024 192.366 241.061 192.055 241.004C191.744 240.947 191.457 240.799 191.231 240.579C191.004 240.358 190.849 240.075 190.784 239.765C190.719 239.456 190.749 239.134 190.868 238.841C190.987 238.548 191.19 238.298 191.453 238.121C191.715 237.944 192.024 237.85 192.34 237.85C192.546 237.847 192.751 237.885 192.942 237.962C193.134 238.038 193.308 238.152 193.456 238.296C193.604 238.44 193.722 238.611 193.803 238.801C193.884 238.99 193.927 239.194 193.93 239.4V239.4Z" fill="white"/>
<path d="M191.43 240.27C191.547 240.394 191.688 240.492 191.845 240.559C192.001 240.626 192.17 240.66 192.34 240.66C192.507 240.661 192.672 240.63 192.827 240.567C192.981 240.505 193.122 240.412 193.241 240.295C193.36 240.178 193.454 240.039 193.52 239.885C193.585 239.732 193.619 239.567 193.62 239.4C193.614 239.103 193.5 238.819 193.3 238.6C192.642 239.116 192.017 239.674 191.43 240.27V240.27Z" fill="#263238"/>
<path d="M200.17 239.4C200.18 239.719 200.094 240.033 199.924 240.303C199.754 240.573 199.507 240.786 199.215 240.914C198.924 241.043 198.6 241.081 198.286 241.024C197.972 240.968 197.682 240.818 197.454 240.596C197.226 240.373 197.069 240.087 197.004 239.775C196.939 239.463 196.969 239.138 197.09 238.843C197.212 238.548 197.418 238.296 197.683 238.119C197.949 237.942 198.261 237.848 198.58 237.85C198.786 237.847 198.991 237.885 199.182 237.962C199.374 238.038 199.548 238.152 199.696 238.296C199.844 238.44 199.962 238.611 200.043 238.801C200.124 238.99 200.167 239.194 200.17 239.4V239.4Z" fill="white"/>
<path d="M197.66 240.27C197.835 240.454 198.06 240.581 198.308 240.635C198.555 240.689 198.813 240.668 199.049 240.575C199.284 240.481 199.487 240.319 199.629 240.11C199.772 239.901 199.849 239.653 199.85 239.4C199.849 239.102 199.735 238.816 199.53 238.6C198.872 239.116 198.247 239.674 197.66 240.27V240.27Z" fill="#263238"/>
<path d="M206.4 239.4C206.408 239.716 206.322 240.027 206.152 240.294C205.982 240.561 205.736 240.771 205.447 240.897C205.157 241.024 204.836 241.061 204.525 241.004C204.214 240.947 203.927 240.799 203.701 240.579C203.474 240.358 203.319 240.075 203.254 239.765C203.189 239.456 203.219 239.134 203.338 238.841C203.457 238.548 203.66 238.298 203.923 238.121C204.185 237.944 204.494 237.85 204.81 237.85C205.016 237.847 205.221 237.885 205.412 237.962C205.604 238.038 205.778 238.152 205.926 238.296C206.074 238.44 206.192 238.611 206.273 238.801C206.354 238.99 206.397 239.194 206.4 239.4V239.4Z" fill="white"/>
<path d="M203.89 240.27C204.066 240.452 204.292 240.578 204.54 240.631C204.787 240.685 205.045 240.664 205.281 240.571C205.516 240.477 205.719 240.316 205.863 240.108C206.007 239.9 206.086 239.653 206.09 239.4C206.084 239.103 205.97 238.819 205.77 238.6C205.106 239.113 204.478 239.671 203.89 240.27Z" fill="#263238"/>
<path d="M212.63 239.4C212.638 239.716 212.552 240.027 212.382 240.294C212.212 240.561 211.966 240.771 211.677 240.897C211.387 241.024 211.066 241.061 210.755 241.004C210.444 240.947 210.157 240.799 209.931 240.579C209.704 240.358 209.549 240.075 209.484 239.765C209.419 239.456 209.449 239.134 209.568 238.841C209.687 238.548 209.89 238.298 210.153 238.121C210.415 237.944 210.724 237.85 211.04 237.85C211.246 237.847 211.451 237.885 211.642 237.962C211.834 238.038 212.008 238.152 212.156 238.296C212.304 238.44 212.422 238.611 212.503 238.801C212.584 238.99 212.627 239.194 212.63 239.4V239.4Z" fill="white"/>
<path d="M210.12 240.27C210.24 240.393 210.383 240.491 210.541 240.558C210.699 240.625 210.868 240.659 211.04 240.66C211.207 240.661 211.372 240.63 211.527 240.567C211.681 240.505 211.822 240.412 211.941 240.295C212.06 240.178 212.154 240.039 212.22 239.885C212.285 239.732 212.319 239.567 212.32 239.4C212.314 239.103 212.2 238.819 212 238.6C211.338 239.116 210.71 239.674 210.12 240.27V240.27Z" fill="#263238"/>
<path d="M281.68 229.49C281.686 229.806 281.598 230.116 281.427 230.381C281.256 230.647 281.009 230.855 280.72 230.98C280.43 231.105 280.109 231.141 279.799 231.083C279.488 231.025 279.202 230.876 278.977 230.655C278.751 230.434 278.597 230.151 278.533 229.841C278.469 229.532 278.499 229.211 278.618 228.919C278.738 228.626 278.942 228.376 279.204 228.2C279.466 228.024 279.774 227.93 280.09 227.93C280.297 227.927 280.502 227.966 280.695 228.043C280.887 228.12 281.062 228.234 281.21 228.379C281.357 228.524 281.475 228.697 281.556 228.888C281.636 229.078 281.679 229.283 281.68 229.49V229.49Z" fill="white"/>
<path d="M279.18 230.35C279.354 230.533 279.579 230.66 279.825 230.715C280.072 230.769 280.329 230.749 280.564 230.657C280.799 230.564 281.002 230.404 281.145 230.196C281.289 229.988 281.367 229.743 281.37 229.49C281.367 229.19 281.253 228.901 281.05 228.68C280.391 229.196 279.767 229.754 279.18 230.35V230.35Z" fill="#263238"/>
<path d="M287.92 229.49C287.928 229.808 287.841 230.122 287.669 230.391C287.498 230.659 287.25 230.87 286.958 230.997C286.666 231.124 286.343 231.161 286.029 231.103C285.716 231.045 285.427 230.895 285.2 230.672C284.973 230.449 284.817 230.163 284.753 229.851C284.689 229.539 284.72 229.215 284.841 228.92C284.963 228.626 285.169 228.374 285.434 228.198C285.7 228.021 286.011 227.928 286.33 227.93C286.537 227.927 286.743 227.966 286.935 228.043C287.127 228.12 287.302 228.234 287.45 228.379C287.597 228.524 287.715 228.697 287.796 228.888C287.876 229.078 287.919 229.283 287.92 229.49V229.49Z" fill="white"/>
<path d="M285.41 230.35C285.584 230.533 285.809 230.66 286.055 230.715C286.302 230.769 286.559 230.749 286.794 230.657C287.029 230.564 287.232 230.404 287.375 230.196C287.519 229.988 287.597 229.743 287.6 229.49C287.601 229.189 287.486 228.899 287.28 228.68C286.622 229.196 285.997 229.754 285.41 230.35Z" fill="#263238"/>
<path d="M294.15 229.49C294.156 229.806 294.068 230.116 293.897 230.381C293.726 230.647 293.479 230.855 293.19 230.98C292.9 231.105 292.579 231.141 292.269 231.083C291.958 231.025 291.672 230.876 291.447 230.655C291.221 230.434 291.067 230.151 291.003 229.841C290.939 229.532 290.969 229.211 291.088 228.919C291.208 228.626 291.412 228.376 291.674 228.2C291.936 228.024 292.244 227.93 292.56 227.93C292.767 227.927 292.972 227.966 293.165 228.043C293.357 228.12 293.532 228.234 293.68 228.379C293.827 228.524 293.945 228.697 294.026 228.888C294.106 229.078 294.149 229.283 294.15 229.49V229.49Z" fill="white"/>
<path d="M291.64 230.35C291.815 230.532 292.041 230.657 292.287 230.711C292.534 230.765 292.791 230.744 293.026 230.653C293.262 230.561 293.464 230.401 293.609 230.194C293.754 229.987 293.834 229.742 293.84 229.49C293.837 229.19 293.723 228.901 293.52 228.68C292.856 229.193 292.228 229.751 291.64 230.35Z" fill="#263238"/>
<path d="M300.38 229.49C300.386 229.806 300.298 230.116 300.127 230.381C299.956 230.647 299.71 230.855 299.42 230.98C299.13 231.105 298.809 231.141 298.499 231.083C298.188 231.025 297.902 230.876 297.677 230.655C297.451 230.434 297.297 230.151 297.233 229.841C297.169 229.532 297.199 229.211 297.318 228.919C297.438 228.626 297.642 228.376 297.904 228.2C298.166 228.024 298.474 227.93 298.79 227.93C298.997 227.927 299.203 227.966 299.395 228.043C299.587 228.12 299.762 228.234 299.91 228.379C300.057 228.524 300.175 228.697 300.256 228.888C300.336 229.078 300.379 229.283 300.38 229.49V229.49Z" fill="white"/>
<path d="M297.87 230.35C297.99 230.473 298.133 230.571 298.291 230.638C298.449 230.705 298.618 230.739 298.79 230.74C298.956 230.743 299.121 230.712 299.276 230.651C299.431 230.589 299.571 230.498 299.69 230.382C299.809 230.265 299.904 230.127 299.969 229.974C300.034 229.821 300.069 229.656 300.07 229.49C300.067 229.19 299.953 228.901 299.75 228.68C299.088 229.196 298.46 229.754 297.87 230.35V230.35Z" fill="#263238"/>
<path d="M306.61 229.49C306.616 229.806 306.528 230.116 306.357 230.381C306.186 230.647 305.939 230.855 305.65 230.98C305.36 231.105 305.039 231.141 304.729 231.083C304.418 231.025 304.132 230.876 303.907 230.655C303.681 230.434 303.527 230.151 303.463 229.841C303.399 229.532 303.429 229.211 303.548 228.919C303.668 228.626 303.872 228.376 304.134 228.2C304.396 228.024 304.704 227.93 305.02 227.93C305.227 227.927 305.432 227.966 305.625 228.043C305.817 228.12 305.992 228.234 306.14 228.379C306.287 228.524 306.405 228.697 306.486 228.888C306.566 229.078 306.609 229.283 306.61 229.49V229.49Z" fill="white"/>
<path d="M304.11 230.35C304.284 230.533 304.509 230.66 304.755 230.715C305.002 230.769 305.259 230.749 305.494 230.657C305.729 230.564 305.932 230.404 306.075 230.196C306.219 229.988 306.297 229.743 306.3 229.49C306.297 229.19 306.183 228.901 305.98 228.68C305.319 229.193 304.695 229.751 304.11 230.35Z" fill="#263238"/>
<path d="M312.85 229.49C312.858 229.808 312.771 230.121 312.6 230.39C312.429 230.658 312.182 230.869 311.89 230.996C311.599 231.124 311.276 231.161 310.963 231.104C310.65 231.047 310.361 230.898 310.134 230.676C309.906 230.454 309.749 230.169 309.684 229.857C309.619 229.546 309.648 229.222 309.768 228.927C309.888 228.633 310.093 228.38 310.357 228.203C310.621 228.025 310.932 227.93 311.25 227.93C311.457 227.927 311.663 227.966 311.856 228.043C312.049 228.12 312.225 228.234 312.373 228.379C312.522 228.523 312.64 228.696 312.722 228.887C312.804 229.078 312.847 229.283 312.85 229.49V229.49Z" fill="white"/>
<path d="M310.34 230.35C310.514 230.533 310.739 230.66 310.985 230.715C311.232 230.769 311.489 230.749 311.724 230.657C311.959 230.564 312.162 230.404 312.305 230.196C312.449 229.988 312.527 229.743 312.53 229.49C312.527 229.19 312.413 228.901 312.21 228.68C311.551 229.196 310.927 229.754 310.34 230.35V230.35Z" fill="#263238"/>
<path d="M319.08 229.49C319.088 229.808 319.001 230.122 318.829 230.391C318.658 230.659 318.41 230.87 318.118 230.997C317.826 231.124 317.503 231.161 317.189 231.103C316.876 231.045 316.587 230.895 316.36 230.672C316.133 230.449 315.977 230.163 315.913 229.851C315.849 229.539 315.88 229.215 316.001 228.92C316.123 228.626 316.329 228.374 316.594 228.198C316.86 228.021 317.171 227.928 317.49 227.93C317.697 227.927 317.902 227.966 318.095 228.043C318.287 228.12 318.462 228.234 318.61 228.379C318.757 228.524 318.875 228.697 318.956 228.888C319.036 229.078 319.079 229.283 319.08 229.49V229.49Z" fill="white"/>
<path d="M316.57 230.35C316.744 230.533 316.969 230.66 317.215 230.715C317.462 230.769 317.719 230.749 317.954 230.657C318.189 230.564 318.392 230.404 318.535 230.196C318.679 229.988 318.757 229.743 318.76 229.49C318.761 229.189 318.646 228.899 318.44 228.68C317.782 229.196 317.157 229.754 316.57 230.35V230.35Z" fill="#263238"/>
<path d="M325.31 229.49C325.316 229.806 325.228 230.116 325.057 230.381C324.886 230.647 324.639 230.855 324.35 230.98C324.06 231.105 323.739 231.141 323.429 231.083C323.118 231.025 322.832 230.876 322.607 230.655C322.381 230.434 322.227 230.151 322.163 229.841C322.099 229.532 322.129 229.211 322.248 228.919C322.368 228.626 322.572 228.376 322.834 228.2C323.096 228.024 323.404 227.93 323.72 227.93C323.927 227.927 324.132 227.966 324.325 228.043C324.517 228.12 324.692 228.234 324.84 228.379C324.987 228.524 325.105 228.697 325.186 228.888C325.266 229.078 325.309 229.283 325.31 229.49V229.49Z" fill="white"/>
<path d="M322.8 230.35C322.975 230.532 323.201 230.657 323.447 230.711C323.694 230.765 323.951 230.744 324.186 230.653C324.422 230.561 324.624 230.401 324.769 230.194C324.914 229.987 324.994 229.742 325 229.49C324.997 229.19 324.883 228.901 324.68 228.68C324.016 229.193 323.388 229.751 322.8 230.35Z" fill="#263238"/>
<path d="M331.54 229.49C331.546 229.806 331.458 230.116 331.287 230.381C331.116 230.647 330.869 230.855 330.58 230.98C330.29 231.105 329.969 231.141 329.659 231.083C329.348 231.025 329.062 230.876 328.837 230.655C328.611 230.434 328.457 230.151 328.393 229.841C328.329 229.532 328.359 229.211 328.478 228.919C328.598 228.626 328.802 228.376 329.064 228.2C329.326 228.024 329.634 227.93 329.95 227.93C330.157 227.927 330.363 227.966 330.555 228.043C330.747 228.12 330.922 228.234 331.07 228.379C331.217 228.524 331.335 228.697 331.416 228.888C331.496 229.078 331.539 229.283 331.54 229.49V229.49Z" fill="white"/>
<path d="M329 230.35C329.12 230.473 329.263 230.571 329.421 230.638C329.579 230.705 329.748 230.739 329.92 230.74C330.086 230.743 330.251 230.712 330.406 230.651C330.561 230.589 330.701 230.498 330.82 230.382C330.939 230.265 331.034 230.127 331.099 229.974C331.164 229.821 331.199 229.656 331.2 229.49C331.197 229.19 331.083 228.901 330.88 228.68C330.218 229.196 329.59 229.754 329 230.35Z" fill="#263238"/>
<path d="M337.77 229.49C337.776 229.806 337.688 230.116 337.517 230.381C337.346 230.647 337.099 230.855 336.81 230.98C336.52 231.105 336.199 231.141 335.889 231.083C335.578 231.025 335.292 230.876 335.067 230.655C334.841 230.434 334.687 230.151 334.623 229.841C334.559 229.532 334.589 229.211 334.708 228.919C334.828 228.626 335.032 228.376 335.294 228.2C335.556 228.024 335.864 227.93 336.18 227.93C336.387 227.927 336.592 227.966 336.785 228.043C336.977 228.12 337.152 228.234 337.3 228.379C337.447 228.524 337.565 228.697 337.646 228.888C337.726 229.078 337.769 229.283 337.77 229.49V229.49Z" fill="white"/>
<path d="M335.27 230.35C335.444 230.533 335.669 230.66 335.915 230.715C336.162 230.769 336.419 230.749 336.654 230.657C336.889 230.564 337.092 230.404 337.235 230.196C337.379 229.988 337.457 229.743 337.46 229.49C337.457 229.19 337.343 228.901 337.14 228.68C336.479 229.193 335.855 229.751 335.27 230.35Z" fill="#263238"/>
<path d="M344 229.49C344.008 229.808 343.921 230.121 343.75 230.39C343.579 230.658 343.332 230.869 343.041 230.996C342.749 231.124 342.426 231.161 342.113 231.104C341.8 231.047 341.511 230.898 341.284 230.676C341.056 230.454 340.899 230.169 340.834 229.857C340.769 229.546 340.799 229.222 340.918 228.927C341.038 228.633 341.243 228.38 341.507 228.203C341.771 228.025 342.082 227.93 342.4 227.93C342.608 227.927 342.814 227.966 343.006 228.043C343.199 228.12 343.375 228.234 343.523 228.379C343.672 228.523 343.79 228.696 343.872 228.887C343.954 229.078 343.997 229.283 344 229.49V229.49Z" fill="white"/>
<path d="M341.5 230.35C341.674 230.533 341.899 230.66 342.145 230.715C342.392 230.769 342.649 230.749 342.884 230.657C343.119 230.564 343.322 230.404 343.465 230.196C343.609 229.988 343.687 229.743 343.69 229.49C343.687 229.19 343.573 228.901 343.37 228.68C342.712 229.196 342.087 229.754 341.5 230.35V230.35Z" fill="#263238"/>
<path d="M350.24 229.49C350.246 229.806 350.158 230.116 349.987 230.381C349.816 230.647 349.569 230.855 349.28 230.98C348.99 231.105 348.669 231.141 348.359 231.083C348.048 231.025 347.762 230.876 347.537 230.655C347.311 230.434 347.157 230.151 347.093 229.841C347.029 229.532 347.059 229.211 347.178 228.919C347.298 228.626 347.502 228.376 347.764 228.2C348.026 228.024 348.334 227.93 348.65 227.93C348.857 227.927 349.062 227.966 349.255 228.043C349.447 228.12 349.622 228.234 349.77 228.379C349.917 228.524 350.035 228.697 350.116 228.888C350.196 229.078 350.239 229.283 350.24 229.49V229.49Z" fill="white"/>
<path d="M347.73 230.35C347.849 230.473 347.992 230.571 348.15 230.638C348.308 230.705 348.478 230.74 348.65 230.74C348.815 230.741 348.98 230.71 349.133 230.648C349.286 230.586 349.426 230.494 349.544 230.378C349.662 230.262 349.756 230.124 349.82 229.971C349.885 229.819 349.919 229.655 349.92 229.49C349.921 229.189 349.806 228.899 349.6 228.68C348.942 229.196 348.317 229.754 347.73 230.35V230.35Z" fill="#263238"/>
<path d="M356.47 229.49C356.476 229.806 356.388 230.116 356.217 230.381C356.046 230.647 355.8 230.855 355.51 230.98C355.22 231.105 354.899 231.141 354.589 231.083C354.278 231.025 353.992 230.876 353.767 230.655C353.541 230.434 353.387 230.151 353.323 229.841C353.259 229.532 353.289 229.211 353.408 228.919C353.528 228.626 353.732 228.376 353.994 228.2C354.256 228.024 354.564 227.93 354.88 227.93C355.087 227.927 355.293 227.966 355.485 228.043C355.677 228.12 355.852 228.234 356 228.379C356.147 228.524 356.265 228.697 356.346 228.888C356.426 229.078 356.469 229.283 356.47 229.49V229.49Z" fill="white"/>
<path d="M354 230.35C354.175 230.532 354.401 230.657 354.647 230.711C354.894 230.765 355.151 230.744 355.386 230.653C355.622 230.561 355.824 230.401 355.969 230.194C356.114 229.987 356.194 229.742 356.2 229.49C356.197 229.19 356.083 228.901 355.88 228.68C355.218 229.196 354.59 229.754 354 230.35Z" fill="#263238"/>
<path d="M362.7 229.49C362.706 229.806 362.618 230.116 362.447 230.381C362.276 230.647 362.029 230.855 361.74 230.98C361.45 231.105 361.129 231.141 360.819 231.083C360.508 231.025 360.222 230.876 359.997 230.655C359.771 230.434 359.617 230.151 359.553 229.841C359.489 229.532 359.519 229.211 359.638 228.919C359.758 228.626 359.962 228.376 360.224 228.2C360.486 228.024 360.794 227.93 361.11 227.93C361.317 227.927 361.523 227.966 361.715 228.043C361.907 228.12 362.082 228.234 362.23 228.379C362.377 228.524 362.495 228.697 362.576 228.888C362.656 229.078 362.699 229.283 362.7 229.49V229.49Z" fill="white"/>
<path d="M360.19 230.35C360.31 230.473 360.453 230.571 360.611 230.638C360.769 230.705 360.938 230.739 361.11 230.74C361.276 230.743 361.441 230.712 361.596 230.651C361.751 230.589 361.891 230.498 362.01 230.382C362.129 230.265 362.224 230.127 362.289 229.974C362.354 229.821 362.389 229.656 362.39 229.49C362.387 229.19 362.273 228.901 362.07 228.68C361.408 229.196 360.78 229.754 360.19 230.35Z" fill="#263238"/>
<path d="M281.68 239.4C281.688 239.716 281.601 240.027 281.432 240.294C281.262 240.561 281.016 240.771 280.727 240.897C280.437 241.024 280.116 241.061 279.805 241.004C279.494 240.947 279.207 240.799 278.981 240.579C278.754 240.358 278.599 240.075 278.534 239.765C278.469 239.456 278.498 239.134 278.618 238.841C278.737 238.548 278.94 238.298 279.203 238.121C279.465 237.944 279.774 237.85 280.09 237.85C280.296 237.847 280.501 237.885 280.692 237.962C280.884 238.038 281.058 238.152 281.206 238.296C281.354 238.44 281.472 238.611 281.553 238.801C281.634 238.99 281.677 239.194 281.68 239.4V239.4Z" fill="white"/>
<path d="M279.18 240.27C279.297 240.394 279.438 240.492 279.595 240.559C279.751 240.626 279.92 240.66 280.09 240.66C280.257 240.661 280.422 240.63 280.577 240.567C280.731 240.505 280.872 240.412 280.991 240.295C281.11 240.178 281.204 240.039 281.27 239.885C281.335 239.732 281.369 239.567 281.37 239.4C281.364 239.103 281.25 238.819 281.05 238.6C280.391 239.116 279.767 239.674 279.18 240.27V240.27Z" fill="#263238"/>
<path d="M287.92 239.4C287.93 239.719 287.844 240.033 287.674 240.303C287.504 240.573 287.257 240.786 286.965 240.914C286.673 241.043 286.35 241.081 286.036 241.024C285.722 240.968 285.432 240.818 285.204 240.596C284.976 240.373 284.819 240.087 284.754 239.775C284.689 239.463 284.719 239.138 284.84 238.843C284.961 238.548 285.168 238.296 285.433 238.119C285.699 237.942 286.011 237.848 286.33 237.85C286.536 237.847 286.741 237.885 286.932 237.962C287.124 238.038 287.298 238.152 287.446 238.296C287.594 238.44 287.712 238.611 287.793 238.801C287.874 238.99 287.917 239.194 287.92 239.4V239.4Z" fill="white"/>
<path d="M285.41 240.27C285.585 240.454 285.81 240.581 286.058 240.635C286.305 240.689 286.563 240.668 286.799 240.575C287.034 240.481 287.237 240.319 287.379 240.11C287.522 239.901 287.599 239.653 287.6 239.4C287.599 239.102 287.485 238.816 287.28 238.6C286.622 239.116 285.997 239.674 285.41 240.27V240.27Z" fill="#263238"/>
<path d="M294.15 239.4C294.158 239.716 294.071 240.027 293.902 240.294C293.732 240.561 293.486 240.771 293.197 240.897C292.907 241.024 292.586 241.061 292.275 241.004C291.964 240.947 291.677 240.799 291.451 240.579C291.224 240.358 291.069 240.075 291.004 239.765C290.939 239.456 290.968 239.134 291.088 238.841C291.207 238.548 291.41 238.298 291.673 238.121C291.935 237.944 292.244 237.85 292.56 237.85C292.766 237.847 292.971 237.885 293.162 237.962C293.354 238.038 293.528 238.152 293.676 238.296C293.824 238.44 293.942 238.611 294.023 238.801C294.104 238.99 294.147 239.194 294.15 239.4V239.4Z" fill="white"/>
<path d="M291.64 240.27C291.816 240.452 292.042 240.578 292.29 240.631C292.537 240.685 292.795 240.664 293.031 240.571C293.266 240.477 293.469 240.316 293.613 240.108C293.757 239.9 293.836 239.653 293.84 239.4C293.834 239.103 293.72 238.819 293.52 238.6C292.856 239.113 292.228 239.671 291.64 240.27Z" fill="#263238"/>
<path d="M300.38 239.4C300.388 239.716 300.302 240.027 300.132 240.294C299.962 240.561 299.716 240.771 299.427 240.897C299.137 241.024 298.816 241.061 298.505 241.004C298.194 240.947 297.907 240.799 297.681 240.579C297.454 240.358 297.299 240.075 297.234 239.765C297.169 239.456 297.199 239.134 297.318 238.841C297.437 238.548 297.64 238.298 297.903 238.121C298.165 237.944 298.474 237.85 298.79 237.85C298.996 237.847 299.201 237.885 299.392 237.962C299.584 238.038 299.758 238.152 299.906 238.296C300.054 238.44 300.172 238.611 300.253 238.801C300.334 238.99 300.377 239.194 300.38 239.4Z" fill="white"/>
<path d="M297.87 240.27C297.99 240.393 298.133 240.491 298.291 240.558C298.449 240.625 298.618 240.659 298.79 240.66C298.957 240.661 299.122 240.63 299.277 240.567C299.431 240.505 299.572 240.412 299.691 240.295C299.81 240.178 299.904 240.039 299.97 239.885C300.035 239.732 300.069 239.567 300.07 239.4C300.064 239.103 299.95 238.819 299.75 238.6C299.088 239.116 298.46 239.674 297.87 240.27Z" fill="#263238"/>
<path d="M306.61 239.4C306.618 239.716 306.532 240.027 306.362 240.294C306.192 240.561 305.946 240.771 305.657 240.897C305.367 241.024 305.046 241.061 304.735 241.004C304.424 240.947 304.137 240.799 303.911 240.579C303.684 240.358 303.529 240.075 303.464 239.765C303.399 239.456 303.429 239.134 303.548 238.841C303.667 238.548 303.87 238.298 304.133 238.121C304.395 237.944 304.704 237.85 305.02 237.85C305.226 237.847 305.431 237.885 305.622 237.962C305.814 238.038 305.988 238.152 306.136 238.296C306.284 238.44 306.402 238.611 306.483 238.801C306.564 238.99 306.607 239.194 306.61 239.4V239.4Z" fill="white"/>
<path d="M304.11 240.27C304.227 240.394 304.368 240.492 304.525 240.559C304.681 240.626 304.85 240.66 305.02 240.66C305.187 240.661 305.352 240.63 305.507 240.567C305.661 240.505 305.802 240.412 305.921 240.295C306.04 240.178 306.134 240.039 306.2 239.885C306.265 239.732 306.299 239.567 306.3 239.4C306.294 239.103 306.18 238.819 305.98 238.6C305.319 239.113 304.695 239.671 304.11 240.27V240.27Z" fill="#263238"/>
<path d="M312.85 239.4C312.86 239.718 312.775 240.033 312.605 240.302C312.435 240.572 312.189 240.785 311.898 240.913C311.606 241.042 311.283 241.081 310.97 241.025C310.656 240.969 310.366 240.821 310.138 240.599C309.909 240.378 309.751 240.093 309.685 239.781C309.62 239.469 309.648 239.145 309.768 238.85C309.887 238.555 310.092 238.302 310.356 238.124C310.62 237.945 310.931 237.85 311.25 237.85C311.667 237.845 312.07 238.005 312.37 238.295C312.669 238.585 312.842 238.983 312.85 239.4V239.4Z" fill="white"/>
<path d="M310.34 240.27C310.457 240.394 310.598 240.492 310.755 240.559C310.911 240.626 311.08 240.66 311.25 240.66C311.417 240.661 311.582 240.63 311.737 240.567C311.891 240.505 312.032 240.412 312.151 240.295C312.27 240.178 312.364 240.039 312.43 239.885C312.495 239.732 312.529 239.567 312.53 239.4C312.524 239.103 312.41 238.819 312.21 238.6C311.551 239.116 310.927 239.674 310.34 240.27V240.27Z" fill="#263238"/>
<path d="M319.08 239.4C319.09 239.719 319.004 240.033 318.834 240.303C318.664 240.573 318.417 240.786 318.125 240.914C317.833 241.043 317.51 241.081 317.196 241.024C316.882 240.968 316.592 240.818 316.364 240.596C316.136 240.373 315.979 240.087 315.914 239.775C315.849 239.463 315.879 239.138 316 238.843C316.121 238.548 316.328 238.296 316.593 238.119C316.859 237.942 317.171 237.848 317.49 237.85C317.696 237.847 317.901 237.885 318.092 237.962C318.284 238.038 318.458 238.152 318.606 238.296C318.754 238.44 318.872 238.611 318.953 238.801C319.034 238.99 319.077 239.194 319.08 239.4V239.4Z" fill="white"/>
<path d="M316.57 240.27C316.745 240.454 316.97 240.581 317.218 240.635C317.465 240.689 317.723 240.668 317.959 240.575C318.194 240.481 318.397 240.319 318.539 240.11C318.682 239.901 318.759 239.653 318.76 239.4C318.759 239.102 318.645 238.816 318.44 238.6C317.782 239.116 317.157 239.674 316.57 240.27Z" fill="#263238"/>
<path d="M325.31 239.4C325.318 239.716 325.231 240.027 325.062 240.294C324.892 240.561 324.646 240.771 324.357 240.897C324.067 241.024 323.746 241.061 323.435 241.004C323.124 240.947 322.837 240.799 322.611 240.579C322.384 240.358 322.229 240.075 322.164 239.765C322.099 239.456 322.128 239.134 322.248 238.841C322.367 238.548 322.57 238.298 322.833 238.121C323.095 237.944 323.404 237.85 323.72 237.85C323.926 237.847 324.131 237.885 324.322 237.962C324.514 238.038 324.688 238.152 324.836 238.296C324.984 238.44 325.102 238.611 325.183 238.801C325.264 238.99 325.307 239.194 325.31 239.4Z" fill="white"/>
<path d="M322.8 240.27C322.976 240.452 323.202 240.578 323.45 240.631C323.697 240.685 323.955 240.664 324.191 240.571C324.426 240.477 324.629 240.316 324.773 240.108C324.917 239.9 324.996 239.653 325 239.4C324.994 239.103 324.88 238.819 324.68 238.6C324.016 239.113 323.388 239.671 322.8 240.27Z" fill="#263238"/>
<path d="M331.54 239.4C331.548 239.716 331.462 240.027 331.292 240.294C331.122 240.561 330.876 240.771 330.587 240.897C330.297 241.024 329.976 241.061 329.665 241.004C329.354 240.947 329.067 240.799 328.841 240.579C328.614 240.358 328.459 240.075 328.394 239.765C328.329 239.456 328.359 239.134 328.478 238.841C328.597 238.548 328.8 238.298 329.063 238.121C329.325 237.944 329.634 237.85 329.95 237.85C330.156 237.847 330.361 237.885 330.552 237.962C330.744 238.038 330.918 238.152 331.066 238.296C331.214 238.44 331.332 238.611 331.413 238.801C331.494 238.99 331.537 239.194 331.54 239.4V239.4Z" fill="white"/>
<path d="M329 240.27C329.12 240.393 329.263 240.491 329.421 240.558C329.579 240.625 329.748 240.659 329.92 240.66C330.087 240.661 330.252 240.63 330.407 240.567C330.561 240.505 330.702 240.412 330.821 240.295C330.94 240.178 331.034 240.039 331.1 239.885C331.165 239.732 331.199 239.567 331.2 239.4C331.194 239.103 331.08 238.819 330.88 238.6C330.218 239.116 329.59 239.674 329 240.27V240.27Z" fill="#263238"/>
<path d="M337.77 239.4C337.778 239.716 337.691 240.027 337.522 240.294C337.352 240.561 337.106 240.771 336.817 240.897C336.527 241.024 336.206 241.061 335.895 241.004C335.584 240.947 335.297 240.799 335.071 240.579C334.844 240.358 334.689 240.075 334.624 239.765C334.559 239.456 334.588 239.134 334.708 238.841C334.827 238.548 335.03 238.298 335.293 238.121C335.555 237.944 335.864 237.85 336.18 237.85C336.386 237.847 336.591 237.885 336.782 237.962C336.974 238.038 337.148 238.152 337.296 238.296C337.444 238.44 337.562 238.611 337.643 238.801C337.724 238.99 337.767 239.194 337.77 239.4V239.4Z" fill="white"/>
<path d="M335.27 240.27C335.387 240.394 335.528 240.492 335.685 240.559C335.841 240.626 336.01 240.66 336.18 240.66C336.347 240.661 336.512 240.63 336.667 240.567C336.821 240.505 336.962 240.412 337.081 240.295C337.2 240.178 337.294 240.039 337.359 239.885C337.425 239.732 337.459 239.567 337.46 239.4C337.454 239.103 337.34 238.819 337.14 238.6C336.479 239.113 335.855 239.671 335.27 240.27V240.27Z" fill="#263238"/>
<path d="M344 239.4C344.01 239.718 343.925 240.033 343.755 240.302C343.585 240.572 343.339 240.785 343.048 240.913C342.756 241.042 342.433 241.081 342.12 241.025C341.806 240.969 341.516 240.821 341.288 240.599C341.059 240.378 340.901 240.093 340.835 239.781C340.769 239.469 340.798 239.145 340.918 238.85C341.037 238.555 341.242 238.302 341.506 238.124C341.77 237.945 342.081 237.85 342.4 237.85C342.817 237.845 343.22 238.005 343.52 238.295C343.819 238.585 343.992 238.983 344 239.4V239.4Z" fill="white"/>
<path d="M341.5 240.27C341.617 240.394 341.758 240.492 341.915 240.559C342.071 240.626 342.24 240.66 342.41 240.66C342.577 240.661 342.742 240.63 342.897 240.567C343.051 240.505 343.192 240.412 343.311 240.295C343.43 240.178 343.524 240.039 343.59 239.885C343.655 239.732 343.689 239.567 343.69 239.4C343.684 239.103 343.57 238.819 343.37 238.6C342.712 239.116 342.087 239.674 341.5 240.27V240.27Z" fill="#263238"/>
<path d="M350.24 239.4C350.248 239.716 350.161 240.027 349.992 240.294C349.822 240.561 349.576 240.771 349.287 240.897C348.997 241.024 348.676 241.061 348.365 241.004C348.054 240.947 347.767 240.799 347.541 240.579C347.314 240.358 347.159 240.075 347.094 239.765C347.029 239.456 347.058 239.134 347.178 238.841C347.297 238.548 347.5 238.298 347.763 238.121C348.025 237.944 348.334 237.85 348.65 237.85C348.856 237.847 349.061 237.885 349.252 237.962C349.444 238.038 349.618 238.152 349.766 238.296C349.914 238.44 350.032 238.611 350.113 238.801C350.194 238.99 350.237 239.194 350.24 239.4Z" fill="white"/>
<path d="M347.73 240.27C347.905 240.454 348.13 240.581 348.378 240.635C348.625 240.689 348.883 240.668 349.119 240.575C349.354 240.481 349.557 240.319 349.699 240.11C349.842 239.901 349.919 239.653 349.92 239.4C349.919 239.102 349.805 238.816 349.6 238.6C348.942 239.116 348.317 239.674 347.73 240.27V240.27Z" fill="#263238"/>
<path d="M356.47 239.4C356.478 239.716 356.392 240.027 356.222 240.294C356.052 240.561 355.806 240.771 355.517 240.897C355.227 241.024 354.906 241.061 354.595 241.004C354.284 240.947 353.997 240.799 353.771 240.579C353.544 240.358 353.389 240.075 353.324 239.765C353.259 239.456 353.289 239.134 353.408 238.841C353.527 238.548 353.73 238.298 353.993 238.121C354.255 237.944 354.564 237.85 354.88 237.85C355.086 237.847 355.291 237.885 355.482 237.962C355.674 238.038 355.848 238.152 355.996 238.296C356.144 238.44 356.262 238.611 356.343 238.801C356.424 238.99 356.467 239.194 356.47 239.4V239.4Z" fill="white"/>
<path d="M354 240.27C354.176 240.452 354.402 240.578 354.65 240.631C354.897 240.685 355.155 240.664 355.391 240.571C355.626 240.477 355.829 240.316 355.973 240.108C356.117 239.9 356.196 239.653 356.2 239.4C356.194 239.103 356.08 238.819 355.88 238.6C355.218 239.116 354.59 239.674 354 240.27V240.27Z" fill="#263238"/>
<path d="M362.7 239.4C362.708 239.716 362.622 240.027 362.452 240.294C362.282 240.561 362.036 240.771 361.747 240.897C361.457 241.024 361.136 241.061 360.825 241.004C360.514 240.947 360.227 240.799 360.001 240.579C359.774 240.358 359.619 240.075 359.554 239.765C359.489 239.456 359.519 239.134 359.638 238.841C359.757 238.548 359.96 238.298 360.223 238.121C360.485 237.944 360.794 237.85 361.11 237.85C361.316 237.847 361.521 237.885 361.712 237.962C361.904 238.038 362.078 238.152 362.226 238.296C362.374 238.44 362.492 238.611 362.573 238.801C362.654 238.99 362.697 239.194 362.7 239.4V239.4Z" fill="white"/>
<path d="M360.19 240.27C360.31 240.393 360.453 240.491 360.611 240.558C360.769 240.625 360.938 240.659 361.11 240.66C361.277 240.661 361.442 240.63 361.597 240.567C361.751 240.505 361.892 240.412 362.011 240.295C362.13 240.178 362.224 240.039 362.29 239.885C362.355 239.732 362.389 239.567 362.39 239.4C362.384 239.103 362.27 238.819 362.07 238.6C361.408 239.116 360.78 239.674 360.19 240.27Z" fill="#263238"/>
<path d="M270.41 221.8H222.2C221.153 221.8 220.147 221.39 219.4 220.657C218.652 219.924 218.221 218.927 218.2 217.88V195.64C218.2 180.47 230.81 168.12 246.31 168.12C261.81 168.12 274.43 180.47 274.43 195.64V217.88C274.409 218.93 273.976 219.93 273.223 220.664C272.471 221.397 271.461 221.805 270.41 221.8ZM226.2 214H266.4V195.64C266.4 190.309 264.282 185.197 260.513 181.427C256.743 177.658 251.631 175.54 246.3 175.54C240.969 175.54 235.857 177.658 232.087 181.427C228.318 185.197 226.2 190.309 226.2 195.64V214Z" fill="white" stroke="#263238" stroke-linecap="round" stroke-linejoin="round"/>
<path d="M276.59 211.08H215.21V261.86H276.59V211.08Z" fill="#FF725E" stroke="#263238" stroke-linecap="round" stroke-linejoin="round"/>
<path d="M252.29 232.17C252.223 230.442 251.49 228.807 250.243 227.607C248.997 226.408 247.335 225.739 245.605 225.739C243.875 225.739 242.213 226.408 240.967 227.607C239.72 228.807 238.987 230.442 238.92 232.17C238.925 233.359 239.255 234.523 239.874 235.538C240.492 236.553 241.376 237.38 242.43 237.93L241.31 249.46H249.9L248.78 237.93C249.834 237.38 250.718 236.553 251.336 235.538C251.955 234.523 252.285 233.359 252.29 232.17V232.17Z" fill="#263238" stroke="#263238" stroke-linecap="round" stroke-linejoin="round"/>
<path d="M384.5 437C410.734 437 432 432.299 432 426.5C432 420.701 410.734 416 384.5 416C358.266 416 337 420.701 337 426.5C337 432.299 358.266 437 384.5 437Z" fill="#FF725E"/>
<path opacity="0.5" d="M384.5 437C410.734 437 432 432.299 432 426.5C432 420.701 410.734 416 384.5 416C358.266 416 337 420.701 337 426.5C337 432.299 358.266 437 384.5 437Z" fill="white"/>
<path d="M359.66 415.76C359.66 415.76 348.14 422.24 348.14 425.36C348.14 428.48 355.25 426.56 359.9 424.36C364.55 422.16 368.24 420.52 368.24 416.2C368.24 411.88 359.66 415.76 359.66 415.76Z" fill="#FF725E" stroke="#263238" stroke-miterlimit="10"/>
<path d="M414.81 415.76C414.81 415.76 426.33 422.24 426.33 425.36C426.33 428.48 419.22 426.56 414.57 424.36C409.92 422.16 406.23 420.52 406.23 416.2C406.23 411.88 414.81 415.76 414.81 415.76Z" fill="#FF725E" stroke="#263238" stroke-miterlimit="10"/>
<path d="M364.32 309.69L359.41 417C360.089 417.559 360.874 417.974 361.718 418.222C362.562 418.469 363.447 418.543 364.32 418.44C365.844 418.214 367.235 417.448 368.24 416.28L384.91 328.69H388.34L406 417.92C407.055 418.504 408.227 418.845 409.43 418.92C411.14 418.92 413.84 416.76 413.84 416.76L408.2 309.76L364.32 309.69Z" fill="#263238" stroke="#263238" stroke-miterlimit="10"/>
<path d="M381.48 244.66L359.17 253.77L365.05 305.61H407.7L415.55 251.85L391.28 244.18L381.48 244.66Z" fill="#FF725E" stroke="#263238" stroke-miterlimit="10"/>
<path d="M383.93 252.09L386.62 256.41L382.21 293.61L387.6 301.53L392.26 292.89L388.58 255.93L391.77 250.9L387.11 248.86L383.93 252.09Z" fill="#263238" stroke="#263238" stroke-miterlimit="10"/>
<path d="M387.11 248.86L383.53 254.99L377.15 246.49L380.72 242.24L387.11 248.86Z" fill="#FF725E" stroke="#263238" stroke-miterlimit="10"/>
<path d="M387.11 248.86L391.45 255.61L396.68 245.99L393.62 242.11L387.11 248.86Z" fill="#FF725E" stroke="#263238" stroke-miterlimit="10"/>
<path d="M378.45 263.37H363.42V268.49L370.94 271.37L378.45 268.17V263.37Z" fill="#FF725E" stroke="#263238" stroke-miterlimit="10"/>
<path d="M408.52 263.37H393.49V268.49L401 271.37L408.52 268.17V263.37Z" fill="#FF725E" stroke="#263238" stroke-miterlimit="10"/>
<path d="M408.2 304.65H364.32V309.69H408.2V304.65Z" fill="#263238" stroke="#263238" stroke-miterlimit="10"/>
<path d="M363.58 308.73L355.98 311.85C355.855 314.022 356.02 316.201 356.47 318.33C357.21 321.21 358.19 327.45 358.92 328.65C359.65 329.85 363.34 332.25 363.83 331.53C364.32 330.81 366.77 309.69 366.77 309.69L363.58 308.73Z" fill="#263238" stroke="#263238" stroke-miterlimit="10"/>
<path d="M380.72 233.49V242.24L387.11 248.86L393.62 242.11V233.36L380.72 233.49Z" fill="white" stroke="#263238" stroke-miterlimit="10"/>
<path d="M376.26 225.37C376.26 225.37 375.11 222.74 374.34 224.37C373.57 226 374.47 228.49 375.62 229.49C376.466 230.103 377.513 230.372 378.55 230.24L377.91 226.49L376.26 225.37Z" fill="white" stroke="#263238" stroke-miterlimit="10"/>
<path d="M397.06 225.37C397.06 225.37 398.21 222.74 398.98 224.37C399.75 226 398.85 228.49 397.7 229.49C396.851 230.104 395.8 230.372 394.76 230.24L395.4 226.49L397.06 225.37Z" fill="white" stroke="#263238" stroke-miterlimit="10"/>
<path d="M378.43 208C378.43 208 373.06 210.25 373.06 214C373.06 217.75 373.83 222 375.11 223.63C376.39 225.26 377.4 226.38 377.4 226.38L377.66 221L381.36 214.63C381.36 214.63 387.49 218.5 390.55 218.5C392.261 218.515 393.969 218.391 395.66 218.13L396.81 224.5L398.47 219.88V215.63C398.47 215.63 401.53 212.75 400.89 210.88C400.25 209.01 389.89 203.13 383.53 204.63C377.17 206.13 378.43 208 378.43 208Z" fill="#263238" stroke="#263238" stroke-miterlimit="10"/>
<path d="M375.87 220.62C375.87 220.62 377.4 229.99 378.68 232.49C380.363 235.264 382.426 237.789 384.81 239.99C385.7 240.61 389.02 240.11 390.3 240.11C391.58 240.11 395.3 232.61 395.91 231.24C396.52 229.87 396.91 218.12 396.91 218.12L395.79 216C395.79 216 390.3 217.38 385.96 215.63C383.604 214.786 381.497 213.366 379.83 211.5C379.83 211.5 379.45 215.75 377.91 218.25C376.37 220.75 375.87 220.62 375.87 220.62Z" fill="white" stroke="#263238" stroke-miterlimit="10"/>
<path d="M385.7 221.62C384.156 220.813 382.442 220.385 380.7 220.37C379.205 220.311 377.717 220.609 376.36 221.24C376.36 221.24 376.36 225.49 377.77 227.12C379.18 228.75 383.26 228.24 384.41 226.87C385.56 225.5 385.7 221.62 385.7 221.62Z" fill="#263238" stroke="#263238" stroke-miterlimit="10"/>
<path d="M387.49 221.62C389.034 220.813 390.748 220.385 392.49 220.37C393.985 220.311 395.473 220.609 396.83 221.24C396.83 221.24 396.83 225.49 395.42 227.12C394.01 228.75 389.93 228.24 388.79 226.87C387.65 225.5 387.49 221.62 387.49 221.62Z" fill="#263238" stroke="#263238" stroke-miterlimit="10"/>
<path d="M385.7 221.62H387.49" stroke="#263238" stroke-miterlimit="10"/>
<path d="M359.41 300.81L367.5 300.57L373.63 306.09C373.62 306.796 373.362 307.476 372.9 308.01C372.16 308.73 370.2 308.25 370.2 308.25C370.2 308.25 368.73 311.85 366.03 311.85C363.33 311.85 356.03 306.85 356.03 306.85L359.41 300.81Z" fill="white" stroke="#263238" stroke-miterlimit="10"/>
<path d="M359.17 253.77L331.96 289.53L355.98 306.81L359.41 300.81L352.06 286.65L362.11 277.53L359.17 253.77Z" fill="#FF725E" stroke="#263238" stroke-miterlimit="10"/>
<path d="M357.45 296.73L353.29 304.17" stroke="#263238" stroke-linecap="round" stroke-linejoin="round"/>
<path d="M352.06 286.65L348.87 278.49" stroke="#263238" stroke-linecap="round" stroke-linejoin="round"/>
<path d="M415.55 300.81L407.46 300.57L401.33 306.09C401.343 306.797 401.605 307.477 402.07 308.01C402.8 308.73 404.76 308.25 404.76 308.25C404.76 308.25 406.23 311.85 408.93 311.85C411.63 311.85 418.98 306.85 418.98 306.85L415.55 300.81Z" fill="white" stroke="#263238" stroke-miterlimit="10"/>
<path d="M415.55 251.85L443 289.53L418.98 306.81L415.55 300.81L422.9 286.65L411.38 277.29L415.55 251.85Z" fill="#FF725E" stroke="#263238" stroke-miterlimit="10"/>
<path d="M417.51 296.73L421.67 304.17" stroke="#263238" stroke-linecap="round" stroke-linejoin="round"/>
<path d="M422.9 286.65L426.09 278.49" stroke="#263238" stroke-linecap="round" stroke-linejoin="round"/>
<path d="M106.5 437C132.734 437 154 432.299 154 426.5C154 420.701 132.734 416 106.5 416C80.2665 416 59 420.701 59 426.5C59 432.299 80.2665 437 106.5 437Z" fill="#FF725E"/>
<path opacity="0.5" d="M106.5 437C132.734 437 154 432.299 154 426.5C154 420.701 132.734 416 106.5 416C80.2665 416 59 420.701 59 426.5C59 432.299 80.2665 437 106.5 437Z" fill="white"/>
<path d="M81.82 415.76C81.82 415.76 70.3 422.24 70.3 425.36C70.3 428.48 77.41 426.56 82.07 424.36C86.73 422.16 90.4 420.52 90.4 416.2C90.4 411.88 81.82 415.76 81.82 415.76Z" fill="#FF725E" stroke="#263238" stroke-miterlimit="10"/>
<path d="M137 415.76C137 415.76 148.52 422.24 148.52 425.36C148.52 428.48 141.42 426.56 136.76 424.36C132.1 422.16 128.42 420.52 128.42 416.2C128.42 411.88 137 415.76 137 415.76Z" fill="#FF725E" stroke="#263238" stroke-miterlimit="10"/>
<path d="M86.48 309.69L81.58 417C82.2569 417.559 83.0402 417.975 83.8824 418.222C84.7246 418.47 85.6083 418.544 86.48 418.44C88.0037 418.214 89.3953 417.448 90.4 416.28L107.07 328.69H110.5L128.15 417.96C129.205 418.544 130.377 418.885 131.58 418.96C133.3 418.96 135.99 416.8 135.99 416.8L130.35 309.8L86.48 309.69Z" fill="#263238" stroke="#263238" stroke-miterlimit="10"/>
<path d="M103.64 244.66L81.33 253.77L87.21 305.61H129.87L137.71 251.85L113.44 244.18L103.64 244.66Z" fill="#FF725E" stroke="#263238" stroke-miterlimit="10"/>
<path d="M130.36 304.65H86.48V309.69H130.36V304.65Z" fill="#263238" stroke="#263238" stroke-miterlimit="10"/>
<path d="M85.74 308.73L78.14 311.85C78.0154 314.022 78.1801 316.201 78.63 318.33C79.37 321.21 80.35 327.45 81.09 328.65C81.83 329.85 85.5 332.25 85.99 331.53C86.48 330.81 88.93 309.69 88.93 309.69L85.74 308.73Z" fill="#263238" stroke="#263238" stroke-miterlimit="10"/>
<path d="M102.89 233.49V242.24L109.27 248.86L115.78 242.11V233.36L102.89 233.49Z" fill="white" stroke="#263238" stroke-miterlimit="10"/>
<path d="M98.42 225.37C98.42 225.37 97.27 222.74 96.5 224.37C95.73 226 96.63 228.49 97.78 229.49C98.6293 230.104 99.6803 230.372 100.72 230.24L100.08 226.49L98.42 225.37Z" fill="white" stroke="#263238" stroke-miterlimit="10"/>
<path d="M119.22 225.37C119.22 225.37 120.37 222.74 121.14 224.37C121.91 226 121.01 228.49 119.86 229.49C119.014 230.103 117.966 230.372 116.93 230.24L117.56 226.49L119.22 225.37Z" fill="white" stroke="#263238" stroke-miterlimit="10"/>
<path d="M100.59 208C100.59 208 95.23 210.25 95.23 214C95.23 217.75 95.99 222 97.23 223.63C98.47 225.26 99.53 226.38 99.53 226.38L99.78 221L103.48 214.63C103.48 214.63 109.61 218.5 112.67 218.5C114.381 218.515 116.089 218.391 117.78 218.13L118.93 224.5L120.59 219.88V215.63C120.59 215.63 123.65 212.75 123.01 210.88C122.37 209.01 112.01 203.13 105.65 204.63C99.29 206.13 100.59 208 100.59 208Z" fill="#263238" stroke="#263238" stroke-miterlimit="10"/>
<path d="M98 220.62C98 220.62 99.54 229.99 100.81 232.49C102.514 235.269 104.597 237.797 107 240C107.89 240.62 111.21 240.12 112.49 240.12C113.77 240.12 117.49 232.62 118.11 231.25C118.73 229.88 119.11 218.13 119.11 218.13L118 216C118 216 112.51 217.38 108.17 215.63C105.814 214.786 103.707 213.366 102.04 211.5C102.04 211.5 101.66 215.75 100.13 218.25C98.6 220.75 98 220.62 98 220.62Z" fill="white" stroke="#263238" stroke-miterlimit="10"/>
<path d="M107.86 221.62C106.316 220.813 104.602 220.385 102.86 220.37C101.365 220.311 99.8769 220.609 98.52 221.24C98.52 221.24 98.52 225.49 99.92 227.12C101.32 228.75 105.41 228.24 106.56 226.87C107.71 225.5 107.86 221.62 107.86 221.62Z" fill="#263238" stroke="#263238" stroke-miterlimit="10"/>
<path d="M109.65 221.62C111.194 220.813 112.908 220.385 114.65 220.37C116.145 220.311 117.633 220.609 118.99 221.24C118.99 221.24 118.99 225.49 117.58 227.12C116.17 228.75 112.1 228.24 110.95 226.87C109.8 225.5 109.65 221.62 109.65 221.62Z" fill="#263238" stroke="#263238" stroke-miterlimit="10"/>
<path d="M107.86 221.62H109.65" stroke="#263238" stroke-miterlimit="10"/>
<path d="M106.09 252.09L108.78 256.41L104.37 293.61L109.77 301.53L114.42 292.89L110.75 255.93L113.93 250.9L109.27 248.86L106.09 252.09Z" fill="#263238" stroke="#263238" stroke-miterlimit="10"/>
<path d="M109.27 248.86L105.69 254.99L99.31 246.49L102.89 242.24L109.27 248.86Z" fill="#FF725E" stroke="#263238" stroke-miterlimit="10"/>
<path d="M109.27 248.86L113.61 255.61L118.84 245.99L115.78 242.11L109.27 248.86Z" fill="#FF725E" stroke="#263238" stroke-miterlimit="10"/>
<path d="M81.33 253.77L54.12 289.53L78.14 306.81L81.58 300.81L74.22 286.65L84.27 277.53L81.33 253.77Z" fill="#FF725E" stroke="#263238" stroke-miterlimit="10"/>
<path d="M81.58 300.81L89.66 300.57L95.79 306.09C95.7802 306.796 95.5217 307.476 95.06 308.01C94.32 308.73 92.36 308.25 92.36 308.25C92.36 308.25 90.89 311.85 88.19 311.85C85.49 311.85 78.19 306.85 78.19 306.85L81.58 300.81Z" fill="white" stroke="#263238" stroke-miterlimit="10"/>
<path d="M79.62 296.73L75.45 304.17" stroke="#263238" stroke-linecap="round" stroke-linejoin="round"/>
<path d="M74.22 286.65L71.04 278.49" stroke="#263238" stroke-linecap="round" stroke-linejoin="round"/>
<path d="M137.71 251.85L165.16 289.53L141.14 306.81L137.71 300.81L145.06 286.65L133.54 277.29L137.71 251.85Z" fill="#FF725E" stroke="#263238" stroke-miterlimit="10"/>
<path d="M137.71 300.81L129.62 300.57L123.49 306.09C123.503 306.797 123.765 307.477 124.23 308.01C124.96 308.73 126.92 308.25 126.92 308.25C126.92 308.25 128.39 311.85 131.09 311.85C133.79 311.85 141.09 306.85 141.09 306.85L137.71 300.81Z" fill="white" stroke="#263238" stroke-miterlimit="10"/>
<path d="M139.67 296.73L143.84 304.17" stroke="#263238" stroke-linecap="round" stroke-linejoin="round"/>
<path d="M145.06 286.65L148.25 278.49" stroke="#263238" stroke-linecap="round" stroke-linejoin="round"/>
<path d="M100.61 263.37H85.58V268.49L93.1 271.37L100.61 268.17V263.37Z" fill="#FF725E" stroke="#263238" stroke-miterlimit="10"/>
<path d="M130.68 263.37H115.65V268.49L123.17 271.37L130.68 268.17V263.37Z" fill="#FF725E" stroke="#263238" stroke-miterlimit="10"/>
</svg>
