<svg viewBox="0 0 500 500" fill="none" xmlns="http://www.w3.org/2000/svg">
<path d="M158.08 148.41H189.69V145.85C179.59 146.85 169.69 146.67 157.82 147.68C157.944 147.909 158.031 148.155 158.08 148.41Z" fill="#FF725E"/>
<path d="M421 213C416.16 185.82 402.84 164.46 385.72 144.72C383.76 142.46 381.823 140.313 379.91 138.28H329C328.834 138.722 328.552 139.112 328.184 139.409C327.817 139.706 327.376 139.899 326.909 139.968C326.441 140.038 325.964 139.981 325.526 139.804C325.088 139.627 324.705 139.336 324.417 138.961C324.13 138.586 323.947 138.141 323.89 137.672C323.832 137.203 323.9 136.727 324.088 136.293C324.276 135.86 324.577 135.484 324.958 135.206C325.34 134.928 325.79 134.756 326.26 134.71V123H296.74V138.3H261.9V166H260.9V137.3H295.74V122H350.89C351.014 121.35 351.377 120.769 351.906 120.372C352.436 119.975 353.095 119.789 353.754 119.852C354.413 119.914 355.025 120.22 355.47 120.71C355.916 121.2 356.163 121.838 356.163 122.5C356.163 123.162 355.916 123.8 355.47 124.29C355.025 124.78 354.413 125.086 353.754 125.148C353.095 125.211 352.436 125.025 351.906 124.628C351.377 124.231 351.014 123.65 350.89 123H327.28V134.79C327.82 134.948 328.295 135.274 328.638 135.719C328.982 136.165 329.175 136.708 329.19 137.27H378.92C341.29 97.75 310.76 98.08 286.71 104.09C263.22 109.97 252.09 123.3 226.52 135.34V140.34H248.15V141.34H225.52V135.83C223.67 136.68 221.76 137.52 219.76 138.36C210.497 142.271 200.697 144.759 190.69 145.74V149.4H158.08C157.953 150.047 157.589 150.624 157.061 151.019C156.532 151.413 155.875 151.597 155.219 151.535C154.562 151.473 153.952 151.169 153.507 150.682C153.062 150.195 152.813 149.56 152.81 148.9C152.812 148.641 152.856 148.385 152.94 148.14C146.786 148.829 140.672 149.83 134.62 151.14C97.51 159.14 76.41 209.28 76.41 237.95C76.41 266.62 78.64 308.06 110.61 329.54C142.58 351.02 218.31 310.39 248.14 312C277.97 313.61 312.14 347 355.14 347C415.26 347 430.92 268.89 421 213ZM381.28 244.15H397.28V217.51C396.63 217.386 396.049 217.023 395.652 216.494C395.255 215.964 395.069 215.305 395.132 214.646C395.194 213.987 395.5 213.375 395.99 212.93C396.48 212.484 397.118 212.237 397.78 212.237C398.442 212.237 399.08 212.484 399.57 212.93C400.06 213.375 400.366 213.987 400.428 214.646C400.491 215.305 400.305 215.964 399.908 216.494C399.511 217.023 398.93 217.386 398.28 217.51V245.17H382.28V263H381.28V244.15ZM323.53 188.73H357C357.124 188.08 357.487 187.499 358.016 187.102C358.546 186.705 359.205 186.519 359.864 186.582C360.523 186.644 361.135 186.95 361.58 187.44C362.026 187.93 362.273 188.568 362.273 189.23C362.273 189.892 362.026 190.53 361.58 191.02C361.135 191.51 360.523 191.816 359.864 191.878C359.205 191.941 358.546 191.755 358.016 191.358C357.487 190.961 357.124 190.38 357 189.73H323.5L323.53 188.73ZM144.38 186.57C145.041 186.575 145.676 186.827 146.161 187.277C146.646 187.727 146.945 188.341 147 189H196.47V190H146.89C146.758 190.478 146.494 190.91 146.129 191.246C145.765 191.582 145.313 191.81 144.826 191.903C144.338 191.996 143.835 191.951 143.372 191.773C142.909 191.595 142.505 191.291 142.205 190.895C141.906 190.499 141.723 190.028 141.678 189.534C141.632 189.04 141.726 188.543 141.948 188.099C142.17 187.656 142.512 187.283 142.934 187.023C143.357 186.764 143.844 186.627 144.34 186.63L144.38 186.57ZM194.55 299.92H177.66V306.92C178.135 307.01 178.577 307.228 178.937 307.551C179.297 307.873 179.563 308.288 179.705 308.75C179.848 309.212 179.861 309.705 179.745 310.174C179.628 310.643 179.386 311.072 179.044 311.414C178.702 311.756 178.273 311.998 177.804 312.115C177.335 312.231 176.842 312.218 176.38 312.075C175.918 311.933 175.503 311.667 175.181 311.307C174.858 310.947 174.64 310.505 174.55 310.03H142.31V293.26H128.56C128.427 293.724 128.171 294.143 127.819 294.472C127.467 294.801 127.032 295.029 126.56 295.13V320.74H110.56C110.327 321.359 109.872 321.869 109.283 322.17C108.694 322.472 108.014 322.543 107.376 322.37C106.737 322.197 106.186 321.793 105.83 321.236C105.474 320.679 105.338 320.009 105.448 319.357C105.559 318.705 105.909 318.117 106.429 317.709C106.95 317.301 107.604 317.101 108.263 317.149C108.923 317.197 109.541 317.489 109.997 317.968C110.453 318.447 110.714 319.079 110.73 319.74H125.54V295.13C125.068 295.029 124.633 294.801 124.281 294.472C123.929 294.143 123.673 293.724 123.54 293.26H102.9C102.717 293.899 102.303 294.446 101.737 294.796C101.172 295.145 100.497 295.271 99.8438 295.15C99.1906 295.028 98.6062 294.667 98.205 294.137C97.8037 293.608 97.6144 292.947 97.6739 292.286C97.7335 291.624 98.0377 291.008 98.5271 290.559C99.0164 290.109 99.6558 289.858 100.32 289.855C100.985 289.852 101.627 290.096 102.12 290.541C102.614 290.986 102.924 291.599 102.99 292.26H123.38C123.449 291.61 123.757 291.008 124.244 290.571C124.73 290.133 125.361 289.892 126.015 289.892C126.669 289.892 127.3 290.133 127.786 290.571C128.273 291.008 128.58 291.61 128.65 292.26H143.31V309.05H174.55C174.65 308.528 174.905 308.047 175.281 307.671C175.657 307.295 176.138 307.04 176.66 306.94V298.94H194.51L194.55 299.92ZM130.49 264.23C130.371 264.835 130.046 265.38 129.57 265.771C129.094 266.163 128.496 266.377 127.88 266.377C127.264 266.377 126.666 266.163 126.19 265.771C125.714 265.38 125.389 264.835 125.27 264.23H116.45C116.326 264.88 115.963 265.461 115.434 265.858C114.904 266.255 114.245 266.441 113.586 266.378C112.927 266.316 112.315 266.01 111.87 265.52C111.424 265.03 111.177 264.392 111.177 263.73C111.177 263.068 111.424 262.43 111.87 261.94C112.315 261.45 112.927 261.144 113.586 261.082C114.245 261.019 114.904 261.205 115.434 261.602C115.963 261.999 116.326 262.58 116.45 263.23H125.27C125.385 262.628 125.705 262.084 126.175 261.69C126.645 261.297 127.237 261.078 127.85 261.07V253.54H104.85C104.81 254.203 104.524 254.827 104.048 255.291C103.572 255.754 102.94 256.024 102.276 256.046C101.613 256.069 100.964 255.844 100.457 255.414C99.951 254.984 99.6228 254.381 99.5372 253.722C99.4516 253.063 99.6146 252.396 99.9944 251.851C100.374 251.306 100.943 250.923 101.591 250.775C102.239 250.627 102.918 250.726 103.497 251.053C104.075 251.379 104.512 251.909 104.72 252.54H128.86V261.26C129.279 261.43 129.649 261.701 129.935 262.051C130.222 262.4 130.416 262.816 130.5 263.26H401.27C401.394 262.61 401.757 262.029 402.286 261.632C402.816 261.235 403.475 261.049 404.134 261.112C404.793 261.174 405.405 261.48 405.85 261.97C406.296 262.46 406.543 263.098 406.543 263.76C406.543 264.422 406.296 265.06 405.85 265.55C405.405 266.04 404.793 266.346 404.134 266.408C403.475 266.471 402.816 266.285 402.286 265.888C401.757 265.491 401.394 264.91 401.27 264.26L130.49 264.23ZM402 311.34C402.092 310.687 402.424 310.092 402.931 309.671C403.439 309.25 404.085 309.033 404.743 309.063C405.402 309.092 406.026 309.367 406.493 309.832C406.961 310.297 407.238 310.919 407.271 311.578C407.304 312.236 407.09 312.883 406.671 313.393C406.253 313.902 405.659 314.237 405.007 314.332C404.355 314.427 403.69 314.276 403.143 313.908C402.597 313.539 402.207 312.98 402.05 312.34H363.68V302.18C363.202 302.052 362.77 301.792 362.434 301.43C362.098 301.067 361.871 300.616 361.78 300.13H319.15V299.13H361.78C361.899 298.525 362.224 297.98 362.7 297.589C363.176 297.197 363.774 296.983 364.39 296.983C365.006 296.983 365.604 297.197 366.08 297.589C366.556 297.98 366.881 298.525 367 299.13H402C402.124 298.48 402.487 297.899 403.016 297.502C403.546 297.105 404.205 296.919 404.864 296.982C405.523 297.044 406.135 297.35 406.58 297.84C407.026 298.33 407.273 298.968 407.273 299.63C407.273 300.292 407.026 300.93 406.58 301.42C406.135 301.91 405.523 302.216 404.864 302.278C404.205 302.341 403.546 302.155 403.016 301.758C402.487 301.361 402.124 300.78 402 300.13H367C366.891 300.686 366.606 301.192 366.189 301.575C365.772 301.958 365.243 302.198 364.68 302.26V311.34H402Z" fill="#FF725E"/>
<g opacity="0.7">
<path d="M158.08 148.41H189.69V145.85C179.59 146.85 169.69 146.67 157.82 147.68C157.944 147.909 158.031 148.155 158.08 148.41Z" fill="white"/>
<path d="M421 213C416.16 185.82 402.84 164.46 385.72 144.72C383.76 142.46 381.823 140.313 379.91 138.28H329C328.834 138.722 328.552 139.112 328.184 139.409C327.817 139.706 327.376 139.899 326.909 139.968C326.441 140.038 325.964 139.981 325.526 139.804C325.088 139.627 324.705 139.336 324.417 138.961C324.13 138.586 323.947 138.141 323.89 137.672C323.832 137.203 323.9 136.727 324.088 136.293C324.276 135.86 324.577 135.484 324.958 135.206C325.34 134.928 325.79 134.756 326.26 134.71V123H296.74V138.3H261.9V166H260.9V137.3H295.74V122H350.89C351.014 121.35 351.377 120.769 351.906 120.372C352.436 119.975 353.095 119.789 353.754 119.852C354.413 119.914 355.025 120.22 355.47 120.71C355.916 121.2 356.163 121.838 356.163 122.5C356.163 123.162 355.916 123.8 355.47 124.29C355.025 124.78 354.413 125.086 353.754 125.148C353.095 125.211 352.436 125.025 351.906 124.628C351.377 124.231 351.014 123.65 350.89 123H327.28V134.79C327.82 134.948 328.295 135.274 328.638 135.719C328.982 136.165 329.175 136.708 329.19 137.27H378.92C341.29 97.75 310.76 98.08 286.71 104.09C263.22 109.97 252.09 123.3 226.52 135.34V140.34H248.15V141.34H225.52V135.83C223.67 136.68 221.76 137.52 219.76 138.36C210.497 142.271 200.697 144.759 190.69 145.74V149.4H158.08C157.953 150.047 157.589 150.624 157.061 151.019C156.532 151.413 155.875 151.597 155.219 151.535C154.562 151.473 153.952 151.169 153.507 150.682C153.062 150.195 152.813 149.56 152.81 148.9C152.812 148.641 152.856 148.385 152.94 148.14C146.786 148.829 140.672 149.83 134.62 151.14C97.51 159.14 76.41 209.28 76.41 237.95C76.41 266.62 78.64 308.06 110.61 329.54C142.58 351.02 218.31 310.39 248.14 312C277.97 313.61 312.14 347 355.14 347C415.26 347 430.92 268.89 421 213ZM381.28 244.15H397.28V217.51C396.63 217.386 396.049 217.023 395.652 216.494C395.255 215.964 395.069 215.305 395.132 214.646C395.194 213.987 395.5 213.375 395.99 212.93C396.48 212.484 397.118 212.237 397.78 212.237C398.442 212.237 399.08 212.484 399.57 212.93C400.06 213.375 400.366 213.987 400.428 214.646C400.491 215.305 400.305 215.964 399.908 216.494C399.511 217.023 398.93 217.386 398.28 217.51V245.17H382.28V263H381.28V244.15ZM323.53 188.73H357C357.124 188.08 357.487 187.499 358.016 187.102C358.546 186.705 359.205 186.519 359.864 186.582C360.523 186.644 361.135 186.95 361.58 187.44C362.026 187.93 362.273 188.568 362.273 189.23C362.273 189.892 362.026 190.53 361.58 191.02C361.135 191.51 360.523 191.816 359.864 191.878C359.205 191.941 358.546 191.755 358.016 191.358C357.487 190.961 357.124 190.38 357 189.73H323.5L323.53 188.73ZM144.38 186.57C145.041 186.575 145.676 186.827 146.161 187.277C146.646 187.727 146.945 188.341 147 189H196.47V190H146.89C146.758 190.478 146.494 190.91 146.129 191.246C145.765 191.582 145.313 191.81 144.826 191.903C144.338 191.996 143.835 191.951 143.372 191.773C142.909 191.595 142.505 191.291 142.205 190.895C141.906 190.499 141.723 190.028 141.678 189.534C141.632 189.04 141.726 188.543 141.948 188.099C142.17 187.656 142.512 187.283 142.934 187.023C143.357 186.764 143.844 186.627 144.34 186.63L144.38 186.57ZM194.55 299.92H177.66V306.92C178.135 307.01 178.577 307.228 178.937 307.551C179.297 307.873 179.563 308.288 179.705 308.75C179.848 309.212 179.861 309.705 179.745 310.174C179.628 310.643 179.386 311.072 179.044 311.414C178.702 311.756 178.273 311.998 177.804 312.115C177.335 312.231 176.842 312.218 176.38 312.075C175.918 311.933 175.503 311.667 175.181 311.307C174.858 310.947 174.64 310.505 174.55 310.03H142.31V293.26H128.56C128.427 293.724 128.171 294.143 127.819 294.472C127.467 294.801 127.032 295.029 126.56 295.13V320.74H110.56C110.327 321.359 109.872 321.869 109.283 322.17C108.694 322.472 108.014 322.543 107.376 322.37C106.737 322.197 106.186 321.793 105.83 321.236C105.474 320.679 105.338 320.009 105.448 319.357C105.559 318.705 105.909 318.117 106.429 317.709C106.95 317.301 107.604 317.101 108.263 317.149C108.923 317.197 109.541 317.489 109.997 317.968C110.453 318.447 110.714 319.079 110.73 319.74H125.54V295.13C125.068 295.029 124.633 294.801 124.281 294.472C123.929 294.143 123.673 293.724 123.54 293.26H102.9C102.717 293.899 102.303 294.446 101.737 294.796C101.172 295.145 100.497 295.271 99.8438 295.15C99.1906 295.028 98.6062 294.667 98.205 294.137C97.8037 293.608 97.6144 292.947 97.6739 292.286C97.7335 291.624 98.0377 291.008 98.5271 290.559C99.0164 290.109 99.6558 289.858 100.32 289.855C100.985 289.852 101.627 290.096 102.12 290.541C102.614 290.986 102.924 291.599 102.99 292.26H123.38C123.449 291.61 123.757 291.008 124.244 290.571C124.73 290.133 125.361 289.892 126.015 289.892C126.669 289.892 127.3 290.133 127.786 290.571C128.273 291.008 128.58 291.61 128.65 292.26H143.31V309.05H174.55C174.65 308.528 174.905 308.047 175.281 307.671C175.657 307.295 176.138 307.04 176.66 306.94V298.94H194.51L194.55 299.92ZM130.49 264.23C130.371 264.835 130.046 265.38 129.57 265.771C129.094 266.163 128.496 266.377 127.88 266.377C127.264 266.377 126.666 266.163 126.19 265.771C125.714 265.38 125.389 264.835 125.27 264.23H116.45C116.326 264.88 115.963 265.461 115.434 265.858C114.904 266.255 114.245 266.441 113.586 266.378C112.927 266.316 112.315 266.01 111.87 265.52C111.424 265.03 111.177 264.392 111.177 263.73C111.177 263.068 111.424 262.43 111.87 261.94C112.315 261.45 112.927 261.144 113.586 261.082C114.245 261.019 114.904 261.205 115.434 261.602C115.963 261.999 116.326 262.58 116.45 263.23H125.27C125.385 262.628 125.705 262.084 126.175 261.69C126.645 261.297 127.237 261.078 127.85 261.07V253.54H104.85C104.81 254.203 104.524 254.827 104.048 255.291C103.572 255.754 102.94 256.024 102.276 256.046C101.613 256.069 100.964 255.844 100.457 255.414C99.951 254.984 99.6228 254.381 99.5372 253.722C99.4516 253.063 99.6146 252.396 99.9944 251.851C100.374 251.306 100.943 250.923 101.591 250.775C102.239 250.627 102.918 250.726 103.497 251.053C104.075 251.379 104.512 251.909 104.72 252.54H128.86V261.26C129.279 261.43 129.649 261.701 129.935 262.051C130.222 262.4 130.416 262.816 130.5 263.26H401.27C401.394 262.61 401.757 262.029 402.286 261.632C402.816 261.235 403.475 261.049 404.134 261.112C404.793 261.174 405.405 261.48 405.85 261.97C406.296 262.46 406.543 263.098 406.543 263.76C406.543 264.422 406.296 265.06 405.85 265.55C405.405 266.04 404.793 266.346 404.134 266.408C403.475 266.471 402.816 266.285 402.286 265.888C401.757 265.491 401.394 264.91 401.27 264.26L130.49 264.23ZM402 311.34C402.092 310.687 402.424 310.092 402.931 309.671C403.439 309.25 404.085 309.033 404.743 309.063C405.402 309.092 406.026 309.367 406.493 309.832C406.961 310.297 407.238 310.919 407.271 311.578C407.304 312.236 407.09 312.883 406.671 313.393C406.253 313.902 405.659 314.237 405.007 314.332C404.355 314.427 403.69 314.276 403.143 313.908C402.597 313.539 402.207 312.98 402.05 312.34H363.68V302.18C363.202 302.052 362.77 301.792 362.434 301.43C362.098 301.067 361.871 300.616 361.78 300.13H319.15V299.13H361.78C361.899 298.525 362.224 297.98 362.7 297.589C363.176 297.197 363.774 296.983 364.39 296.983C365.006 296.983 365.604 297.197 366.08 297.589C366.556 297.98 366.881 298.525 367 299.13H402C402.124 298.48 402.487 297.899 403.016 297.502C403.546 297.105 404.205 296.919 404.864 296.982C405.523 297.044 406.135 297.35 406.58 297.84C407.026 298.33 407.273 298.968 407.273 299.63C407.273 300.292 407.026 300.93 406.58 301.42C406.135 301.91 405.523 302.216 404.864 302.278C404.205 302.341 403.546 302.155 403.016 301.758C402.487 301.361 402.124 300.78 402 300.13H367C366.891 300.686 366.606 301.192 366.189 301.575C365.772 301.958 365.243 302.198 364.68 302.26V311.34H402Z" fill="white"/>
</g>
<path d="M272.78 122.77H247.43C246.872 122.77 246.337 122.549 245.942 122.156C245.546 121.762 245.323 121.228 245.32 120.67V108.73C245.32 104.81 246.877 101.051 249.649 98.279C252.421 95.5072 256.18 93.95 260.1 93.95C264.02 93.95 267.779 95.5072 270.551 98.279C273.323 101.051 274.88 104.81 274.88 108.73V120.67C274.88 121.227 274.659 121.761 274.265 122.155C273.871 122.549 273.337 122.77 272.78 122.77ZM249.54 118.56H270.67V108.73C270.714 107.315 270.472 105.906 269.961 104.586C269.45 103.266 268.679 102.063 267.693 101.047C266.708 100.03 265.528 99.2226 264.225 98.6709C262.921 98.1192 261.52 97.8349 260.105 97.8349C258.69 97.8349 257.289 98.1192 255.985 98.6709C254.682 99.2226 253.502 100.03 252.517 101.047C251.531 102.063 250.76 103.266 250.249 104.586C249.738 105.906 249.496 107.315 249.54 108.73V118.56Z" fill="#FF725E" stroke="#263238" stroke-linecap="round" stroke-linejoin="round"/>
<path d="M276.03 117.02H243.76V144.29H276.03V117.02Z" fill="#263238" stroke="#263238" stroke-linecap="round" stroke-linejoin="round"/>
<path d="M263.25 128.34C263.252 127.717 263.089 127.104 262.777 126.564C262.465 126.025 262.016 125.577 261.474 125.269C260.933 124.96 260.319 124.8 259.696 124.806C259.073 124.812 258.462 124.984 257.927 125.303C257.391 125.622 256.95 126.078 256.649 126.624C256.348 127.169 256.196 127.785 256.211 128.408C256.226 129.031 256.405 129.64 256.732 130.17C257.059 130.701 257.52 131.136 258.07 131.43L257.48 137.63H262L261.41 131.43C261.968 131.13 262.433 130.684 262.757 130.139C263.081 129.595 263.252 128.973 263.25 128.34Z" fill="#FF725E" stroke="#263238" stroke-miterlimit="10"/>
<path d="M390.77 257.38H365.42C365.143 257.38 364.869 257.325 364.614 257.219C364.359 257.113 364.127 256.957 363.932 256.761C363.736 256.565 363.582 256.333 363.477 256.077C363.372 255.821 363.319 255.547 363.32 255.27V243.34C363.269 241.367 363.613 239.404 364.332 237.567C365.052 235.73 366.132 234.055 367.509 232.641C368.886 231.228 370.532 230.105 372.35 229.338C374.168 228.571 376.122 228.176 378.095 228.176C380.068 228.176 382.022 228.571 383.84 229.338C385.658 230.105 387.304 231.228 388.681 232.641C390.058 234.055 391.138 235.73 391.858 237.567C392.577 239.404 392.921 241.367 392.87 243.34V255.27C392.871 255.547 392.818 255.821 392.713 256.077C392.608 256.333 392.454 256.565 392.258 256.761C392.063 256.957 391.831 257.113 391.576 257.219C391.321 257.325 391.047 257.38 390.77 257.38ZM367.53 253.17H388.66V243.34C388.704 241.925 388.462 240.516 387.951 239.196C387.44 237.876 386.669 236.673 385.683 235.657C384.698 234.64 383.518 233.833 382.215 233.281C380.911 232.729 379.51 232.445 378.095 232.445C376.68 232.445 375.279 232.729 373.975 233.281C372.672 233.833 371.492 234.64 370.507 235.657C369.521 236.673 368.75 237.876 368.239 239.196C367.728 240.516 367.486 241.925 367.53 243.34V253.17Z" fill="#FF725E" stroke="#263238" stroke-linecap="round" stroke-linejoin="round"/>
<path d="M394.02 251.63H361.75V278.9H394.02V251.63Z" fill="#263238" stroke="#263238" stroke-linecap="round" stroke-linejoin="round"/>
<path d="M381.24 263C381.242 262.377 381.079 261.764 380.767 261.224C380.455 260.685 380.006 260.238 379.464 259.929C378.923 259.62 378.309 259.46 377.686 259.466C377.063 259.472 376.452 259.644 375.917 259.963C375.381 260.282 374.94 260.738 374.639 261.284C374.338 261.829 374.186 262.445 374.201 263.068C374.216 263.691 374.395 264.3 374.722 264.831C375.049 265.361 375.51 265.796 376.06 266.09L375.47 272.28H380L379.4 266C379.944 265.706 380.4 265.274 380.723 264.747C381.046 264.221 381.225 263.618 381.24 263V263Z" fill="#FF725E" stroke="#263238" stroke-miterlimit="10"/>
<path d="M153.37 257.38H128C127.723 257.381 127.448 257.328 127.191 257.222C126.934 257.117 126.701 256.961 126.505 256.765C126.309 256.569 126.153 256.336 126.048 256.079C125.942 255.822 125.889 255.547 125.89 255.27V243.34C125.89 239.42 127.447 235.661 130.219 232.889C132.991 230.117 136.75 228.56 140.67 228.56C144.59 228.56 148.349 230.117 151.121 232.889C153.893 235.661 155.45 239.42 155.45 243.34V255.27C155.453 255.825 155.235 256.359 154.846 256.754C154.456 257.15 153.925 257.375 153.37 257.38ZM130.13 253.17H151.27V243.34C151.27 240.537 150.156 237.848 148.174 235.866C146.192 233.884 143.503 232.77 140.7 232.77C137.897 232.77 135.208 233.884 133.226 235.866C131.244 237.848 130.13 240.537 130.13 243.34V253.17Z" fill="#FF725E" stroke="#263238" stroke-linecap="round" stroke-linejoin="round"/>
<path d="M156.63 251.63H124.36V278.9H156.63V251.63Z" fill="#263238" stroke="#263238" stroke-linecap="round" stroke-linejoin="round"/>
<path d="M143.85 263C143.852 262.377 143.688 261.766 143.376 261.227C143.064 260.688 142.614 260.242 142.073 259.933C141.532 259.625 140.919 259.466 140.297 259.472C139.674 259.477 139.064 259.648 138.529 259.967C137.994 260.285 137.553 260.74 137.251 261.285C136.95 261.829 136.798 262.444 136.811 263.067C136.824 263.689 137.002 264.297 137.327 264.828C137.652 265.359 138.112 265.795 138.66 266.09L138.07 272.28H142.59L142 266C142.546 265.708 143.005 265.277 143.33 264.75C143.655 264.223 143.835 263.619 143.85 263V263Z" fill="#FF725E" stroke="#263238" stroke-miterlimit="10"/>
<path d="M410.26 238C406.26 242.18 403.88 248.58 403.92 255.09C403.96 261.6 406.47 268.09 410.62 272.23C410.937 272.547 411.367 272.725 411.815 272.725C412.263 272.725 412.693 272.547 413.01 272.23C413.168 272.073 413.294 271.886 413.378 271.68C413.462 271.474 413.504 271.253 413.5 271.03C413.497 270.585 413.321 270.158 413.01 269.84C409.47 266.33 407.34 260.84 407.3 255.08C407.26 249.32 409.3 243.91 412.7 240.35C412.854 240.19 412.974 240.001 413.055 239.794C413.136 239.587 413.175 239.367 413.17 239.145C413.165 238.923 413.117 238.704 413.028 238.501C412.939 238.297 412.81 238.114 412.65 237.96C412.49 237.806 412.301 237.686 412.094 237.605C411.887 237.525 411.667 237.485 411.445 237.49C411.223 237.495 411.004 237.543 410.801 237.632C410.597 237.721 410.414 237.85 410.26 238.01V238Z" fill="#FF725E"/>
<path d="M415.19 242.55C412.378 246.112 410.867 250.528 410.909 255.066C410.951 259.603 412.543 263.991 415.42 267.5C415.714 267.84 416.13 268.049 416.578 268.083C417.026 268.117 417.469 267.972 417.81 267.68C417.996 267.519 418.144 267.319 418.244 267.094C418.345 266.87 418.394 266.626 418.39 266.38C418.392 265.983 418.249 265.6 417.99 265.3C415.63 262.396 414.325 258.776 414.291 255.033C414.256 251.291 415.493 247.647 417.8 244.7C418.085 244.354 418.221 243.909 418.178 243.462C418.135 243.016 417.916 242.605 417.57 242.32C417.224 242.035 416.779 241.899 416.332 241.942C415.886 241.985 415.475 242.204 415.19 242.55V242.55Z" fill="#FF725E"/>
<path d="M420.06 247.16C418.241 249.414 417.276 252.236 417.332 255.131C417.389 258.027 418.465 260.809 420.37 262.99C420.592 263.263 420.894 263.459 421.233 263.552C421.572 263.646 421.932 263.63 422.262 263.509C422.592 263.388 422.877 263.167 423.075 262.877C423.274 262.587 423.377 262.242 423.37 261.89C423.371 261.497 423.229 261.116 422.97 260.82C421.575 259.226 420.787 257.19 420.745 255.072C420.703 252.954 421.409 250.889 422.74 249.24C422.993 248.886 423.099 248.447 423.036 248.017C422.974 247.586 422.748 247.196 422.405 246.928C422.062 246.66 421.629 246.534 421.196 246.577C420.763 246.621 420.363 246.829 420.08 247.16H420.06Z" fill="#FF725E"/>
<path d="M109.69 238C113.69 242.18 116.08 248.58 116.03 255.09C115.98 261.6 113.48 268.09 109.33 272.23C109.172 272.386 108.986 272.51 108.78 272.594C108.575 272.678 108.355 272.721 108.133 272.72C107.911 272.719 107.691 272.674 107.487 272.589C107.282 272.503 107.096 272.378 106.94 272.22C106.784 272.062 106.66 271.876 106.576 271.67C106.492 271.465 106.449 271.245 106.45 271.023C106.451 270.801 106.496 270.581 106.581 270.377C106.667 270.172 106.792 269.986 106.95 269.83C110.48 266.32 112.61 260.83 112.65 255.07C112.69 249.31 110.65 243.9 107.25 240.34C106.936 240.022 106.759 239.592 106.759 239.145C106.759 238.698 106.936 238.268 107.25 237.95C107.41 237.787 107.602 237.659 107.814 237.573C108.025 237.487 108.252 237.445 108.481 237.45C108.709 237.455 108.934 237.506 109.142 237.6C109.35 237.695 109.536 237.831 109.69 238V238Z" fill="#FF725E"/>
<path d="M104.77 242.55C107.583 246.112 109.092 250.529 109.049 255.067C109.005 259.606 107.411 263.993 104.53 267.5C104.238 267.839 103.823 268.048 103.377 268.082C102.931 268.116 102.49 267.971 102.15 267.68C101.964 267.518 101.816 267.318 101.714 267.094C101.612 266.87 101.56 266.626 101.56 266.38C101.563 265.983 101.708 265.599 101.97 265.3C104.33 262.396 105.635 258.776 105.669 255.033C105.704 251.291 104.467 247.647 102.16 244.7C101.875 244.354 101.739 243.909 101.782 243.462C101.825 243.016 102.044 242.605 102.39 242.32C102.736 242.035 103.181 241.899 103.628 241.942C104.074 241.985 104.485 242.204 104.77 242.55Z" fill="#FF725E"/>
<path d="M99.9 247.16C101.716 249.417 102.679 252.242 102.621 255.138C102.562 258.035 101.486 260.818 99.58 263C99.4383 263.171 99.264 263.312 99.0672 263.416C98.8705 263.519 98.6552 263.582 98.4338 263.602C98.2125 263.621 97.9895 263.597 97.7777 263.53C97.5659 263.462 97.3695 263.354 97.2 263.21C97.0102 263.049 96.858 262.848 96.7544 262.622C96.6507 262.395 96.598 262.149 96.6 261.9C96.6034 261.507 96.745 261.129 97 260.83C98.4078 259.242 99.2049 257.206 99.2489 255.084C99.2928 252.963 98.5808 250.895 97.24 249.25C97.1024 249.076 97.0006 248.876 96.9407 248.662C96.8807 248.448 96.8637 248.225 96.8907 248.005C96.9177 247.784 96.988 247.571 97.0978 247.378C97.2075 247.185 97.3544 247.016 97.53 246.88C97.8826 246.606 98.3289 246.482 98.7724 246.534C99.2159 246.587 99.6209 246.811 99.9 247.16V247.16Z" fill="#FF725E"/>
<path d="M257.38 425.97C346.414 425.97 418.59 403.405 418.59 375.57C418.59 347.735 346.414 325.17 257.38 325.17C168.346 325.17 96.17 347.735 96.17 375.57C96.17 403.405 168.346 425.97 257.38 425.97Z" fill="#FF725E"/>
<path opacity="0.5" d="M257.38 425.97C346.414 425.97 418.59 403.405 418.59 375.57C418.59 347.735 346.414 325.17 257.38 325.17C168.346 325.17 96.17 347.735 96.17 375.57C96.17 403.405 168.346 425.97 257.38 425.97Z" fill="white"/>
<path d="M259 414.83C340.12 414.83 405.88 394.857 405.88 370.22C405.88 345.583 340.12 325.61 259 325.61C177.88 325.61 112.12 345.583 112.12 370.22C112.12 394.857 177.88 414.83 259 414.83Z" fill="#263238" stroke="#263238" stroke-miterlimit="10"/>
<path d="M259 397.15C331.327 397.15 389.96 380.213 389.96 359.32C389.96 338.427 331.327 321.49 259 321.49C186.673 321.49 128.04 338.427 128.04 359.32C128.04 380.213 186.673 397.15 259 397.15Z" fill="white" stroke="#263238" stroke-miterlimit="10"/>
<path d="M259 391.33C324.965 391.33 378.44 376.439 378.44 358.07C378.44 339.701 324.965 324.81 259 324.81C193.035 324.81 139.56 339.701 139.56 358.07C139.56 376.439 193.035 391.33 259 391.33Z" fill="white" stroke="#263238" stroke-miterlimit="10"/>
<path d="M259 391.32C324.092 391.32 376.86 378.851 376.86 363.47C376.86 348.089 324.092 335.62 259 335.62C193.908 335.62 141.14 348.089 141.14 363.47C141.14 378.851 193.908 391.32 259 391.32Z" fill="white" stroke="#263238" stroke-miterlimit="10"/>
<path d="M146.54 386.47C146.65 387.295 146.505 388.133 146.125 388.873C145.746 389.613 145.148 390.219 144.414 390.611C143.68 391.002 142.844 391.159 142.018 391.062C141.191 390.964 140.415 390.616 139.792 390.065C139.169 389.514 138.729 388.785 138.532 387.977C138.335 387.169 138.389 386.32 138.688 385.543C138.987 384.767 139.517 384.101 140.205 383.634C140.893 383.166 141.708 382.921 142.54 382.93C143.538 382.878 144.516 383.22 145.264 383.882C146.012 384.544 146.471 385.473 146.54 386.47V386.47Z" fill="white" stroke="#263238" stroke-miterlimit="10"/>
<path d="M200.69 405.46C202.921 405.46 204.73 403.875 204.73 401.92C204.73 399.965 202.921 398.38 200.69 398.38C198.459 398.38 196.65 399.965 196.65 401.92C196.65 403.875 198.459 405.46 200.69 405.46Z" fill="white" stroke="#263238" stroke-miterlimit="10"/>
<path d="M274 404.45C274.11 405.275 273.965 406.113 273.585 406.853C273.206 407.593 272.608 408.199 271.874 408.591C271.14 408.982 270.304 409.139 269.478 409.042C268.651 408.944 267.875 408.596 267.252 408.045C266.629 407.494 266.189 406.765 265.992 405.957C265.795 405.149 265.849 404.3 266.148 403.523C266.447 402.747 266.977 402.081 267.665 401.614C268.353 401.146 269.168 400.901 270 400.91C270.998 400.858 271.976 401.2 272.724 401.862C273.472 402.524 273.931 403.453 274 404.45V404.45Z" fill="white" stroke="#263238" stroke-miterlimit="10"/>
<path d="M338.65 401.92C340.881 401.92 342.69 400.335 342.69 398.38C342.69 396.425 340.881 394.84 338.65 394.84C336.419 394.84 334.61 396.425 334.61 398.38C334.61 400.335 336.419 401.92 338.65 401.92Z" fill="white" stroke="#263238" stroke-miterlimit="10"/>
<path d="M383.12 385.75C385.351 385.75 387.16 384.165 387.16 382.21C387.16 380.255 385.351 378.67 383.12 378.67C380.889 378.67 379.08 380.255 379.08 382.21C379.08 384.165 380.889 385.75 383.12 385.75Z" fill="white" stroke="#263238" stroke-miterlimit="10"/>
<path d="M401.22 362.73C400.55 364.01 398.22 364.11 396 362.96C393.78 361.81 392.53 359.83 393.2 358.55C393.87 357.27 396.2 357.17 398.42 358.32C400.64 359.47 401.89 361.45 401.22 362.73Z" fill="white" stroke="#263238" stroke-miterlimit="10"/>
<path d="M116.78 362.73C117.45 364.01 119.78 364.11 122 362.96C124.22 361.81 125.47 359.83 124.8 358.55C124.13 357.27 121.8 357.17 119.58 358.32C117.36 359.47 116.11 361.45 116.78 362.73Z" fill="white" stroke="#263238" stroke-miterlimit="10"/>
<path d="M139.37 350.82V316.7" stroke="#263238" stroke-miterlimit="10"/>
<path d="M161.41 375.7V358.64" stroke="#263238" stroke-miterlimit="10"/>
<path d="M161.41 354.37V320.25" stroke="#263238" stroke-miterlimit="10"/>
<path d="M358.32 377.12V343" stroke="#263238" stroke-miterlimit="10"/>
<path d="M337.6 383.04V308.01" stroke="#263238" stroke-miterlimit="10"/>
<path d="M251.69 390.63V374.99" stroke="#263238" stroke-miterlimit="10"/>
<path d="M186.1 384.96V346.71" stroke="#263238" stroke-miterlimit="10"/>
<path d="M302.69 389.62V381.89" stroke="#263238" stroke-miterlimit="10"/>
<path d="M302.69 379.48V363.7" stroke="#263238" stroke-miterlimit="10"/>
<path d="M251.69 367.88V359.35" stroke="#263238" stroke-miterlimit="10"/>
<path d="M358.32 335.18V319.54" stroke="#263238" stroke-miterlimit="10"/>
<path d="M378.23 362.19V286.13" stroke="#263238" stroke-miterlimit="10"/>
<path d="M139.37 311.72V293.26" stroke="#263238" stroke-miterlimit="10"/>
<path d="M324.65 255.64H319.9V268.2H324.65V255.64Z" fill="#263238" stroke="#263238" stroke-miterlimit="10"/>
<path d="M321.47 162.38H196.44V189.46H321.47V162.38Z" fill="#263238" stroke="#263238" stroke-miterlimit="10"/>
<path d="M324.65 329.74H319.9V342.3H324.65V329.74Z" fill="#263238" stroke="#263238" stroke-miterlimit="10"/>
<path d="M197.58 329.74H192.83V342.3H197.58V329.74Z" fill="#263238" stroke="#263238" stroke-miterlimit="10"/>
<path d="M196.89 182.97H192.14V195.53H196.89V182.97Z" fill="#263238" stroke="#263238" stroke-miterlimit="10"/>
<path d="M196.89 293.16H192.14V305.72H196.89V293.16Z" fill="#263238" stroke="#263238" stroke-miterlimit="10"/>
<path d="M196.89 255.56H192.14V268.12H196.89V255.56Z" fill="#263238" stroke="#263238" stroke-miterlimit="10"/>
<path d="M325.87 182.97H321.12V195.53H325.87V182.97Z" fill="#263238" stroke="#263238" stroke-miterlimit="10"/>
<path d="M325.87 293.16H321.12V305.72H325.87V293.16Z" fill="#263238" stroke="#263238" stroke-miterlimit="10"/>
<path d="M196.89 219.2H192.14V231.76H196.89V219.2Z" fill="#263238" stroke="#263238" stroke-miterlimit="10"/>
<path d="M325.87 219.2H321.12V231.76H325.87V219.2Z" fill="#263238" stroke="#263238" stroke-miterlimit="10"/>
<path d="M321.47 176.02H196.44V203.1H321.47V176.02Z" fill="white" stroke="#263238" stroke-miterlimit="10"/>
<path d="M230.03 182.93H222.89V196.19H230.03V182.93Z" fill="#FF725E" stroke="#263238" stroke-miterlimit="10"/>
<path d="M219.08 182.93H211.94V196.19H219.08V182.93Z" fill="#FF725E" stroke="#263238" stroke-miterlimit="10"/>
<path d="M208.14 182.93H202.45V196.19H208.14V182.93Z" fill="#FF725E" stroke="#263238" stroke-miterlimit="10"/>
<path d="M240.98 182.93H233.84V196.19H240.98V182.93Z" fill="#FF725E" stroke="#263238" stroke-miterlimit="10"/>
<path d="M288.61 182.93H244.78V196.19H288.61V182.93Z" fill="#FF725E" stroke="#263238" stroke-miterlimit="10"/>
<path d="M300.29 192.32C302.135 192.32 303.63 190.825 303.63 188.98C303.63 187.135 302.135 185.64 300.29 185.64C298.445 185.64 296.95 187.135 296.95 188.98C296.95 190.825 298.445 192.32 300.29 192.32Z" fill="white" stroke="#263238" stroke-miterlimit="10"/>
<path d="M316.72 189C316.72 188.337 316.523 187.689 316.155 187.138C315.786 186.587 315.262 186.157 314.65 185.904C314.037 185.651 313.363 185.585 312.713 185.715C312.063 185.845 311.466 186.165 310.998 186.635C310.53 187.104 310.211 187.702 310.083 188.353C309.955 189.003 310.023 189.677 310.278 190.289C310.533 190.901 310.964 191.423 311.516 191.79C312.068 192.157 312.717 192.352 313.38 192.35C314.267 192.347 315.116 191.993 315.742 191.365C316.368 190.737 316.72 189.887 316.72 189V189Z" fill="#FF725E" stroke="#263238" stroke-miterlimit="10"/>
<path d="M280.79 192.32C282.635 192.32 284.13 190.825 284.13 188.98C284.13 187.135 282.635 185.64 280.79 185.64C278.945 185.64 277.45 187.135 277.45 188.98C277.45 190.825 278.945 192.32 280.79 192.32Z" fill="white" stroke="#263238" stroke-miterlimit="10"/>
<path d="M316.72 203.1H201.18V212.37H316.72V203.1Z" fill="#263238" stroke="#263238" stroke-miterlimit="10"/>
<path d="M321.47 212.38H196.44V239.46H321.47V212.38Z" fill="white" stroke="#263238" stroke-miterlimit="10"/>
<path d="M219.08 219.29H211.94V232.55H219.08V219.29Z" fill="#FF725E" stroke="#263238" stroke-miterlimit="10"/>
<path d="M240.98 219.29H233.84V232.55H240.98V219.29Z" fill="#FF725E" stroke="#263238" stroke-miterlimit="10"/>
<path d="M230.03 219.29H222.89V232.55H230.03V219.29Z" fill="#FF725E" stroke="#263238" stroke-miterlimit="10"/>
<path d="M208.14 219.29H202.45V232.55H208.14V219.29Z" fill="#FF725E" stroke="#263238" stroke-miterlimit="10"/>
<path d="M288.61 219.29H244.78V232.55H288.61V219.29Z" fill="#FF725E" stroke="#263238" stroke-miterlimit="10"/>
<path d="M300.29 228.68C302.135 228.68 303.63 227.185 303.63 225.34C303.63 223.495 302.135 222 300.29 222C298.445 222 296.95 223.495 296.95 225.34C296.95 227.185 298.445 228.68 300.29 228.68Z" fill="#FF725E" stroke="#263238" stroke-miterlimit="10"/>
<path d="M316.72 225.34C316.722 224.677 316.527 224.028 316.16 223.475C315.792 222.923 315.269 222.492 314.657 222.237C314.044 221.982 313.37 221.915 312.719 222.044C312.068 222.173 311.47 222.492 311.001 222.961C310.532 223.43 310.213 224.028 310.084 224.679C309.955 225.33 310.022 226.004 310.277 226.617C310.532 227.229 310.963 227.752 311.515 228.12C312.068 228.487 312.717 228.682 313.38 228.68C314.266 228.68 315.115 228.328 315.742 227.702C316.368 227.075 316.72 226.226 316.72 225.34V225.34Z" fill="white" stroke="#263238" stroke-miterlimit="10"/>
<path d="M280.79 228.68C282.635 228.68 284.13 227.185 284.13 225.34C284.13 223.495 282.635 222 280.79 222C278.945 222 277.45 223.495 277.45 225.34C277.45 227.185 278.945 228.68 280.79 228.68Z" fill="white" stroke="#263238" stroke-miterlimit="10"/>
<path d="M316.72 239.46H201.18V248.73H316.72V239.46Z" fill="#263238" stroke="#263238" stroke-miterlimit="10"/>
<path d="M321.47 248.73H196.44V275.81H321.47V248.73Z" fill="white" stroke="#263238" stroke-miterlimit="10"/>
<path d="M230.03 255.64H222.89V268.9H230.03V255.64Z" fill="#FF725E" stroke="#263238" stroke-miterlimit="10"/>
<path d="M240.98 255.64H233.84V268.9H240.98V255.64Z" fill="#FF725E" stroke="#263238" stroke-miterlimit="10"/>
<path d="M219.08 255.64H211.94V268.9H219.08V255.64Z" fill="#FF725E" stroke="#263238" stroke-miterlimit="10"/>
<path d="M288.61 255.64H244.78V268.9H288.61V255.64Z" fill="#FF725E" stroke="#263238" stroke-miterlimit="10"/>
<path d="M208.14 255.64H202.45V268.9H208.14V255.64Z" fill="#FF725E" stroke="#263238" stroke-miterlimit="10"/>
<path d="M300.29 265.03C302.135 265.03 303.63 263.535 303.63 261.69C303.63 259.845 302.135 258.35 300.29 258.35C298.445 258.35 296.95 259.845 296.95 261.69C296.95 263.535 298.445 265.03 300.29 265.03Z" fill="white" stroke="#263238" stroke-miterlimit="10"/>
<path d="M316.72 261.69C316.72 261.027 316.523 260.379 316.155 259.828C315.786 259.277 315.262 258.847 314.65 258.594C314.037 258.341 313.363 258.275 312.713 258.405C312.063 258.535 311.466 258.855 310.998 259.325C310.53 259.794 310.211 260.392 310.083 261.043C309.955 261.693 310.023 262.367 310.278 262.979C310.533 263.591 310.964 264.113 311.516 264.48C312.068 264.847 312.717 265.042 313.38 265.04C314.267 265.037 315.116 264.683 315.742 264.055C316.368 263.427 316.72 262.577 316.72 261.69V261.69Z" fill="#FF725E" stroke="#263238" stroke-miterlimit="10"/>
<path d="M280.79 265.03C282.635 265.03 284.13 263.535 284.13 261.69C284.13 259.845 282.635 258.35 280.79 258.35C278.945 258.35 277.45 259.845 277.45 261.69C277.45 263.535 278.945 265.03 280.79 265.03Z" fill="white" stroke="#263238" stroke-miterlimit="10"/>
<path d="M316.72 275.81H201.18V285.08H316.72V275.81Z" fill="#263238" stroke="#263238" stroke-miterlimit="10"/>
<path d="M321.47 285.09H196.44V312.17H321.47V285.09Z" fill="white" stroke="#263238" stroke-miterlimit="10"/>
<path d="M240.98 292H233.84V305.26H240.98V292Z" fill="#FF725E" stroke="#263238" stroke-miterlimit="10"/>
<path d="M219.08 292H211.94V305.26H219.08V292Z" fill="#FF725E" stroke="#263238" stroke-miterlimit="10"/>
<path d="M230.03 292H222.89V305.26H230.03V292Z" fill="#FF725E" stroke="#263238" stroke-miterlimit="10"/>
<path d="M208.14 292H202.45V305.26H208.14V292Z" fill="#FF725E" stroke="#263238" stroke-miterlimit="10"/>
<path d="M288.61 292H244.78V305.26H288.61V292Z" fill="#FF725E" stroke="#263238" stroke-miterlimit="10"/>
<path d="M300.29 301.39C302.135 301.39 303.63 299.895 303.63 298.05C303.63 296.205 302.135 294.71 300.29 294.71C298.445 294.71 296.95 296.205 296.95 298.05C296.95 299.895 298.445 301.39 300.29 301.39Z" fill="#FF725E" stroke="#263238" stroke-miterlimit="10"/>
<path d="M316.72 298.05C316.722 297.387 316.527 296.738 316.16 296.185C315.792 295.633 315.269 295.202 314.657 294.947C314.044 294.692 313.37 294.625 312.719 294.754C312.068 294.883 311.47 295.202 311.001 295.671C310.532 296.14 310.213 296.738 310.084 297.389C309.955 298.04 310.022 298.714 310.277 299.327C310.532 299.939 310.963 300.462 311.515 300.83C312.068 301.197 312.717 301.392 313.38 301.39C314.266 301.39 315.115 301.038 315.742 300.412C316.368 299.785 316.72 298.936 316.72 298.05V298.05Z" fill="white" stroke="#263238" stroke-miterlimit="10"/>
<path d="M280.79 301.39C282.635 301.39 284.13 299.895 284.13 298.05C284.13 296.205 282.635 294.71 280.79 294.71C278.945 294.71 277.45 296.205 277.45 298.05C277.45 299.895 278.945 301.39 280.79 301.39Z" fill="white" stroke="#263238" stroke-miterlimit="10"/>
<path d="M316.72 312.17H201.18V321.44H316.72V312.17Z" fill="#263238" stroke="#263238" stroke-miterlimit="10"/>
<path d="M321.47 321.44H196.44V348.52H321.47V321.44Z" fill="white" stroke="#263238" stroke-miterlimit="10"/>
<path d="M219.08 328.35H211.94V341.61H219.08V328.35Z" fill="#FF725E" stroke="#263238" stroke-miterlimit="10"/>
<path d="M230.03 328.35H222.89V341.61H230.03V328.35Z" fill="#FF725E" stroke="#263238" stroke-miterlimit="10"/>
<path d="M240.98 328.35H233.84V341.61H240.98V328.35Z" fill="#FF725E" stroke="#263238" stroke-miterlimit="10"/>
<path d="M208.14 328.35H202.45V341.61H208.14V328.35Z" fill="#FF725E" stroke="#263238" stroke-miterlimit="10"/>
<path d="M288.61 328.35H244.78V341.61H288.61V328.35Z" fill="#FF725E" stroke="#263238" stroke-miterlimit="10"/>
<path d="M300.29 337.74C302.135 337.74 303.63 336.245 303.63 334.4C303.63 332.555 302.135 331.06 300.29 331.06C298.445 331.06 296.95 332.555 296.95 334.4C296.95 336.245 298.445 337.74 300.29 337.74Z" fill="white" stroke="#263238" stroke-miterlimit="10"/>
<path d="M316.72 334.4C316.72 333.737 316.523 333.089 316.155 332.538C315.786 331.987 315.262 331.557 314.65 331.304C314.037 331.051 313.363 330.985 312.713 331.115C312.063 331.245 311.466 331.565 310.998 332.035C310.53 332.504 310.211 333.102 310.083 333.753C309.955 334.403 310.023 335.077 310.278 335.689C310.533 336.301 310.964 336.823 311.516 337.19C312.068 337.557 312.717 337.752 313.38 337.75C314.267 337.747 315.116 337.393 315.742 336.765C316.368 336.137 316.72 335.287 316.72 334.4V334.4Z" fill="#FF725E" stroke="#263238" stroke-miterlimit="10"/>
<path d="M280.79 337.74C282.635 337.74 284.13 336.245 284.13 334.4C284.13 332.555 282.635 331.06 280.79 331.06C278.945 331.06 277.45 332.555 277.45 334.4C277.45 336.245 278.945 337.74 280.79 337.74Z" fill="white" stroke="#263238" stroke-miterlimit="10"/>
</svg>
