<svg viewBox="0 0 500 500" fill="none" xmlns="http://www.w3.org/2000/svg">
<path d="M422.41 180C424.68 156.54 430.11 134.33 420.51 111.77C402.89 70.37 349.74 48.39 308.44 68C287.32 78 269.26 92.63 246 98C183.22 112.49 86.32 35.29 52.15 125.17C40.42 156.01 45.15 196.65 66.36 222.43C73.17 230.7 81.49 237.9 86.53 247.36C100.32 273.25 80.8 301.7 72 325.85C51.1 382.92 129.9 414.5 172.67 420.32C243.37 430 301.69 349 372 382C421 405 464 349 455 293C449.11 256.34 419.29 221.25 422.08 183.89C422.18 182.6 422.29 181.31 422.41 180Z" fill="#FF725E"/>
<path opacity="0.7" d="M422.41 180C424.68 156.54 430.11 134.33 420.51 111.77C402.89 70.37 349.74 48.39 308.44 68C287.32 78 269.26 92.63 246 98C183.22 112.49 86.32 35.29 52.15 125.17C40.42 156.01 45.15 196.65 66.36 222.43C73.17 230.7 81.49 237.9 86.53 247.36C100.32 273.25 80.8 301.7 72 325.85C51.1 382.92 129.9 414.5 172.67 420.32C243.37 430 301.69 349 372 382C421 405 464 349 455 293C449.11 256.34 419.29 221.25 422.08 183.89C422.18 182.6 422.29 181.31 422.41 180Z" fill="white"/>
<path d="M85.77 195.26C104.84 195.26 120.3 179.8 120.3 160.73C120.3 141.66 104.84 126.2 85.77 126.2C66.6996 126.2 51.24 141.66 51.24 160.73C51.24 179.8 66.6996 195.26 85.77 195.26Z" fill="white" stroke="#2E353A" stroke-linecap="round" stroke-linejoin="round"/>
<path d="M83.2 191.83C102.27 191.83 117.73 176.37 117.73 157.3C117.73 138.23 102.27 122.77 83.2 122.77C64.1296 122.77 48.67 138.23 48.67 157.3C48.67 176.37 64.1296 191.83 83.2 191.83Z" fill="white" stroke="#2E353A" stroke-linecap="round" stroke-linejoin="round"/>
<path d="M83.2 188.4C100.376 188.4 114.3 174.476 114.3 157.3C114.3 140.124 100.376 126.2 83.2 126.2C66.0239 126.2 52.1 140.124 52.1 157.3C52.1 174.476 66.0239 188.4 83.2 188.4Z" fill="#2E353A" stroke="#2E353A" stroke-linecap="round" stroke-linejoin="round"/>
<path d="M79.55 133.92C79.55 133.92 76.12 125.34 70.12 119.34C64.12 113.34 39.66 109.47 39.66 109.47C43.6097 113.28 47.2015 117.444 50.39 121.91C55.96 129.63 74.39 147.22 74.39 147.22C74.39 147.22 65.39 139.5 57.23 138.64C49.07 137.78 28.49 142.07 27.23 142.07C25.97 142.07 34.95 145.5 41.39 148.5C47.83 151.5 72.7 154.08 72.7 154.08C72.7 154.08 61.98 157.08 54.7 159.66C47.42 162.24 40.52 181.1 40.52 181.1C40.52 181.1 49.96 172.52 58.11 170.38C66.26 168.24 77.84 164.38 77.84 164.38C77.84 164.38 70.55 172.53 68.84 178.11C67.13 183.69 68.41 196.55 68.41 196.55C68.41 196.55 72.27 184.55 76.99 179.82C81.71 175.09 86.84 167 86.84 167C89.2159 170.873 91.3662 174.879 93.28 179C96.71 186.29 98.85 197 98.85 197C98.85 197 104.43 185 104 179C103.57 173 97.14 162.27 97.14 162.27C97.14 162.27 101.43 159.27 107.86 161.84C114.29 164.41 125.45 175.14 125.45 175.14C125.45 175.14 122.87 160.98 118.58 155.41C114.29 149.84 95.85 148.11 95.85 148.11C95.85 148.11 106.15 142.11 112.58 140.82C119.01 139.53 127.58 142.54 127.58 142.54C127.58 142.54 117.72 128.81 110 127.95C102.28 127.09 90.7 139.07 90.7 139.07L94.14 121.91C94.99 117.62 93.28 106.91 93.28 106.91C93.28 106.91 88.56 109.48 82.98 117.63C81.347 119.977 80.2019 122.629 79.6127 125.427C79.0235 128.225 79.0022 131.113 79.55 133.92Z" fill="#FF725E"/>
<path opacity="0.5" d="M79.55 133.92C79.55 133.92 76.12 125.34 70.12 119.34C64.12 113.34 39.66 109.47 39.66 109.47C43.6097 113.28 47.2015 117.444 50.39 121.91C55.96 129.63 74.39 147.22 74.39 147.22C74.39 147.22 65.39 139.5 57.23 138.64C49.07 137.78 28.49 142.07 27.23 142.07C25.97 142.07 34.95 145.5 41.39 148.5C47.83 151.5 72.7 154.08 72.7 154.08C72.7 154.08 61.98 157.08 54.7 159.66C47.42 162.24 40.52 181.1 40.52 181.1C40.52 181.1 49.96 172.52 58.11 170.38C66.26 168.24 77.84 164.38 77.84 164.38C77.84 164.38 70.55 172.53 68.84 178.11C67.13 183.69 68.41 196.55 68.41 196.55C68.41 196.55 72.27 184.55 76.99 179.82C81.71 175.09 86.84 167 86.84 167C89.2159 170.873 91.3662 174.879 93.28 179C96.71 186.29 98.85 197 98.85 197C98.85 197 104.43 185 104 179C103.57 173 97.14 162.27 97.14 162.27C97.14 162.27 101.43 159.27 107.86 161.84C114.29 164.41 125.45 175.14 125.45 175.14C125.45 175.14 122.87 160.98 118.58 155.41C114.29 149.84 95.85 148.11 95.85 148.11C95.85 148.11 106.15 142.11 112.58 140.82C119.01 139.53 127.58 142.54 127.58 142.54C127.58 142.54 117.72 128.81 110 127.95C102.28 127.09 90.7 139.07 90.7 139.07L94.14 121.91C94.99 117.62 93.28 106.91 93.28 106.91C93.28 106.91 88.56 109.48 82.98 117.63C81.347 119.977 80.2019 122.629 79.6127 125.427C79.0235 128.225 79.0022 131.113 79.55 133.92Z" fill="black"/>
<path d="M88 120.86C88.3 119.63 88.63 118.4 89 117.19" stroke="#2E353A" stroke-width="0.5" stroke-linecap="round" stroke-linejoin="round"/>
<path d="M59.35 120.86C63.35 123.79 68.35 127.86 70.97 131.35C75.69 137.78 85.13 151.51 85.13 151.51C84.8596 142.288 85.5906 133.064 87.31 124" stroke="#2E353A" stroke-width="0.5" stroke-linecap="round" stroke-linejoin="round"/>
<path d="M53.39 116.76C53.39 116.76 54.64 117.56 56.51 118.85" stroke="#2E353A" stroke-width="0.5" stroke-linecap="round" stroke-linejoin="round"/>
<path d="M85.13 151.51C85.13 151.51 101.43 135.21 108.29 133.92C115.15 132.63 121.16 137.78 121.16 137.78" stroke="#2E353A" stroke-width="0.5" stroke-linecap="round" stroke-linejoin="round"/>
<path d="M56 165.14C52 167.66 51.67 169.14 51.67 169.14" stroke="#2E353A" stroke-width="0.5" stroke-linecap="round" stroke-linejoin="round"/>
<path d="M120.73 166.52C120.73 166.52 118.16 160.08 109.15 157.08C100.14 154.08 86 153.65 86 153.65C86 153.65 66.15 160.15 58.89 163.54" stroke="#2E353A" stroke-width="0.5" stroke-linecap="round" stroke-linejoin="round"/>
<path d="M77.32 151.2C82.12 152.6 85.99 153.65 85.99 153.65" stroke="#2E353A" stroke-width="0.5" stroke-linecap="round" stroke-linejoin="round"/>
<path d="M47.11 143.58C51.77 143.86 57.77 144.5 61.11 145.93C63.83 147.1 69.19 148.79 74.25 150.3" stroke="#2E353A" stroke-width="0.5" stroke-linecap="round" stroke-linejoin="round"/>
<path d="M40.52 143.36C40.52 143.36 42.09 143.36 44.4 143.45" stroke="#2E353A" stroke-width="0.5" stroke-linecap="round" stroke-linejoin="round"/>
<path d="M85.13 156.22C85.13 156.22 73.13 174.22 72.26 178.53C71.7447 181.073 71.4569 183.656 71.4 186.25" stroke="#2E353A" stroke-width="0.5" stroke-linecap="round" stroke-linejoin="round"/>
<path d="M90.47 161.89C92.78 164.89 95.55 168.89 96.71 172.09C98.0602 175.994 99.0641 180.01 99.71 184.09" stroke="#2E353A" stroke-width="0.5" stroke-linecap="round" stroke-linejoin="round"/>
<path d="M86.84 157.51C86.84 157.51 87.84 158.57 89.13 160.2" stroke="#2E353A" stroke-width="0.5" stroke-linecap="round" stroke-linejoin="round"/>
<path d="M74.1 137.62C74.1 137.62 71.89 128.62 73.26 120.27C74.63 111.92 92.26 94.49 92.26 94.49C91.2802 99.8879 90.7948 105.364 90.81 110.85C90.81 120.37 86.06 145.41 86.06 145.41C86.06 145.41 88.87 133.89 94.99 128.41C101.11 122.93 120.34 114.41 121.38 113.68C122.42 112.95 117.11 120.97 113.64 127.17C110.17 133.37 91.44 150 91.44 150C91.44 150 101.9 146.18 109.32 144C116.74 141.82 133.32 153.16 133.32 153.16C133.32 153.16 120.65 151.7 112.78 154.71C104.91 157.72 93.25 161.34 93.25 161.34C93.25 161.34 103.93 163.71 108.57 167.24C113.21 170.77 119.69 182 119.69 182C119.69 182 109.55 174.49 102.96 173.41C96.37 172.33 87.44 168.72 87.44 168.72C87.7787 173.25 88.373 177.757 89.22 182.22C90.69 190.15 95.22 200.11 95.22 200.11C95.22 200.11 83.69 193.61 80.53 188.48C77.37 183.35 76.35 170.89 76.35 170.89C76.35 170.89 71.11 170.95 67.35 176.79C63.59 182.63 60.82 197.85 60.82 197.85C60.82 197.85 54.66 184.85 54.89 177.85C55.12 170.85 69.1 158.67 69.1 158.67C69.1 158.67 57.24 159.8 51.26 162.5C45.28 165.2 40.06 172.65 40.06 172.65C40.06 172.65 40.06 155.75 45.84 150.55C51.62 145.35 68.03 148.35 68.03 148.35L55.23 136.42C52.03 133.42 47.17 123.72 47.17 123.72C47.17 123.72 52.51 123.06 61.79 126.43C64.4874 127.374 66.9673 128.852 69.082 130.774C71.1968 132.697 72.9033 135.025 74.1 137.62V137.62Z" fill="#FF725E"/>
<path d="M59.62 131.94C58.62 131.11 57.68 130.31 56.68 129.53" stroke="#2E353A" stroke-width="0.5" stroke-linecap="round" stroke-linejoin="round"/>
<path d="M82.89 115.23C81.34 119.95 79.61 126.16 79.57 130.52C79.49 138.52 79.83 155.15 79.83 155.15C74.6685 147.504 68.6899 140.442 62 134.09" stroke="#2E353A" stroke-width="0.5" stroke-linecap="round" stroke-linejoin="round"/>
<path d="M85.35 108.42C85.35 108.42 84.79 109.8 84.03 111.93" stroke="#2E353A" stroke-width="0.5" stroke-linecap="round" stroke-linejoin="round"/>
<path d="M79.83 155.15C79.83 155.15 57.08 151.42 50.76 154.38C44.44 157.34 42.56 165 42.56 165" stroke="#2E353A" stroke-width="0.5" stroke-linecap="round" stroke-linejoin="round"/>
<path d="M111.45 149.23C116.14 148.97 117.26 149.92 117.26 149.92" stroke="#2E353A" stroke-width="0.5" stroke-linecap="round" stroke-linejoin="round"/>
<path d="M59.67 188.11C59.67 188.11 58.01 181.38 63.57 173.69C69.13 166 80.39 157.4 80.39 157.4C80.39 157.4 100.3 151.09 108.17 149.62" stroke="#2E353A" stroke-width="0.5" stroke-linecap="round" stroke-linejoin="round"/>
<path d="M86 150.35C82.92 154.28 80.4 157.4 80.4 157.4" stroke="#2E353A" stroke-width="0.5" stroke-linecap="round" stroke-linejoin="round"/>
<path d="M106.09 126.54C102.47 129.54 97.97 133.54 96.09 136.61C94.56 139.15 91.19 143.61 87.96 147.82" stroke="#2E353A" stroke-width="0.5" stroke-linecap="round" stroke-linejoin="round"/>
<path d="M111.31 122.51C111.31 122.51 110.04 123.43 108.21 124.85" stroke="#2E353A" stroke-width="0.5" stroke-linecap="round" stroke-linejoin="round"/>
<path d="M82.58 159C82.58 159 102.85 166.62 106.04 169.61C107.942 171.374 109.683 173.305 111.24 175.38" stroke="#2E353A" stroke-width="0.5" stroke-linecap="round" stroke-linejoin="round"/>
<path d="M81.55 166.7C81.41 170.48 81.48 175.33 82.43 178.63C83.6089 182.595 85.1383 186.446 87 190.14" stroke="#2E353A" stroke-width="0.5" stroke-linecap="round" stroke-linejoin="round"/>
<path d="M81.94 161C81.94 161 81.78 162.42 81.66 164.52" stroke="#2E353A" stroke-width="0.5" stroke-linecap="round" stroke-linejoin="round"/>
<path d="M140.83 183.43H367.5C370.33 183.43 373.044 184.554 375.045 186.555C377.046 188.556 378.17 191.27 378.17 194.1V341.1C378.17 342.633 377.868 344.15 377.282 345.566C376.695 346.982 375.836 348.268 374.752 349.352C373.668 350.436 372.382 351.295 370.966 351.882C369.55 352.468 368.033 352.77 366.5 352.77H141.83C140.297 352.77 138.78 352.468 137.364 351.882C135.948 351.295 134.662 350.436 133.578 349.352C132.494 348.268 131.635 346.982 131.048 345.566C130.462 344.15 130.16 342.633 130.16 341.1V194.1C130.16 191.27 131.284 188.556 133.285 186.555C135.286 184.554 138 183.43 140.83 183.43Z" fill="white" stroke="#2E353A" stroke-linecap="round" stroke-linejoin="round"/>
<path d="M223.79 200.1H209.83V209.27H223.79V200.1Z" fill="#2E353A"/>
<path d="M178.56 256.67H165.6V269.53H178.56V256.67Z" fill="#2E353A"/>
<path d="M235.82 211.47H222.76V224.33H235.82V211.47Z" fill="#2E353A"/>
<path d="M207.62 200.1H193.66V209.27H207.62V200.1Z" fill="#2E353A"/>
<path d="M251.08 211.47H238.02V224.33H251.08V211.47Z" fill="#2E353A"/>
<path d="M239.95 200.1H225.99V209.27H239.95V200.1Z" fill="#2E353A"/>
<path d="M170.73 241.6H146.17V254.46H170.73V241.6Z" fill="#2E353A"/>
<path d="M205.29 211.47H192.23V224.33H205.29V211.47Z" fill="#2E353A"/>
<path d="M163.4 256.67H146.17V269.53H163.4V256.67Z" fill="#2E353A"/>
<path d="M256.12 200.1H242.16V209.27H256.12V200.1Z" fill="#2E353A"/>
<path d="M174.76 211.47H161.7V224.33H174.76V211.47Z" fill="#2E353A"/>
<path d="M175.29 200.1H161.33V209.27H175.29V200.1Z" fill="#2E353A"/>
<path d="M191.46 200.1H177.5V209.27H191.46V200.1Z" fill="#2E353A"/>
<path d="M190.02 211.47H176.96V224.33H190.02V211.47Z" fill="#2E353A"/>
<path d="M220.55 211.47H207.49V224.33H220.55V211.47Z" fill="#2E353A"/>
<path d="M320.79 200.1H306.83V209.27H320.79V200.1Z" fill="#2E353A"/>
<path d="M336.95 200.1H322.99V209.27H336.95V200.1Z" fill="#2E353A"/>
<path d="M327.41 211.47H314.35V224.33H327.41V211.47Z" fill="#2E353A"/>
<path d="M342.68 211.47H329.62V224.33H342.68V211.47Z" fill="#2E353A"/>
<path d="M366.83 256.67H347.6V269.53H366.83V256.67Z" fill="#2E353A"/>
<path d="M353.12 200.1H339.16V209.27H353.12V200.1Z" fill="#2E353A"/>
<path d="M159.5 211.47H146.17V224.33H159.5V211.47Z" fill="#2E353A"/>
<path d="M272.29 200.1H258.33V209.27H272.29V200.1Z" fill="#2E353A"/>
<path d="M288.45 200.1H274.49V209.27H288.45V200.1Z" fill="#2E353A"/>
<path d="M281.62 211.47H268.56V224.33H281.62V211.47Z" fill="#2E353A"/>
<path d="M312.15 211.47H299.09V224.33H312.15V211.47Z" fill="#2E353A"/>
<path d="M266.35 211.47H253.29V224.33H266.35V211.47Z" fill="#2E353A"/>
<path d="M296.88 211.47H283.82V224.33H296.88V211.47Z" fill="#2E353A"/>
<path d="M304.62 200.1H290.66V209.27H304.62V200.1Z" fill="#2E353A"/>
<path d="M284.73 256.67H271.77V269.53H284.73V256.67Z" fill="#2E353A"/>
<path d="M352.73 241.6H339.77V254.46H352.73V241.6Z" fill="#2E353A"/>
<path d="M337.56 241.6H324.6V254.46H337.56V241.6Z" fill="#2E353A"/>
<path d="M345.39 256.67H332.43V269.53H345.39V256.67Z" fill="#2E353A"/>
<path d="M330.23 256.67H317.27V269.53H330.23V256.67Z" fill="#2E353A"/>
<path d="M299.89 256.67H286.93V269.53H299.89V256.67Z" fill="#2E353A"/>
<path d="M315.06 256.67H302.1V269.53H315.06V256.67Z" fill="#2E353A"/>
<path d="M322.39 241.6H309.43V254.46H322.39V241.6Z" fill="#2E353A"/>
<path d="M307.23 241.6H294.27V254.46H307.23V241.6Z" fill="#2E353A"/>
<path d="M366.84 200.1H355.33V209.27H366.84V200.1Z" fill="#2E353A"/>
<path d="M159.13 200.1H146.17V209.27H159.13V200.1Z" fill="#2E353A"/>
<path d="M366.84 271.73H146.17V285.1H366.84V271.73Z" fill="#2E353A"/>
<path d="M366.83 211.47H344.88V224.33H366.83V211.47Z" fill="#2E353A"/>
<path d="M366.83 241.6H354.93V254.46H366.83V241.6Z" fill="#2E353A"/>
<path d="M351.27 239.3H349.06V226.54H336.1V239.3H333.9V226.54H320.94V239.3H318.73V226.54H305.77V239.3H303.56V226.54H290.6V239.3H288.4V226.54H275.44V239.3H273.23V226.54H260.27V239.3H258.06V226.54H245.1V239.3H242.9V226.54H229.94V239.3H227.73V226.54H214.77V239.3H212.56V226.54H199.6V239.3H197.4V226.54H184.44V239.3H182.23V226.54H169.27V239.3H167.06V226.54H146.17V239.4H366.83V226.54H351.27V239.3Z" fill="#2E353A"/>
<path d="M246.56 241.6H233.6V254.46H246.56V241.6Z" fill="#2E353A"/>
<path d="M292.06 241.6H279.1V254.46H292.06V241.6Z" fill="#2E353A"/>
<path d="M216.23 241.6H203.27V254.46H216.23V241.6Z" fill="#2E353A"/>
<path d="M224.06 256.67H211.1V269.53H224.06V256.67Z" fill="#2E353A"/>
<path d="M231.39 241.6H218.43V254.46H231.39V241.6Z" fill="#2E353A"/>
<path d="M201.06 241.6H188.1V254.46H201.06V241.6Z" fill="#2E353A"/>
<path d="M193.73 256.67H180.77V269.53H193.73V256.67Z" fill="#2E353A"/>
<path d="M208.89 256.67H195.93V269.53H208.89V256.67Z" fill="#2E353A"/>
<path d="M261.73 241.6H248.77V254.46H261.73V241.6Z" fill="#2E353A"/>
<path d="M269.56 256.67H256.6V269.53H269.56V256.67Z" fill="#2E353A"/>
<path d="M276.89 241.6H263.93V254.46H276.89V241.6Z" fill="#2E353A"/>
<path d="M239.23 256.67H226.27V269.53H239.23V256.67Z" fill="#2E353A"/>
<path d="M254.39 256.67H241.43V269.53H254.39V256.67Z" fill="#2E353A"/>
<path d="M185.89 241.6H172.93V254.46H185.89V241.6Z" fill="#2E353A"/>
<path d="M392.33 91.43H114.67C113.308 91.4311 111.965 91.7452 110.744 92.3483C109.524 92.9513 108.458 93.827 107.629 94.9076C106.801 95.9883 106.232 97.245 105.967 98.5806C105.702 99.9162 105.747 101.295 106.1 102.61L126.4 178.19C126.906 180.077 128.02 181.744 129.569 182.933C131.118 184.123 133.017 184.768 134.97 184.77H163.31V190H345V184.8H372C373.953 184.798 375.852 184.153 377.401 182.963C378.95 181.774 380.064 180.107 380.57 178.22L400.87 102.64C401.227 101.325 401.278 99.946 401.017 98.6088C400.756 97.2716 400.19 96.0124 399.365 94.9287C398.539 93.8449 397.475 92.9657 396.255 92.359C395.036 91.7523 393.692 91.4344 392.33 91.43V91.43Z" fill="#2E353A" stroke="#2E353A" stroke-linecap="round" stroke-linejoin="round"/>
<path d="M360.93 178.1H146.07L124.58 100.77H382.41L360.93 178.1Z" fill="#FF725E" stroke="#2E353A" stroke-linecap="round" stroke-linejoin="round"/>
<path d="M160.33 144.16V145.16H156.54V144.16H160.33Z" fill="#2E353A"/>
<path d="M165.05 144.16V145.16H161.25V144.16H165.05Z" fill="#2E353A"/>
<path d="M169.77 144.16V145.16H166V144.16H169.77Z" fill="#2E353A"/>
<path d="M174.48 144.16V145.16H170.69V144.16H174.48Z" fill="#2E353A"/>
<path d="M179.2 144.16V145.16H175.4V144.16H179.2Z" fill="#2E353A"/>
<path d="M183.92 144.16V145.16H180.12V144.16H183.92Z" fill="#2E353A"/>
<path d="M188.63 144.16V145.16H184.84V144.16H188.63Z" fill="#2E353A"/>
<path d="M193.3 149.43L189.12 138.29H190.12L194.3 149.43H193.3Z" fill="#2E353A"/>
<path d="M156.51 127.94V128.94H152.72V127.94H156.51Z" fill="#2E353A"/>
<path d="M161.23 127.94V128.94H157.44V127.94H161.23Z" fill="#2E353A"/>
<path d="M166 127.94V128.94H162.2V127.94H166Z" fill="#2E353A"/>
<path d="M170.67 127.94V128.94H166.87V127.94H170.67Z" fill="#2E353A"/>
<path d="M175.38 127.94V128.94H171.59V127.94H175.38Z" fill="#2E353A"/>
<path d="M183.36 127.94V128.94H179.56V127.94H183.36Z" fill="#2E353A"/>
<path d="M188.07 127.94V128.94H184.28V127.94H188.07Z" fill="#2E353A"/>
<path d="M192.79 127.94V128.94H189V127.94H192.79Z" fill="#2E353A"/>
<path d="M197.51 127.94V128.94H193.71V127.94H197.51Z" fill="#2E353A"/>
<path d="M202.22 127.94V128.94H198.43V127.94H202.22Z" fill="#2E353A"/>
<path d="M206.94 127.94V128.94H203.15V127.94H206.94Z" fill="#2E353A"/>
<path d="M211.66 127.94V128.94H207.86V127.94H211.66Z" fill="#2E353A"/>
<path d="M219.63 127.94V128.94H215.84V127.94H219.63Z" fill="#2E353A"/>
<path d="M224.35 127.94V128.94H220.55V127.94H224.35Z" fill="#2E353A"/>
<path d="M229.07 127.94V128.94H225.27V127.94H229.07Z" fill="#2E353A"/>
<path d="M237 127.94V128.94H233.21V127.94H237Z" fill="#2E353A"/>
<path d="M241.76 127.94V128.94H238V127.94H241.76Z" fill="#2E353A"/>
<path d="M246.48 127.94V128.94H242.68V127.94H246.48Z" fill="#2E353A"/>
<path d="M264.22 127.94V128.94H260.43V127.94H264.22Z" fill="#2E353A"/>
<path d="M268.94 127.94V128.94H265.14V127.94H268.94Z" fill="#2E353A"/>
<path d="M273.66 127.94V128.94H269.86V127.94H273.66Z" fill="#2E353A"/>
<path d="M278.37 127.94V128.94H274.58V127.94H278.37Z" fill="#2E353A"/>
<path d="M283.09 127.94V128.94H279.29V127.94H283.09Z" fill="#2E353A"/>
<path d="M291.06 127.94V128.94H287.27V127.94H291.06Z" fill="#2E353A"/>
<path d="M295.78 127.94V128.94H292V127.94H295.78Z" fill="#2E353A"/>
<path d="M300.5 127.94V128.94H296.7V127.94H300.5Z" fill="#2E353A"/>
<path d="M308.47 127.94V128.94H304.68V127.94H308.47Z" fill="#2E353A"/>
<path d="M316.45 127.94V128.94H312.65V127.94H316.45Z" fill="#2E353A"/>
<path d="M379.69 292.29L368.99 333.57L379.11 336.54L379.69 292.29Z" fill="white" stroke="#2E353A" stroke-linecap="round" stroke-linejoin="round"/>
<path d="M384.49 248.66C383.283 246.805 382.842 244.554 383.26 242.38C383.81 238.31 388.72 237.38 388.72 237.38C388.72 237.38 389.79 236.57 393.72 238.06C397.65 239.55 428.04 243.67 447.46 246.3C466.88 248.93 473.17 247.23 472.9 253.9C472.63 260.57 455.59 320.43 455.33 322.31C455.07 324.19 384.49 248.66 384.49 248.66Z" fill="white" stroke="#2E353A" stroke-miterlimit="10"/>
<path d="M466.174 259.736L384.482 248.662L371.281 346.041L452.974 357.115L466.174 259.736Z" fill="white" stroke="#2E353A" stroke-linecap="round" stroke-linejoin="round"/>
<path d="M450.99 279.16L455.74 279.81" stroke="#2E353A" stroke-width="0.5" stroke-linecap="round" stroke-linejoin="round"/>
<path d="M421.24 275.13L447.23 278.66" stroke="#2E353A" stroke-width="0.5" stroke-linecap="round" stroke-linejoin="round"/>
<path d="M389.74 270.86L417.48 274.62" stroke="#2E353A" stroke-width="0.5" stroke-linecap="round" stroke-linejoin="round"/>
<path d="M443.55 286.97L454.57 288.47" stroke="#2E353A" stroke-width="0.5" stroke-linecap="round" stroke-linejoin="round"/>
<path d="M388.57 279.52L432.28 285.44" stroke="#2E353A" stroke-width="0.5" stroke-linecap="round" stroke-linejoin="round"/>
<path d="M410.75 291.34L453.4 297.12" stroke="#2E353A" stroke-width="0.5" stroke-linecap="round" stroke-linejoin="round"/>
<path d="M387.39 288.17L406.36 290.75" stroke="#2E353A" stroke-width="0.5" stroke-linecap="round" stroke-linejoin="round"/>
<path d="M424.92 302.08L452.22 305.78" stroke="#2E353A" stroke-width="0.5" stroke-linecap="round" stroke-linejoin="round"/>
<path d="M401.75 298.93L421.79 301.65" stroke="#2E353A" stroke-width="0.5" stroke-linecap="round" stroke-linejoin="round"/>
<path d="M386.22 296.83L398.3 298.47" stroke="#2E353A" stroke-width="0.5" stroke-linecap="round" stroke-linejoin="round"/>
<path d="M441.28 313.11L451.05 314.43" stroke="#2E353A" stroke-width="0.5" stroke-linecap="round" stroke-linejoin="round"/>
<path d="M385.05 305.49L434.71 312.22" stroke="#2E353A" stroke-width="0.5" stroke-linecap="round" stroke-linejoin="round"/>
<path d="M422.26 319.34L449.88 323.09" stroke="#2E353A" stroke-width="0.5" stroke-linecap="round" stroke-linejoin="round"/>
<path d="M383.87 314.14L417.56 318.71" stroke="#2E353A" stroke-width="0.5" stroke-linecap="round" stroke-linejoin="round"/>
<path d="M430.79 329.32L448.7 331.74" stroke="#2E353A" stroke-width="0.5" stroke-linecap="round" stroke-linejoin="round"/>
<path d="M394.47 324.39L426.41 328.72" stroke="#2E353A" stroke-width="0.5" stroke-linecap="round" stroke-linejoin="round"/>
<path d="M382.7 322.8L390.71 323.88" stroke="#2E353A" stroke-width="0.5" stroke-linecap="round" stroke-linejoin="round"/>
<path d="M466.18 259.74C466.18 259.74 467.58 246.16 472.58 251.62" stroke="#2E353A" stroke-linecap="round" stroke-linejoin="round"/>
<path d="M438.48 364.35L438.39 372.98L433.36 365.88L413.17 297.97L418.29 296.44L438.48 364.35Z" fill="white" stroke="#2E353A" stroke-linecap="round" stroke-linejoin="round"/>
<path d="M416.286 299.342L413.492 300.157L433.33 368.173L436.124 367.358L416.286 299.342Z" fill="#FF725E" stroke="#2E353A" stroke-width="0.5" stroke-linecap="round" stroke-linejoin="round"/>
<path d="M438.48 364.37L433.37 365.89L438.39 372.98L438.48 364.37Z" stroke="#2E353A" stroke-linecap="round" stroke-linejoin="round"/>
<path d="M435.88 369.43L438.39 372.98L438.44 368.67L435.88 369.43Z" fill="#2E353A" stroke="#2E353A" stroke-linecap="round" stroke-linejoin="round"/>
<path d="M413.47 289.6C412.793 289.804 412.223 290.267 411.886 290.889C411.549 291.511 411.471 292.241 411.67 292.92L413.17 297.97L418.29 296.45L416.79 291.4C416.586 290.723 416.123 290.153 415.501 289.816C414.879 289.479 414.149 289.401 413.47 289.6V289.6Z" fill="white" stroke="#2E353A" stroke-linecap="round" stroke-linejoin="round"/>
<path d="M413.47 289.6C412.793 289.804 412.223 290.267 411.886 290.889C411.549 291.511 411.471 292.241 411.67 292.92L412.39 295.33L417.5 293.81L416.79 291.4C416.586 290.723 416.123 290.153 415.501 289.816C414.879 289.479 414.149 289.401 413.47 289.6V289.6Z" fill="#2E353A" stroke="#2E353A" stroke-linecap="round" stroke-linejoin="round"/>
<path d="M161.65 249.49C161.01 250.39 160.38 251.33 159.75 252.32" stroke="white" stroke-linecap="round" stroke-linejoin="round"/>
<path d="M172.11 237.45C169.324 240.033 166.746 242.831 164.4 245.82" stroke="white" stroke-linecap="round" stroke-linejoin="round"/>
<path d="M160.76 242.76C158.028 246.592 155.552 250.601 153.35 254.76" stroke="white" stroke-linecap="round" stroke-linejoin="round"/>
<path d="M231.29 264.75C230.66 265.65 230.02 266.59 229.39 267.57" stroke="white" stroke-linecap="round" stroke-linejoin="round"/>
<path d="M241.75 252.71C238.969 255.295 236.394 258.093 234.05 261.08" stroke="white" stroke-linecap="round" stroke-linejoin="round"/>
<path d="M230.41 258C227.679 261.854 225.204 265.883 223 270.06" stroke="white" stroke-linecap="round" stroke-linejoin="round"/>
<path d="M331.11 240C330.2 239.38 329.24 238.76 328.25 238.14" stroke="white" stroke-linecap="round" stroke-linejoin="round"/>
<path d="M343.31 250.28C340.68 247.541 337.842 245.01 334.82 242.71" stroke="white" stroke-linecap="round" stroke-linejoin="round"/>
<path d="M337.83 239C333.938 236.328 329.877 233.913 325.67 231.77" stroke="white" stroke-linecap="round" stroke-linejoin="round"/>
<path d="M228.25 302C227.73 305.76 226.95 311 226.17 314.11" stroke="#2E353A" stroke-linecap="round" stroke-linejoin="round"/>
<path d="M228.83 297.43C228.83 297.43 228.75 298.14 228.6 299.29" stroke="#2E353A" stroke-linecap="round" stroke-linejoin="round"/>
<path d="M231.5 308.1C230.408 311.743 229.072 315.307 227.5 318.77" stroke="#2E353A" stroke-linecap="round" stroke-linejoin="round"/>
<path d="M281.5 313.43C281.5 313.43 282.17 322.1 286.83 326.77" stroke="#2E353A" stroke-linecap="round" stroke-linejoin="round"/>
<path d="M280.83 322.1C280.83 322.1 282.83 328.1 286.83 330.77" stroke="#2E353A" stroke-linecap="round" stroke-linejoin="round"/>
<g style="mix-blend-mode:multiply">
<path d="M145 368.44C145 368.44 149.44 364.87 149.44 334.18C149.44 303.49 154.55 281.07 160.85 271.24C167.15 261.41 173.04 257.47 175.8 257.47C178.56 257.47 176.58 261.01 172.65 266.12C168.72 271.23 165.18 273.99 163.6 280.29C162.02 286.59 162.03 294.45 164 293.66C165.97 292.87 169.11 277.14 171.86 271.24C174.61 265.34 181.31 257.86 185.24 254.32C189.17 250.78 197.83 240.16 201.76 242.91C205.69 245.66 203.34 249.6 200.98 251.17C198.62 252.74 189.17 262.17 184.85 268.09C180.53 274.01 177.77 288.94 180.13 289.33C182.49 289.72 189.57 267.7 193.5 262.98C197.43 258.26 213.17 245.27 216.71 244.88C220.25 244.49 220.65 249.99 217.5 252.75C214.35 255.51 203.73 267.3 200.19 274.38C196.65 281.46 195.07 294.45 198.19 291.3C201.31 288.15 206.45 275.17 210.78 270.84C215.11 266.51 228.09 252.75 231.24 254.32C234.39 255.89 233.6 259.83 230.85 262.58C228.1 265.33 217.47 280.29 214.72 288.15C211.97 296.01 208.81 318.05 210.39 314.91C211.97 311.77 217.08 295.63 219.83 288.91C222.58 282.19 228.09 279.08 228.88 282.22C229.67 285.36 228.09 286.94 226.12 294.03C224.15 301.12 224.12 320.03 218.26 330.61C212.4 341.19 188.88 363.83 185.74 371.69C183.465 377.104 180.75 382.321 177.62 387.29" fill="#FF725E"/>
</g>
<g style="mix-blend-mode:multiply">
<path d="M363.55 371.1C363.55 371.1 359 364.87 359 334.18C359 303.49 353.88 281.07 347.59 271.24C341.3 261.41 335.39 257.47 332.64 257.47C329.89 257.47 331.85 261.01 335.79 266.12C339.73 271.23 343.26 273.99 344.79 280.29C346.32 286.59 346.37 294.45 344.4 293.66C342.43 292.87 339.29 277.14 336.53 271.24C333.77 265.34 327.09 257.86 323.16 254.32C319.23 250.78 310.57 240.16 306.63 242.91C302.69 245.66 305.06 249.6 307.42 251.17C309.78 252.74 319.22 262.17 323.55 268.09C327.88 274.01 330.63 288.94 328.27 289.33C325.91 289.72 318.86 267.7 314.93 263C311 258.3 295.25 245.29 291.71 244.9C288.17 244.51 287.78 250.01 290.93 252.77C294.08 255.53 304.7 267.32 308.24 274.4C311.78 281.48 313.35 294.47 310.24 291.32C307.13 288.17 301.98 275.19 297.66 270.86C293.34 266.53 280.35 252.77 277.2 254.34C274.05 255.91 274.84 259.85 277.59 262.6C280.34 265.35 290.97 280.31 293.72 288.17C296.47 296.03 299.62 318.07 298.05 314.93C296.48 311.79 291.36 295.65 288.61 288.93C285.86 282.21 280.35 279.1 279.56 282.24C278.77 285.38 280.35 286.96 282.31 294.05C284.27 301.14 284.31 320.05 290.18 330.63C296.05 341.21 318.9 361.86 322.05 369.73C325.2 377.6 330.9 390 330.9 390" fill="#FF725E"/>
</g>
<path d="M143.5 376C143.5 376 149.4 356.73 149.4 326C149.4 295.27 154.51 272.89 160.81 263.06C167.11 253.23 173 249.29 175.76 249.29C178.52 249.29 176.54 252.83 172.61 257.94C168.68 263.05 165.14 265.81 163.56 272.1C161.98 278.39 161.99 286.27 163.96 285.48C165.93 284.69 169.07 268.96 171.82 263.06C174.57 257.16 181.27 249.68 185.2 246.14C189.13 242.6 197.79 231.98 201.72 234.73C205.65 237.48 203.3 241.42 200.94 242.99C198.58 244.56 189.13 253.99 184.81 259.91C180.49 265.83 177.73 280.76 180.09 281.15C182.45 281.54 189.53 259.52 193.46 254.79C197.39 250.06 213.13 237.09 216.67 236.7C220.21 236.31 220.61 241.81 217.46 244.57C214.31 247.33 203.69 259.12 200.15 266.2C196.61 273.28 195.03 286.27 198.15 283.12C201.27 279.97 206.41 266.99 210.74 262.66C215.07 258.33 228.05 244.57 231.2 246.14C234.35 247.71 233.56 251.65 230.81 254.4C228.06 257.15 217.43 272.1 214.68 279.97C211.93 287.84 208.77 309.87 210.35 306.72C211.93 303.57 217.04 287.45 219.79 280.72C222.54 273.99 228.05 270.88 228.84 274.03C229.63 277.18 228.05 278.75 226.08 285.83C224.11 292.91 224.08 311.83 218.22 322.42C212.36 333.01 189.5 361.76 186.35 369.63C183.2 377.5 176.12 394.81 176.12 394.81" fill="white"/>
<path d="M143.5 376C143.5 376 149.4 356.73 149.4 326C149.4 295.27 154.51 272.89 160.81 263.06C167.11 253.23 173 249.29 175.76 249.29C178.52 249.29 176.54 252.83 172.61 257.94C168.68 263.05 165.14 265.81 163.56 272.1C161.98 278.39 161.99 286.27 163.96 285.48C165.93 284.69 169.07 268.96 171.82 263.06C174.57 257.16 181.27 249.68 185.2 246.14C189.13 242.6 197.79 231.98 201.72 234.73C205.65 237.48 203.3 241.42 200.94 242.99C198.58 244.56 189.13 253.99 184.81 259.91C180.49 265.83 177.73 280.76 180.09 281.15C182.45 281.54 189.53 259.52 193.46 254.79C197.39 250.06 213.13 237.09 216.67 236.7C220.21 236.31 220.61 241.81 217.46 244.57C214.31 247.33 203.69 259.12 200.15 266.2C196.61 273.28 195.03 286.27 198.15 283.12C201.27 279.97 206.41 266.99 210.74 262.66C215.07 258.33 228.05 244.57 231.2 246.14C234.35 247.71 233.56 251.65 230.81 254.4C228.06 257.15 217.43 272.1 214.68 279.97C211.93 287.84 208.77 309.87 210.35 306.72C211.93 303.57 217.04 287.45 219.79 280.72C222.54 273.99 228.05 270.88 228.84 274.03C229.63 277.18 228.05 278.75 226.08 285.83C224.11 292.91 224.08 311.83 218.22 322.42C212.36 333.01 189.5 361.76 186.35 369.63C183.2 377.5 176.12 394.81 176.12 394.81" stroke="#2E353A" stroke-linecap="round" stroke-linejoin="round"/>
<path d="M364.89 376C364.89 376 358.99 356.73 358.99 326C358.99 295.27 353.87 272.89 347.58 263.06C341.29 253.23 335.38 249.29 332.63 249.29C329.88 249.29 331.84 252.83 335.78 257.94C339.72 263.05 343.25 265.81 344.78 272.1C346.31 278.39 346.36 286.27 344.39 285.48C342.42 284.69 339.28 268.96 336.52 263.06C333.76 257.16 327.08 249.68 323.15 246.14C319.22 242.6 310.56 231.98 306.62 234.73C302.68 237.48 305.05 241.42 307.41 242.99C309.77 244.56 319.21 253.99 323.54 259.91C327.87 265.83 330.62 280.76 328.26 281.15C325.9 281.54 318.82 259.52 314.89 254.79C310.96 250.06 295.21 237.09 291.67 236.7C288.13 236.31 287.74 241.81 290.89 244.57C294.04 247.33 304.66 259.12 308.2 266.2C311.74 273.28 313.31 286.27 310.2 283.12C307.09 279.97 301.94 266.99 297.62 262.66C293.3 258.33 280.31 244.57 277.16 246.14C274.01 247.71 274.8 251.65 277.55 254.4C280.3 257.15 290.93 272.1 293.68 279.97C296.43 287.84 299.58 309.87 298.01 306.72C296.44 303.57 291.32 287.45 288.57 280.72C285.82 273.99 280.31 270.88 279.52 274.03C278.73 277.18 280.31 278.75 282.27 285.83C284.23 292.91 284.27 311.83 290.14 322.42C296.01 333.01 318.86 361.76 322.01 369.63C325.16 377.5 332.24 394.81 332.24 394.81" fill="white"/>
<path d="M364.89 376C364.89 376 358.99 356.73 358.99 326C358.99 295.27 353.87 272.89 347.58 263.06C341.29 253.23 335.38 249.29 332.63 249.29C329.88 249.29 331.84 252.83 335.78 257.94C339.72 263.05 343.25 265.81 344.78 272.1C346.31 278.39 346.36 286.27 344.39 285.48C342.42 284.69 339.28 268.96 336.52 263.06C333.76 257.16 327.08 249.68 323.15 246.14C319.22 242.6 310.56 231.98 306.62 234.73C302.68 237.48 305.05 241.42 307.41 242.99C309.77 244.56 319.21 253.99 323.54 259.91C327.87 265.83 330.62 280.76 328.26 281.15C325.9 281.54 318.82 259.52 314.89 254.79C310.96 250.06 295.21 237.09 291.67 236.7C288.13 236.31 287.74 241.81 290.89 244.57C294.04 247.33 304.66 259.12 308.2 266.2C311.74 273.28 313.31 286.27 310.2 283.12C307.09 279.97 301.94 266.99 297.62 262.66C293.3 258.33 280.31 244.57 277.16 246.14C274.01 247.71 274.8 251.65 277.55 254.4C280.3 257.15 290.93 272.1 293.68 279.97C296.43 287.84 299.58 309.87 298.01 306.72C296.44 303.57 291.32 287.45 288.57 280.72C285.82 273.99 280.31 270.88 279.52 274.03C278.73 277.18 280.31 278.75 282.27 285.83C284.23 292.91 284.27 311.83 290.14 322.42C296.01 333.01 318.86 361.76 322.01 369.63C325.16 377.5 332.24 394.81 332.24 394.81" stroke="#2E353A" stroke-linecap="round" stroke-linejoin="round"/>
<path d="M118.6 436H178.6C179.38 433 180.36 429.64 181.6 426C186.32 411.86 201.6 394.18 201.6 394.18C190.649 384.535 177.78 377.317 163.84 373C140.84 365.92 124 368 124 368C127.1 380.781 127.441 394.077 125 407C122 421.56 120 430.77 118.6 436Z" fill="#2E353A" stroke="#2E353A" stroke-linecap="round" stroke-linejoin="round"/>
<path d="M329.4 436H391.74C389.74 430.82 385.42 419.57 381.1 408.32C375.2 393 377.56 372.38 375.2 372.38C372.84 372.38 346.33 370.61 333.37 374.73C320.41 378.85 305.67 390.64 305.67 390.64C312.343 398.393 318.079 406.905 322.76 416C325.769 422.376 327.998 429.091 329.4 436V436Z" fill="#2E353A" stroke="#2E353A" stroke-linecap="round" stroke-linejoin="round"/>
<path d="M156.08 380.2C155.65 378.5 149.25 381.06 149.25 381.06C149.25 381.06 151.39 372.96 147.98 372.96C144.57 372.96 144.14 378.96 144.14 378.96C144.14 378.96 137.74 376.41 137.74 380.24C137.74 384.07 142 384 142 384C142 384 136.88 390.4 140.72 391.67C144.56 392.94 147.11 388.26 147.11 388.26C147.11 388.26 149.67 392.53 153.11 390.82C156.55 389.11 153.96 385.28 153.96 385.28C153.96 385.28 156.5 381.91 156.08 380.2ZM147.55 386.6C147.228 386.528 146.933 386.367 146.699 386.135C146.464 385.903 146.3 385.61 146.226 385.289C146.151 384.967 146.168 384.632 146.276 384.32C146.384 384.008 146.577 383.734 146.834 383.527C147.092 383.321 147.402 383.191 147.729 383.153C148.057 383.115 148.389 383.171 148.686 383.313C148.983 383.456 149.234 383.679 149.41 383.958C149.586 384.237 149.68 384.56 149.68 384.89C149.608 385.392 149.348 385.848 148.952 386.165C148.557 386.483 148.056 386.638 147.55 386.6V386.6ZM165.46 428C165.03 426.3 158.63 428.86 158.63 428.86C158.63 428.86 160.77 420.76 157.35 420.76C153.93 420.76 153.52 426.76 153.52 426.76C153.52 426.76 147.12 424.2 147.12 428.03C147.12 431.86 151.39 431.87 151.39 431.87C151.39 431.87 146.27 438.27 150.11 439.55C153.95 440.83 156.5 436.13 156.5 436.13C156.5 436.13 159.06 440.4 162.5 438.69C165.94 436.98 163.35 433.15 163.35 433.15C163.35 433.15 165.88 429.66 165.46 428ZM156.93 434.4C156.608 434.328 156.313 434.167 156.079 433.935C155.844 433.703 155.68 433.41 155.606 433.089C155.531 432.767 155.548 432.432 155.656 432.12C155.764 431.808 155.957 431.534 156.214 431.327C156.472 431.121 156.782 430.991 157.109 430.953C157.437 430.916 157.769 430.971 158.066 431.113C158.363 431.256 158.614 431.479 158.79 431.758C158.966 432.037 159.06 432.36 159.06 432.69C158.988 433.188 158.726 433.639 158.329 433.948C157.932 434.258 157.431 434.402 156.93 434.35V434.4ZM127.93 434.4C127.5 432.69 121.11 435.25 121.11 435.25C121.11 435.25 123.24 427.15 119.83 427.15C116.42 427.15 115.99 433.15 115.99 433.15C115.99 433.15 109.59 430.59 109.59 434.43C109.59 438.27 113.86 438.27 113.86 438.27C113.86 438.27 108.74 444.66 112.58 445.94C116.42 447.22 118.97 442.53 118.97 442.53C118.97 442.53 121.53 446.79 124.97 445.09C128.41 443.39 125.83 439.55 125.83 439.55C125.83 439.55 128.36 436.05 127.94 434.35L127.93 434.4ZM119.4 440.79C119.078 440.718 118.782 440.557 118.548 440.324C118.313 440.092 118.149 439.798 118.075 439.476C118.001 439.155 118.019 438.818 118.127 438.507C118.236 438.195 118.43 437.92 118.688 437.714C118.946 437.508 119.257 437.379 119.586 437.343C119.914 437.306 120.246 437.363 120.543 437.507C120.84 437.651 121.09 437.876 121.265 438.156C121.44 438.436 121.532 438.76 121.53 439.09C121.456 439.584 121.194 440.031 120.799 440.338C120.405 440.645 119.908 440.789 119.41 440.74L119.4 440.79ZM174.4 401.14H179.09C182.5 401.14 184.63 404.98 184.63 404.98C177.39 407.06 174.41 401.09 174.41 401.09L174.4 401.14ZM169.71 434.4H174.4C177.81 434.4 179.94 438.24 179.94 438.24C172.7 440.32 169.72 434.35 169.72 434.35L169.71 434.4ZM128.79 428H133.48C136.89 428 139.02 431.84 139.02 431.84C131.77 433.92 128.79 428 128.79 428ZM151.46 397.91L154.2 401.72C156.2 404.5 154.31 408.46 154.31 408.46C148.35 403.77 151.46 397.86 151.46 397.86V397.91ZM128 410.65L130.14 406.48C131.71 403.48 136.09 403.3 136.09 403.3C134.62 410.72 128 410.65 128 410.65Z" fill="white"/>
<path d="M356.89 388.3C356.46 386.6 350.06 389.16 350.06 389.16C350.06 389.16 352.2 381.06 348.79 381.06C345.38 381.06 344.95 387.06 344.95 387.06C344.95 387.06 338.55 384.51 338.55 388.34C338.55 392.17 342.82 392.18 342.82 392.18C342.82 392.18 337.7 398.58 341.54 399.86C345.38 401.14 347.93 396.44 347.93 396.44C347.93 396.44 350.49 400.71 353.93 399C357.37 397.29 354.78 393.46 354.78 393.46C354.78 393.46 357.31 390 356.89 388.3ZM348.36 394.7C348.038 394.628 347.743 394.467 347.509 394.235C347.274 394.003 347.11 393.71 347.036 393.389C346.961 393.067 346.978 392.732 347.086 392.42C347.194 392.108 347.387 391.834 347.644 391.627C347.902 391.421 348.212 391.291 348.539 391.253C348.867 391.215 349.199 391.271 349.496 391.413C349.793 391.556 350.044 391.779 350.22 392.058C350.396 392.337 350.49 392.66 350.49 392.99C350.43 393.497 350.173 393.96 349.774 394.28C349.376 394.6 348.868 394.751 348.36 394.7V394.7ZM376.92 421.56C376.5 419.85 370.1 422.41 370.1 422.41C370.1 422.41 372.23 414.31 368.82 414.31C365.41 414.31 364.99 420.31 364.99 420.31C364.99 420.31 358.59 417.75 358.59 421.59C358.59 425.43 362.85 425.43 362.85 425.43C362.85 425.43 357.74 431.82 361.58 433.1C365.42 434.38 367.97 429.69 367.97 429.69C367.97 429.69 370.53 433.95 373.97 432.25C377.41 430.55 374.82 426.71 374.82 426.71C374.82 426.71 377.35 423.26 376.92 421.56ZM368.4 428C368.078 427.928 367.782 427.767 367.548 427.534C367.313 427.302 367.149 427.008 367.075 426.686C367.001 426.365 367.019 426.028 367.127 425.717C367.236 425.405 367.43 425.13 367.688 424.924C367.946 424.718 368.257 424.589 368.586 424.553C368.914 424.516 369.246 424.573 369.543 424.717C369.84 424.861 370.09 425.086 370.265 425.366C370.44 425.646 370.532 425.97 370.53 426.3C370.467 426.805 370.209 427.266 369.811 427.584C369.413 427.902 368.907 428.051 368.4 428ZM355.61 434.4C355.18 432.69 348.79 435.25 348.79 435.25C348.79 435.25 350.92 427.15 347.51 427.15C344.1 427.15 343.67 433.15 343.67 433.15C343.67 433.15 337.27 430.59 337.27 434.43C337.27 438.27 341.54 438.27 341.54 438.27C341.54 438.27 336.42 444.66 340.26 445.94C344.1 447.22 346.65 442.53 346.65 442.53C346.65 442.53 349.21 446.79 352.65 445.09C356.09 443.39 353.51 439.55 353.51 439.55C353.51 439.55 356 436.05 355.61 434.35V434.4ZM347.08 440.79C346.758 440.718 346.462 440.557 346.228 440.324C345.993 440.092 345.829 439.798 345.755 439.476C345.681 439.155 345.699 438.818 345.807 438.507C345.916 438.195 346.11 437.92 346.368 437.714C346.626 437.508 346.937 437.379 347.266 437.343C347.594 437.306 347.926 437.363 348.223 437.507C348.52 437.651 348.77 437.876 348.945 438.156C349.12 438.436 349.212 438.76 349.21 439.09C349.135 439.586 348.873 440.035 348.476 440.342C348.079 440.649 347.579 440.792 347.08 440.74V440.79ZM375.22 409.24H379.91C383.32 409.24 385.45 413.08 385.45 413.08C378.2 415.16 375.22 409.19 375.22 409.19V409.24ZM324.91 433.5H329.6C333.01 433.5 335.14 437.33 335.14 437.33C327.89 439.47 324.91 433.5 324.91 433.5ZM352.27 406L355.01 409.81C357.01 412.59 355.12 416.55 355.12 416.55C349.16 411.87 352.27 406 352.27 406ZM380 429.84L382.73 433.65C384.73 436.42 382.84 440.39 382.84 440.39C376.88 435.74 380 429.84 380 429.84ZM328.77 418.75L330.91 414.58C332.48 411.58 336.91 411.4 336.91 411.4C335.43 418.82 328.76 418.75 328.76 418.75H328.77Z" fill="white"/>
</svg>
